M48
; DRILL file {KiCad (6.0.7)} date Thu Feb  2 22:14:04 2023
; FORMAT={-:-/ absolute / inch / decimal}
; #@! TF.CreationDate,2023-02-02T22:14:04+01:00
; #@! TF.GenerationSoftware,Kicad,Pcbnew,(6.0.7)
; #@! TF.FileFunction,Plated,1,2,PTH
FMAT,2
INCH
; #@! TA.AperFunction,Plated,PTH,ViaDrill
T1C0.0118
; #@! TA.AperFunction,Plated,PTH,ComponentDrill
T2C0.0118
; #@! TA.AperFunction,Plated,PTH,ViaDrill
T3C0.0157
; #@! TA.AperFunction,Plated,PTH,ComponentDrill
T4C0.0197
; #@! TA.AperFunction,Plated,PTH,ViaDrill
T5C0.0236
; #@! TA.AperFunction,Plated,PTH,ComponentDrill
T6C0.0236
; #@! TA.AperFunction,Plated,PTH,ComponentDrill
T7C0.0256
; #@! TA.AperFunction,Plated,PTH,ComponentDrill
T8C0.0276
; #@! TA.AperFunction,Plated,PTH,ComponentDrill
T9C0.0374
; #@! TA.AperFunction,Plated,PTH,ComponentDrill
T10C0.0472
; #@! TA.AperFunction,Plated,PTH,ComponentDrill
T11C0.1260
%
G90
G05
T1
X3.5748Y-4.4409
X3.5787Y-3.9567
X3.626Y-4.185
X3.7126Y-4.2717
X3.7362Y-5.6535
X3.752Y-3.9843
X3.7913Y-5.4882
X3.7953Y-4.5591
X3.7992Y-4.2992
X3.815Y-5.6496
X3.8228Y-4.185
X3.8346Y-4.3425
X3.8622Y-4.5
X3.8681Y-4.6594
X3.9055Y-4.815
X3.9173Y-4.6063
X3.9193Y-4.563
X3.9193Y-4.6594
X3.9223Y-4.5039
X3.9488Y-5.4567
X4.0157Y-3.9685
X4.0512Y-4.5512
X4.0906Y-4.6063
X4.1496Y-4.4173
X4.1575Y-3.9646
X4.1575Y-4.1417
X4.1732Y-4.5039
X4.2323Y-4.6457
X4.2559Y-4.3583
X4.2825Y-4.5738
X4.3189Y-4.1535
X4.3307Y-3.9724
X4.3583Y-4.6378
X4.3701Y-4.3937
X4.4094Y-4.7323
X4.4134Y-4.6417
X4.4255Y-5.3069
X4.434Y-4.5982
X4.437Y-4.749
X4.4528Y-4.0276
X4.4528Y-4.8504
X4.456Y-4.8156
X4.4567Y-4.189
X4.4567Y-4.7835
X4.4567Y-5.311
X4.4646Y-4.5906
X4.4685Y-5.2126
X4.4724Y-5.1654
X4.5264Y-5.5591
X4.563Y-5.1535
X4.5984Y-5.1535
X4.6181Y-5.189
X4.6339Y-5.3189
X4.6339Y-5.5709
X4.6496Y-4.811
X4.6577Y-5.7443
X4.6772Y-4.2717
X4.6772Y-4.3622
X4.6772Y-4.4567
X4.6772Y-4.5433
X4.6772Y-4.6339
X4.6929Y-4.8346
X4.6969Y-4.7283
X4.7126Y-4.2717
X4.7126Y-4.3622
X4.7126Y-4.4567
X4.7126Y-4.5433
X4.7126Y-4.6378
X4.7165Y-5.4764
X4.7195Y-5.5787
X4.7283Y-4.7283
X4.7323Y-4.6772
X4.748Y-5.3189
X4.748Y-5.3681
X4.748Y-5.4187
X4.7509Y-4.9915
X4.7598Y-4.3091
X4.7598Y-4.5276
X4.7638Y-4.622
X4.7845Y-4.9941
X4.7864Y-5.0256
X4.7874Y-4.2362
X4.7874Y-4.2677
X4.7874Y-4.2992
X4.7874Y-4.3307
X4.7874Y-4.3622
X4.7874Y-4.3937
X4.7874Y-4.8583
X4.7953Y-5.5374
X4.815Y-4.622
X4.8228Y-4.2362
X4.8228Y-4.3091
X4.8228Y-4.3937
X4.8228Y-4.4252
X4.8228Y-4.4567
X4.8228Y-4.5256
X4.8316Y-5.1198
X4.8366Y-4.9843
X4.8386Y-4.1299
X4.8386Y-4.2028
X4.8543Y-4.2362
X4.8583Y-4.3602
X4.8583Y-5.0344
X4.8622Y-4.2638
X4.8622Y-4.2953
X4.8622Y-4.3248
X4.8739Y-5.0836
X4.874Y-4.1299
X4.874Y-4.2028
X4.8839Y-5.6043
X4.8858Y-4.2362
X4.8858Y-4.3091
X4.8898Y-5.0344
X4.8957Y-5.5531
X4.8999Y-5.1013
X4.9055Y-4.1299
X4.9055Y-4.2028
X4.9173Y-4.2362
X4.9173Y-4.4567
X4.9213Y-4.4921
X4.9252Y-4.2638
X4.9252Y-4.2953
X4.9275Y-4.8324
X4.9409Y-4.1299
X4.9409Y-4.9016
X4.9429Y-4.2028
X4.9488Y-4.2362
X4.9488Y-4.3937
X4.9488Y-4.4252
X4.9488Y-4.4567
X4.9587Y-5.4626
X4.9606Y-4.8307
X4.9843Y-4.2362
X4.9843Y-4.2677
X4.9843Y-4.2992
X4.9843Y-4.3307
X4.9843Y-4.3622
X4.9843Y-4.3937
X4.9882Y-5.3425
X4.9961Y-4.8317
X5.0039Y-4.6339
X5.0039Y-4.6811
X5.0118Y-4.3091
X5.0118Y-4.5236
X5.0118Y-5.437
X5.0286Y-4.8297
X5.0394Y-4.4567
X5.0394Y-4.5
X5.0394Y-4.5433
X5.0394Y-4.5827
X5.0394Y-4.622
X5.0639Y-4.8268
X5.065Y-4.3091
X5.0709Y-4.5276
X5.0945Y-4.2756
X5.0952Y-4.8302
X5.0965Y-4.3268
X5.0965Y-4.3583
X5.0965Y-4.4075
X5.0984Y-4.6339
X5.0984Y-4.6811
X5.1063Y-4.7362
X5.122Y-4.1299
X5.122Y-4.2047
X5.128Y-4.4016
X5.128Y-4.4409
X5.1299Y-4.8307
X5.1299Y-5.4606
X5.1329Y-4.8628
X5.1339Y-4.2362
X5.1437Y-4.5256
X5.1457Y-4.3091
X5.1457Y-4.6339
X5.1535Y-4.1299
X5.1594Y-4.2028
X5.1614Y-5.3425
X5.1634Y-4.4035
X5.1654Y-4.2362
X5.1668Y-4.8637
X5.1693Y-4.9094
X5.1732Y-4.2638
X5.1732Y-4.2953
X5.1732Y-4.3268
X5.1732Y-4.3602
X5.1732Y-4.4783
X5.1732Y-4.5098
X5.1732Y-4.5453
X5.1732Y-5.4862
X5.1752Y-4.5768
X5.1831Y-4.4469
X5.185Y-4.1299
X5.1969Y-4.2362
X5.1969Y-4.6339
X5.2008Y-4.2028
X5.2016Y-4.8636
X5.2028Y-5.6654
X5.2047Y-4.3091
X5.2067Y-4.5256
X5.2146Y-5.2717
X5.2165Y-4.1299
X5.2264Y-4.8357
X5.2283Y-4.2362
X5.2323Y-4.2638
X5.2323Y-4.2953
X5.2343Y-4.5217
X5.2362Y-4.2028
X5.2362Y-4.4921
X5.2382Y-4.4429
X5.252Y-4.8542
X5.2598Y-4.2362
X5.2677Y-4.4409
X5.2894Y-4.2165
X5.2972Y-4.2913
X5.2972Y-4.3287
X5.2972Y-4.3622
X5.3012Y-5.2146
X5.3209Y-4.2165
X5.3228Y-4.3091
X5.3248Y-5.2795
X5.3465Y-4.752
X5.3701Y-5.1732
X5.376Y-4.3091
X5.378Y-4.752
X5.378Y-4.937
X5.3819Y-4.2087
X5.3819Y-4.8701
X5.3858Y-5.3583
X5.4035Y-5.3287
X5.4075Y-4.2461
X5.4075Y-4.2874
X5.4075Y-4.3209
X5.4075Y-4.3563
X5.4154Y-4.2106
X5.4331Y-4.4429
X5.4508Y-4.5236
X5.4646Y-4.3091
X5.4724Y-4.435
X5.4764Y-4.7402
X5.4803Y-4.6614
X5.4823Y-4.2756
X5.4823Y-4.4626
X5.4823Y-4.4961
X5.4823Y-4.5256
X5.4843Y-4.2343
X5.4843Y-4.3346
X5.4843Y-4.3622
X5.4843Y-4.5551
X5.4843Y-4.7835
X5.4882Y-4.7047
X5.498Y-4.3091
X5.5138Y-4.5256
X5.5157Y-4.2343
X5.5157Y-4.4508
X5.5236Y-5.3701
X5.5335Y-4.2047
X5.5335Y-4.3091
X5.5433Y-4.5236
X5.5453Y-4.1299
X5.5453Y-4.2815
X5.5453Y-4.4646
X5.5453Y-4.4941
X5.5472Y-4.2343
X5.5531Y-4.4291
X5.563Y-4.7047
X5.5728Y-4.4016
X5.5748Y-4.6614
X5.5748Y-4.7835
X5.5768Y-4.1319
X5.5787Y-4.2343
X5.5827Y-4.4449
X5.5906Y-4.1969
X5.6063Y-4.6378
X5.6083Y-4.2579
X5.6083Y-4.3602
X5.6102Y-4.1299
X5.6102Y-4.311
X5.6181Y-4.4055
X5.6181Y-4.7047
X5.6339Y-4.2008
X5.6339Y-4.5276
X5.6417Y-4.1319
X5.6417Y-4.3091
X5.6496Y-4.6378
X5.6614Y-4.5551
X5.6614Y-4.7047
X5.6654Y-4.4685
X5.6654Y-4.5118
X5.6654Y-4.5984
X5.6654Y-4.6654
X5.6654Y-4.7835
X5.689Y-4.4528
X5.6929Y-4.2717
X5.6929Y-4.3622
X5.6929Y-4.5394
X5.7283Y-4.2008
X5.7283Y-4.2323
X5.7283Y-4.2717
X5.7283Y-4.3071
X5.7283Y-4.3504
X5.7283Y-4.3898
X5.7283Y-4.4252
X5.7283Y-4.4646
X5.7283Y-4.5157
X5.7283Y-4.5748
X5.7283Y-4.6299
X5.7402Y-4.7047
X5.7559Y-4.6693
X5.7559Y-4.7835
X5.7835Y-4.7047
X5.811Y-4.2717
X5.811Y-4.3622
X5.811Y-4.4528
X5.811Y-4.5433
X5.8465Y-4.6496
X5.8465Y-4.6969
X5.8878Y-4.9764
X5.8878Y-5.0157
X5.8878Y-5.1024
X5.8878Y-5.1614
X5.8878Y-5.2165
X5.8878Y-5.2756
X5.8878Y-5.3268
X5.8898Y-5.0512
T2
X5.0Y-4.9606
X5.0Y-5.0
X5.0Y-5.0394
X5.0Y-5.0787
X5.0394Y-4.9606
X5.0394Y-5.0
X5.0394Y-5.0394
X5.0394Y-5.0787
X5.0787Y-4.9606
X5.0787Y-5.0
X5.0787Y-5.0394
X5.0787Y-5.0787
X5.1181Y-4.9606
X5.1181Y-5.0
X5.1181Y-5.0394
X5.1181Y-5.0787
T3
X4.6122Y-4.9114
X5.3701Y-5.1122
X5.4213Y-4.8858
X5.4665Y-4.8543
X5.563Y-4.8504
X5.6437Y-4.8583
X5.7323Y-5.1476
X5.7795Y-4.8583
X5.7953Y-5.0595
X5.7972Y-5.2402
X5.8189Y-5.2835
X5.8366Y-5.3622
X5.8484Y-5.2382
T4
X4.8937Y-4.4016
X4.9488Y-4.5984
X5.2047Y-4.4016
X5.2559Y-4.5984
X5.5157Y-4.4016
X5.5669Y-4.5984
T5
X3.8189Y-4.8425
X3.8189Y-4.9606
X3.8189Y-5.1969
X3.8189Y-5.315
X3.8583Y-5.7874
X3.9764Y-4.7638
X3.9764Y-5.0787
X4.0157Y-4.8425
X4.0157Y-4.9606
X4.0157Y-5.1969
X4.0157Y-5.315
X4.0157Y-5.8661
X4.0945Y-4.8819
X4.0945Y-5.2362
X4.1339Y-4.7638
X4.2126Y-4.8425
X4.2126Y-4.9606
X4.2126Y-5.1969
X4.252Y-5.0787
X4.252Y-5.8661
X4.2913Y-4.9213
X4.3701Y-4.8819
X4.3701Y-5.0
X4.3701Y-5.1181
X4.3701Y-5.2362
X4.4094Y-4.5079
X4.4094Y-5.8661
X4.5079Y-4.5276
X4.5276Y-4.1929
X4.5276Y-4.2717
X4.5276Y-4.3701
X4.5787Y-4.0236
X4.5787Y-4.0945
X4.5787Y-4.1654
X4.6181Y-4.5906
X4.6181Y-4.6811
X4.622Y-4.2283
X4.622Y-4.3189
X4.622Y-4.4094
X4.622Y-4.5
X4.6417Y-4.0236
X4.6417Y-4.0945
X4.6417Y-4.1654
X4.6457Y-5.9055
X4.7126Y-4.0236
X4.7126Y-4.0945
X4.7756Y-4.0236
X4.7756Y-4.0945
X4.7756Y-4.1654
X4.7795Y-4.748
X4.8031Y-5.9055
X4.8622Y-4.8819
X5.0Y-4.0236
X5.0Y-4.0945
X5.0Y-4.1654
X5.0Y-4.7441
X5.0591Y-4.7441
X5.063Y-4.0236
X5.063Y-4.0945
X5.063Y-4.1654
X5.1575Y-5.9449
X5.2835Y-4.0236
X5.2835Y-4.0945
X5.2835Y-4.1654
X5.315Y-4.9291
X5.3465Y-4.0236
X5.3465Y-4.0945
X5.3465Y-4.1654
X5.3543Y-5.0394
X5.3543Y-5.5512
X5.3937Y-5.9449
X5.4173Y-4.0236
X5.4173Y-4.0945
X5.4173Y-4.1654
X5.437Y-4.7047
X5.4803Y-4.0236
X5.4803Y-4.0945
X5.4803Y-4.1654
X5.5276Y-4.748
X5.5906Y-5.9449
X5.6181Y-4.752
X5.7087Y-4.748
X5.7756Y-4.2283
X5.7756Y-4.3189
X5.7756Y-4.4094
X5.7756Y-4.4961
X5.7756Y-4.5866
X5.7992Y-4.748
X5.8661Y-5.6693
T6
X3.9882Y-5.4961
X4.0866Y-5.4961
X4.185Y-5.4961
X5.3996Y-5.4469
X5.498Y-5.4469
X5.5965Y-5.4469
T7
X3.6285Y-4.3083
X3.6285Y-4.3583
X3.6285Y-4.4083
X3.6785Y-4.3083
X3.6785Y-4.3583
X3.6785Y-4.4083
T8
X4.5984Y-4.7659
X4.5984Y-4.8407
T9
X3.8996Y-5.628
X3.9035Y-4.3012
X3.998Y-5.628
X4.002Y-4.3012
X4.0965Y-5.628
X4.1004Y-4.3012
X4.1949Y-5.628
X4.1988Y-4.3012
X4.2933Y-5.628
X4.2972Y-4.3012
X4.3917Y-5.628
X4.3957Y-4.3012
X5.0551Y-5.628
X5.1535Y-5.628
X5.252Y-5.628
X5.3504Y-5.628
X5.4488Y-5.628
X5.5472Y-5.628
T10
X3.6638Y-3.8228
X3.8138Y-3.8228
X3.9638Y-3.8228
X4.1138Y-3.8228
X4.2638Y-3.8228
T11
X4.5827Y-3.6811
X4.878Y-3.6811
X5.1732Y-3.6811
X5.4685Y-3.6811
X5.7638Y-3.6811
T6
G00X4.5543Y-5.7016
M15
G01X4.5543Y-5.7449
M16
G05
G00X4.5543Y-5.876
M15
G01X4.5543Y-5.8996
M16
G05
G00X4.8945Y-5.7016
M15
G01X4.8945Y-5.7449
M16
G05
G00X4.8945Y-5.876
M15
G01X4.8945Y-5.8996
M16
G05
T0
M30
