%TF.GenerationSoftware,KiCad,Pcbnew,(6.0.7)*%
%TF.CreationDate,2023-02-02T22:14:04+01:00*%
%TF.ProjectId,bldc,626c6463-2e6b-4696-9361-645f70636258,rev?*%
%TF.SameCoordinates,Original*%
%TF.FileFunction,Legend,Top*%
%TF.FilePolarity,Positive*%
%FSLAX46Y46*%
G04 Gerber Fmt 4.6, Leading zero omitted, Abs format (unit mm)*
G04 Created by KiCad (PCBNEW (6.0.7)) date 2023-02-02 22:14:04*
%MOMM*%
%LPD*%
G01*
G04 APERTURE LIST*
G04 Aperture macros list*
%AMRoundRect*
0 Rectangle with rounded corners*
0 $1 Rounding radius*
0 $2 $3 $4 $5 $6 $7 $8 $9 X,Y pos of 4 corners*
0 Add a 4 corners polygon primitive as box body*
4,1,4,$2,$3,$4,$5,$6,$7,$8,$9,$2,$3,0*
0 Add four circle primitives for the rounded corners*
1,1,$1+$1,$2,$3*
1,1,$1+$1,$4,$5*
1,1,$1+$1,$6,$7*
1,1,$1+$1,$8,$9*
0 Add four rect primitives between the rounded corners*
20,1,$1+$1,$2,$3,$4,$5,0*
20,1,$1+$1,$4,$5,$6,$7,0*
20,1,$1+$1,$6,$7,$8,$9,0*
20,1,$1+$1,$8,$9,$2,$3,0*%
G04 Aperture macros list end*
%ADD10C,0.150000*%
%ADD11C,0.200000*%
%ADD12C,0.120000*%
%ADD13R,0.900000X1.850000*%
%ADD14R,0.650000X1.151000*%
%ADD15R,1.000000X1.350000*%
%ADD16R,0.650000X1.350000*%
%ADD17RoundRect,0.175000X0.175000X-0.275000X0.175000X0.275000X-0.175000X0.275000X-0.175000X-0.275000X0*%
%ADD18RoundRect,0.250000X-0.650000X0.325000X-0.650000X-0.325000X0.650000X-0.325000X0.650000X0.325000X0*%
%ADD19RoundRect,0.250000X1.425000X-0.362500X1.425000X0.362500X-1.425000X0.362500X-1.425000X-0.362500X0*%
%ADD20RoundRect,0.650000X2.600000X3.100000X-2.600000X3.100000X-2.600000X-3.100000X2.600000X-3.100000X0*%
%ADD21RoundRect,0.225000X-0.225000X-0.250000X0.225000X-0.250000X0.225000X0.250000X-0.225000X0.250000X0*%
%ADD22RoundRect,0.250000X0.325000X0.650000X-0.325000X0.650000X-0.325000X-0.650000X0.325000X-0.650000X0*%
%ADD23RoundRect,0.135000X-0.135000X-0.185000X0.135000X-0.185000X0.135000X0.185000X-0.135000X0.185000X0*%
%ADD24RoundRect,0.140000X0.170000X-0.140000X0.170000X0.140000X-0.170000X0.140000X-0.170000X-0.140000X0*%
%ADD25RoundRect,0.250000X0.625000X-0.400000X0.625000X0.400000X-0.625000X0.400000X-0.625000X-0.400000X0*%
%ADD26C,3.200000*%
%ADD27O,1.400000X1.800000*%
%ADD28RoundRect,0.250000X-0.325000X-0.650000X0.325000X-0.650000X0.325000X0.650000X-0.325000X0.650000X0*%
%ADD29RoundRect,0.250000X-0.625000X0.400000X-0.625000X-0.400000X0.625000X-0.400000X0.625000X0.400000X0*%
%ADD30RoundRect,0.200000X-0.275000X0.200000X-0.275000X-0.200000X0.275000X-0.200000X0.275000X0.200000X0*%
%ADD31RoundRect,0.200000X0.275000X-0.200000X0.275000X0.200000X-0.275000X0.200000X-0.275000X-0.200000X0*%
%ADD32R,1.000000X1.000000*%
%ADD33O,1.000000X1.000000*%
%ADD34O,1.000000X2.100000*%
%ADD35O,1.000000X1.600000*%
%ADD36R,0.600000X1.450000*%
%ADD37R,0.300000X1.450000*%
%ADD38C,0.650000*%
%ADD39RoundRect,0.135000X-0.185000X0.135000X-0.185000X-0.135000X0.185000X-0.135000X0.185000X0.135000X0*%
%ADD40RoundRect,0.225000X0.225000X0.250000X-0.225000X0.250000X-0.225000X-0.250000X0.225000X-0.250000X0*%
%ADD41RoundRect,0.235000X-1.465000X0.940000X-1.465000X-0.940000X1.465000X-0.940000X1.465000X0.940000X0*%
%ADD42RoundRect,0.150000X0.150000X-0.512500X0.150000X0.512500X-0.150000X0.512500X-0.150000X-0.512500X0*%
%ADD43RoundRect,0.135000X0.185000X-0.135000X0.185000X0.135000X-0.185000X0.135000X-0.185000X-0.135000X0*%
%ADD44RoundRect,0.140000X0.140000X0.170000X-0.140000X0.170000X-0.140000X-0.170000X0.140000X-0.170000X0*%
%ADD45RoundRect,0.135000X0.135000X0.185000X-0.135000X0.185000X-0.135000X-0.185000X0.135000X-0.185000X0*%
%ADD46RoundRect,0.750000X-0.750000X-1.750000X0.750000X-1.750000X0.750000X1.750000X-0.750000X1.750000X0*%
%ADD47RoundRect,0.250000X0.650000X1.550000X-0.650000X1.550000X-0.650000X-1.550000X0.650000X-1.550000X0*%
%ADD48O,1.800000X3.600000*%
%ADD49C,1.400000*%
%ADD50O,1.400000X1.400000*%
%ADD51RoundRect,0.150000X-0.825000X-0.150000X0.825000X-0.150000X0.825000X0.150000X-0.825000X0.150000X0*%
%ADD52RoundRect,0.140000X-0.170000X0.140000X-0.170000X-0.140000X0.170000X-0.140000X0.170000X0.140000X0*%
%ADD53RoundRect,0.250000X0.600000X0.725000X-0.600000X0.725000X-0.600000X-0.725000X0.600000X-0.725000X0*%
%ADD54O,1.700000X1.950000*%
%ADD55R,0.900000X1.500000*%
%ADD56R,1.500000X0.900000*%
%ADD57R,0.900000X0.900000*%
%ADD58RoundRect,0.225000X-0.017678X0.335876X-0.335876X0.017678X0.017678X-0.335876X0.335876X-0.017678X0*%
%ADD59RoundRect,0.750000X0.750000X1.750000X-0.750000X1.750000X-0.750000X-1.750000X0.750000X-1.750000X0*%
%ADD60RoundRect,0.250000X-0.600000X-0.725000X0.600000X-0.725000X0.600000X0.725000X-0.600000X0.725000X0*%
%ADD61RoundRect,0.150000X0.512500X0.150000X-0.512500X0.150000X-0.512500X-0.150000X0.512500X-0.150000X0*%
%ADD62R,1.700000X1.000000*%
%ADD63RoundRect,0.218750X0.256250X-0.218750X0.256250X0.218750X-0.256250X0.218750X-0.256250X-0.218750X0*%
%ADD64R,4.150000X4.150000*%
%ADD65RoundRect,0.062500X0.062500X0.375000X-0.062500X0.375000X-0.062500X-0.375000X0.062500X-0.375000X0*%
%ADD66RoundRect,0.062500X0.375000X0.062500X-0.375000X0.062500X-0.375000X-0.062500X0.375000X-0.062500X0*%
%ADD67C,1.000000*%
%ADD68C,0.600000*%
%ADD69C,1.200000*%
%ADD70C,0.800000*%
G04 APERTURE END LIST*
D10*
X90000000Y-99900000D02*
X150000000Y-99900000D01*
D11*
X138161904Y-101000000D02*
X138638095Y-101000000D01*
X138066666Y-101342857D02*
X138400000Y-100142857D01*
X138733333Y-101342857D01*
X128109523Y-101228571D02*
X128061904Y-101285714D01*
X127919047Y-101342857D01*
X127823809Y-101342857D01*
X127680952Y-101285714D01*
X127585714Y-101171428D01*
X127538095Y-101057142D01*
X127490476Y-100828571D01*
X127490476Y-100657142D01*
X127538095Y-100428571D01*
X127585714Y-100314285D01*
X127680952Y-100200000D01*
X127823809Y-100142857D01*
X127919047Y-100142857D01*
X128061904Y-100200000D01*
X128109523Y-100257142D01*
X119685714Y-100542857D02*
X119685714Y-101342857D01*
X119447619Y-100085714D02*
X119209523Y-100942857D01*
X119828571Y-100942857D01*
X120352380Y-100657142D02*
X120257142Y-100600000D01*
X120209523Y-100542857D01*
X120161904Y-100428571D01*
X120161904Y-100371428D01*
X120209523Y-100257142D01*
X120257142Y-100200000D01*
X120352380Y-100142857D01*
X120542857Y-100142857D01*
X120638095Y-100200000D01*
X120685714Y-100257142D01*
X120733333Y-100371428D01*
X120733333Y-100428571D01*
X120685714Y-100542857D01*
X120638095Y-100600000D01*
X120542857Y-100657142D01*
X120352380Y-100657142D01*
X120257142Y-100714285D01*
X120209523Y-100771428D01*
X120161904Y-100885714D01*
X120161904Y-101114285D01*
X120209523Y-101228571D01*
X120257142Y-101285714D01*
X120352380Y-101342857D01*
X120542857Y-101342857D01*
X120638095Y-101285714D01*
X120685714Y-101228571D01*
X120733333Y-101114285D01*
X120733333Y-100885714D01*
X120685714Y-100771428D01*
X120638095Y-100714285D01*
X120542857Y-100657142D01*
X121019047Y-100142857D02*
X121352380Y-101342857D01*
X121685714Y-100142857D01*
X135071428Y-100714285D02*
X135214285Y-100771428D01*
X135261904Y-100828571D01*
X135309523Y-100942857D01*
X135309523Y-101114285D01*
X135261904Y-101228571D01*
X135214285Y-101285714D01*
X135119047Y-101342857D01*
X134738095Y-101342857D01*
X134738095Y-100142857D01*
X135071428Y-100142857D01*
X135166666Y-100200000D01*
X135214285Y-100257142D01*
X135261904Y-100371428D01*
X135261904Y-100485714D01*
X135214285Y-100600000D01*
X135166666Y-100657142D01*
X135071428Y-100714285D01*
X134738095Y-100714285D01*
X114400000Y-104761904D02*
X114342857Y-104857142D01*
X114342857Y-105000000D01*
X114400000Y-105142857D01*
X114514285Y-105238095D01*
X114628571Y-105285714D01*
X114857142Y-105333333D01*
X115028571Y-105333333D01*
X115257142Y-105285714D01*
X115371428Y-105238095D01*
X115485714Y-105142857D01*
X115542857Y-105000000D01*
X115542857Y-104904761D01*
X115485714Y-104761904D01*
X115428571Y-104714285D01*
X115028571Y-104714285D01*
X115028571Y-104904761D01*
X115542857Y-104285714D02*
X114342857Y-104285714D01*
X115542857Y-103714285D01*
X114342857Y-103714285D01*
X115542857Y-103238095D02*
X114342857Y-103238095D01*
X114342857Y-103000000D01*
X114400000Y-102857142D01*
X114514285Y-102761904D01*
X114628571Y-102714285D01*
X114857142Y-102666666D01*
X115028571Y-102666666D01*
X115257142Y-102714285D01*
X115371428Y-102761904D01*
X115485714Y-102857142D01*
X115542857Y-103000000D01*
X115542857Y-103238095D01*
D10*
%TO.C,SW1*%
X135295238Y-135302380D02*
X135485714Y-135302380D01*
X135580952Y-135350000D01*
X135676190Y-135445238D01*
X135723809Y-135635714D01*
X135723809Y-135969047D01*
X135676190Y-136159523D01*
X135580952Y-136254761D01*
X135485714Y-136302380D01*
X135295238Y-136302380D01*
X135200000Y-136254761D01*
X135104761Y-136159523D01*
X135057142Y-135969047D01*
X135057142Y-135635714D01*
X135104761Y-135445238D01*
X135200000Y-135350000D01*
X135295238Y-135302380D01*
X136152380Y-136302380D02*
X136152380Y-135302380D01*
X136723809Y-136302380D01*
X136723809Y-135302380D01*
X137819047Y-135302380D02*
X138390476Y-135302380D01*
X138104761Y-136302380D02*
X138104761Y-135302380D01*
X138723809Y-135778571D02*
X139057142Y-135778571D01*
X139200000Y-136302380D02*
X138723809Y-136302380D01*
X138723809Y-135302380D01*
X139200000Y-135302380D01*
X140200000Y-136302380D02*
X139866666Y-135826190D01*
X139628571Y-136302380D02*
X139628571Y-135302380D01*
X140009523Y-135302380D01*
X140104761Y-135350000D01*
X140152380Y-135397619D01*
X140200000Y-135492857D01*
X140200000Y-135635714D01*
X140152380Y-135730952D01*
X140104761Y-135778571D01*
X140009523Y-135826190D01*
X139628571Y-135826190D01*
X140628571Y-136302380D02*
X140628571Y-135302380D01*
X140961904Y-136016666D01*
X141295238Y-135302380D01*
X141295238Y-136302380D01*
%TO.C,J7*%
X91014285Y-105852380D02*
X91014285Y-104852380D01*
X91395238Y-104852380D01*
X91490476Y-104900000D01*
X91538095Y-104947619D01*
X91585714Y-105042857D01*
X91585714Y-105185714D01*
X91538095Y-105280952D01*
X91490476Y-105328571D01*
X91395238Y-105376190D01*
X91014285Y-105376190D01*
X92585714Y-105852380D02*
X92252380Y-105376190D01*
X92014285Y-105852380D02*
X92014285Y-104852380D01*
X92395238Y-104852380D01*
X92490476Y-104900000D01*
X92538095Y-104947619D01*
X92585714Y-105042857D01*
X92585714Y-105185714D01*
X92538095Y-105280952D01*
X92490476Y-105328571D01*
X92395238Y-105376190D01*
X92014285Y-105376190D01*
X93204761Y-104852380D02*
X93395238Y-104852380D01*
X93490476Y-104900000D01*
X93585714Y-104995238D01*
X93633333Y-105185714D01*
X93633333Y-105519047D01*
X93585714Y-105709523D01*
X93490476Y-105804761D01*
X93395238Y-105852380D01*
X93204761Y-105852380D01*
X93109523Y-105804761D01*
X93014285Y-105709523D01*
X92966666Y-105519047D01*
X92966666Y-105185714D01*
X93014285Y-104995238D01*
X93109523Y-104900000D01*
X93204761Y-104852380D01*
X94585714Y-104900000D02*
X94490476Y-104852380D01*
X94347619Y-104852380D01*
X94204761Y-104900000D01*
X94109523Y-104995238D01*
X94061904Y-105090476D01*
X94014285Y-105280952D01*
X94014285Y-105423809D01*
X94061904Y-105614285D01*
X94109523Y-105709523D01*
X94204761Y-105804761D01*
X94347619Y-105852380D01*
X94442857Y-105852380D01*
X94585714Y-105804761D01*
X94633333Y-105757142D01*
X94633333Y-105423809D01*
X94442857Y-105423809D01*
%TO.C,SW3*%
X108845238Y-138952380D02*
X109035714Y-138952380D01*
X109130952Y-139000000D01*
X109226190Y-139095238D01*
X109273809Y-139285714D01*
X109273809Y-139619047D01*
X109226190Y-139809523D01*
X109130952Y-139904761D01*
X109035714Y-139952380D01*
X108845238Y-139952380D01*
X108750000Y-139904761D01*
X108654761Y-139809523D01*
X108607142Y-139619047D01*
X108607142Y-139285714D01*
X108654761Y-139095238D01*
X108750000Y-139000000D01*
X108845238Y-138952380D01*
X109702380Y-139952380D02*
X109702380Y-138952380D01*
X110273809Y-139952380D01*
X110273809Y-138952380D01*
X111369047Y-138952380D02*
X111940476Y-138952380D01*
X111654761Y-139952380D02*
X111654761Y-138952380D01*
X112273809Y-139428571D02*
X112607142Y-139428571D01*
X112750000Y-139952380D02*
X112273809Y-139952380D01*
X112273809Y-138952380D01*
X112750000Y-138952380D01*
X113750000Y-139952380D02*
X113416666Y-139476190D01*
X113178571Y-139952380D02*
X113178571Y-138952380D01*
X113559523Y-138952380D01*
X113654761Y-139000000D01*
X113702380Y-139047619D01*
X113750000Y-139142857D01*
X113750000Y-139285714D01*
X113702380Y-139380952D01*
X113654761Y-139428571D01*
X113559523Y-139476190D01*
X113178571Y-139476190D01*
X114178571Y-139952380D02*
X114178571Y-138952380D01*
X114511904Y-139666666D01*
X114845238Y-138952380D01*
X114845238Y-139952380D01*
%TO.C,U2*%
X92366666Y-132761904D02*
X92366666Y-132285714D01*
X92652380Y-132857142D02*
X91652380Y-132523809D01*
X92652380Y-132190476D01*
X91985714Y-131857142D02*
X92652380Y-131857142D01*
X92080952Y-131857142D02*
X92033333Y-131809523D01*
X91985714Y-131714285D01*
X91985714Y-131571428D01*
X92033333Y-131476190D01*
X92128571Y-131428571D01*
X92652380Y-131428571D01*
X91985714Y-131095238D02*
X91985714Y-130714285D01*
X91652380Y-130952380D02*
X92509523Y-130952380D01*
X92604761Y-130904761D01*
X92652380Y-130809523D01*
X92652380Y-130714285D01*
X92604761Y-130000000D02*
X92652380Y-130095238D01*
X92652380Y-130285714D01*
X92604761Y-130380952D01*
X92509523Y-130428571D01*
X92128571Y-130428571D01*
X92033333Y-130380952D01*
X91985714Y-130285714D01*
X91985714Y-130095238D01*
X92033333Y-130000000D01*
X92128571Y-129952380D01*
X92223809Y-129952380D01*
X92319047Y-130428571D01*
X91985714Y-129523809D02*
X92652380Y-129523809D01*
X92080952Y-129523809D02*
X92033333Y-129476190D01*
X91985714Y-129380952D01*
X91985714Y-129238095D01*
X92033333Y-129142857D01*
X92128571Y-129095238D01*
X92652380Y-129095238D01*
X91985714Y-128619047D02*
X92652380Y-128619047D01*
X92080952Y-128619047D02*
X92033333Y-128571428D01*
X91985714Y-128476190D01*
X91985714Y-128333333D01*
X92033333Y-128238095D01*
X92128571Y-128190476D01*
X92652380Y-128190476D01*
X92652380Y-127285714D02*
X92128571Y-127285714D01*
X92033333Y-127333333D01*
X91985714Y-127428571D01*
X91985714Y-127619047D01*
X92033333Y-127714285D01*
X92604761Y-127285714D02*
X92652380Y-127380952D01*
X92652380Y-127619047D01*
X92604761Y-127714285D01*
X92509523Y-127761904D01*
X92414285Y-127761904D01*
X92319047Y-127714285D01*
X92271428Y-127619047D01*
X92271428Y-127380952D01*
X92223809Y-127285714D01*
X92366666Y-126095238D02*
X92366666Y-125619047D01*
X92652380Y-126190476D02*
X91652380Y-125857142D01*
X92652380Y-125523809D01*
X92652380Y-125190476D02*
X91985714Y-125190476D01*
X92176190Y-125190476D02*
X92080952Y-125142857D01*
X92033333Y-125095238D01*
X91985714Y-125000000D01*
X91985714Y-124904761D01*
X92604761Y-124190476D02*
X92652380Y-124285714D01*
X92652380Y-124476190D01*
X92604761Y-124571428D01*
X92509523Y-124619047D01*
X92128571Y-124619047D01*
X92033333Y-124571428D01*
X91985714Y-124476190D01*
X91985714Y-124285714D01*
X92033333Y-124190476D01*
X92128571Y-124142857D01*
X92223809Y-124142857D01*
X92319047Y-124619047D01*
X92652380Y-123285714D02*
X92128571Y-123285714D01*
X92033333Y-123333333D01*
X91985714Y-123428571D01*
X91985714Y-123619047D01*
X92033333Y-123714285D01*
X92604761Y-123285714D02*
X92652380Y-123380952D01*
X92652380Y-123619047D01*
X92604761Y-123714285D01*
X92509523Y-123761904D01*
X92414285Y-123761904D01*
X92319047Y-123714285D01*
X92271428Y-123619047D01*
X92271428Y-123380952D01*
X92223809Y-123285714D01*
%TO.C,SW2*%
X107297619Y-111802380D02*
X106964285Y-111326190D01*
X106726190Y-111802380D02*
X106726190Y-110802380D01*
X107107142Y-110802380D01*
X107202380Y-110850000D01*
X107250000Y-110897619D01*
X107297619Y-110992857D01*
X107297619Y-111135714D01*
X107250000Y-111230952D01*
X107202380Y-111278571D01*
X107107142Y-111326190D01*
X106726190Y-111326190D01*
X107726190Y-111278571D02*
X108059523Y-111278571D01*
X108202380Y-111802380D02*
X107726190Y-111802380D01*
X107726190Y-110802380D01*
X108202380Y-110802380D01*
X108583333Y-111754761D02*
X108726190Y-111802380D01*
X108964285Y-111802380D01*
X109059523Y-111754761D01*
X109107142Y-111707142D01*
X109154761Y-111611904D01*
X109154761Y-111516666D01*
X109107142Y-111421428D01*
X109059523Y-111373809D01*
X108964285Y-111326190D01*
X108773809Y-111278571D01*
X108678571Y-111230952D01*
X108630952Y-111183333D01*
X108583333Y-111088095D01*
X108583333Y-110992857D01*
X108630952Y-110897619D01*
X108678571Y-110850000D01*
X108773809Y-110802380D01*
X109011904Y-110802380D01*
X109154761Y-110850000D01*
X109583333Y-111278571D02*
X109916666Y-111278571D01*
X110059523Y-111802380D02*
X109583333Y-111802380D01*
X109583333Y-110802380D01*
X110059523Y-110802380D01*
X110345238Y-110802380D02*
X110916666Y-110802380D01*
X110630952Y-111802380D02*
X110630952Y-110802380D01*
%TO.C,SW4*%
X100342857Y-111428571D02*
X100485714Y-111476190D01*
X100533333Y-111523809D01*
X100580952Y-111619047D01*
X100580952Y-111761904D01*
X100533333Y-111857142D01*
X100485714Y-111904761D01*
X100390476Y-111952380D01*
X100009523Y-111952380D01*
X100009523Y-110952380D01*
X100342857Y-110952380D01*
X100438095Y-111000000D01*
X100485714Y-111047619D01*
X100533333Y-111142857D01*
X100533333Y-111238095D01*
X100485714Y-111333333D01*
X100438095Y-111380952D01*
X100342857Y-111428571D01*
X100009523Y-111428571D01*
X101200000Y-110952380D02*
X101390476Y-110952380D01*
X101485714Y-111000000D01*
X101580952Y-111095238D01*
X101628571Y-111285714D01*
X101628571Y-111619047D01*
X101580952Y-111809523D01*
X101485714Y-111904761D01*
X101390476Y-111952380D01*
X101200000Y-111952380D01*
X101104761Y-111904761D01*
X101009523Y-111809523D01*
X100961904Y-111619047D01*
X100961904Y-111285714D01*
X101009523Y-111095238D01*
X101104761Y-111000000D01*
X101200000Y-110952380D01*
X102247619Y-110952380D02*
X102438095Y-110952380D01*
X102533333Y-111000000D01*
X102628571Y-111095238D01*
X102676190Y-111285714D01*
X102676190Y-111619047D01*
X102628571Y-111809523D01*
X102533333Y-111904761D01*
X102438095Y-111952380D01*
X102247619Y-111952380D01*
X102152380Y-111904761D01*
X102057142Y-111809523D01*
X102009523Y-111619047D01*
X102009523Y-111285714D01*
X102057142Y-111095238D01*
X102152380Y-111000000D01*
X102247619Y-110952380D01*
X102961904Y-110952380D02*
X103533333Y-110952380D01*
X103247619Y-111952380D02*
X103247619Y-110952380D01*
%TO.C,D7*%
X90823809Y-116752380D02*
X90823809Y-115752380D01*
X91204761Y-115752380D01*
X91300000Y-115800000D01*
X91347619Y-115847619D01*
X91395238Y-115942857D01*
X91395238Y-116085714D01*
X91347619Y-116180952D01*
X91300000Y-116228571D01*
X91204761Y-116276190D01*
X90823809Y-116276190D01*
X91966666Y-116752380D02*
X91871428Y-116704761D01*
X91823809Y-116657142D01*
X91776190Y-116561904D01*
X91776190Y-116276190D01*
X91823809Y-116180952D01*
X91871428Y-116133333D01*
X91966666Y-116085714D01*
X92109523Y-116085714D01*
X92204761Y-116133333D01*
X92252380Y-116180952D01*
X92300000Y-116276190D01*
X92300000Y-116561904D01*
X92252380Y-116657142D01*
X92204761Y-116704761D01*
X92109523Y-116752380D01*
X91966666Y-116752380D01*
X92633333Y-116085714D02*
X92823809Y-116752380D01*
X93014285Y-116276190D01*
X93204761Y-116752380D01*
X93395238Y-116085714D01*
X94157142Y-116704761D02*
X94061904Y-116752380D01*
X93871428Y-116752380D01*
X93776190Y-116704761D01*
X93728571Y-116609523D01*
X93728571Y-116228571D01*
X93776190Y-116133333D01*
X93871428Y-116085714D01*
X94061904Y-116085714D01*
X94157142Y-116133333D01*
X94204761Y-116228571D01*
X94204761Y-116323809D01*
X93728571Y-116419047D01*
X94633333Y-116752380D02*
X94633333Y-116085714D01*
X94633333Y-116276190D02*
X94680952Y-116180952D01*
X94728571Y-116133333D01*
X94823809Y-116085714D01*
X94919047Y-116085714D01*
D12*
%TO.C,Q3*%
X135650000Y-117350000D02*
X134900000Y-117350000D01*
X129100000Y-112550000D02*
X129200000Y-112450000D01*
X129200000Y-112450000D02*
X134800000Y-112450000D01*
X134800000Y-117450000D02*
X129200000Y-117450000D01*
X129200000Y-117450000D02*
X129100000Y-117350000D01*
X134800000Y-112450000D02*
X134900000Y-112550000D01*
X134900000Y-117350000D02*
X134800000Y-117450000D01*
%TO.C,Q6*%
X126900000Y-106950000D02*
X127000000Y-107050000D01*
X121300000Y-111950000D02*
X121200000Y-111850000D01*
X126900000Y-111950000D02*
X121300000Y-111950000D01*
X127750000Y-111850000D02*
X127000000Y-111850000D01*
X121200000Y-107050000D02*
X121300000Y-106950000D01*
X127000000Y-111850000D02*
X126900000Y-111950000D01*
X121300000Y-106950000D02*
X126900000Y-106950000D01*
%TO.C,Q2*%
X137100000Y-106950000D02*
X142700000Y-106950000D01*
X137100000Y-111950000D02*
X137000000Y-111850000D01*
X142700000Y-106950000D02*
X142800000Y-107050000D01*
X143550000Y-111850000D02*
X142800000Y-111850000D01*
X142700000Y-111950000D02*
X137100000Y-111950000D01*
X142800000Y-111850000D02*
X142700000Y-111950000D01*
X137000000Y-107050000D02*
X137100000Y-106950000D01*
%TO.C,Q5*%
X126900000Y-112450000D02*
X127000000Y-112550000D01*
X121300000Y-117450000D02*
X121200000Y-117350000D01*
X127750000Y-117350000D02*
X127000000Y-117350000D01*
X126900000Y-117450000D02*
X121300000Y-117450000D01*
X127000000Y-117350000D02*
X126900000Y-117450000D01*
X121200000Y-112550000D02*
X121300000Y-112450000D01*
X121300000Y-112450000D02*
X126900000Y-112450000D01*
%TO.C,Q4*%
X134900000Y-111850000D02*
X134800000Y-111950000D01*
X129200000Y-111950000D02*
X129100000Y-111850000D01*
X134800000Y-106950000D02*
X134900000Y-107050000D01*
X129100000Y-107050000D02*
X129200000Y-106950000D01*
X129200000Y-106950000D02*
X134800000Y-106950000D01*
X135650000Y-111850000D02*
X134900000Y-111850000D01*
X134800000Y-111950000D02*
X129200000Y-111950000D01*
%TO.C,Q1*%
X142800000Y-117350000D02*
X142700000Y-117450000D01*
X143550000Y-117350000D02*
X142800000Y-117350000D01*
X142700000Y-117450000D02*
X137100000Y-117450000D01*
X142700000Y-112450000D02*
X142800000Y-112550000D01*
X137100000Y-112450000D02*
X142700000Y-112450000D01*
X137100000Y-117450000D02*
X137000000Y-117350000D01*
X137000000Y-112550000D02*
X137100000Y-112450000D01*
%TO.C,C16*%
X118140000Y-121688748D02*
X118140000Y-123111252D01*
X119960000Y-121688748D02*
X119960000Y-123111252D01*
%TO.C,R2*%
X133110000Y-105077064D02*
X133110000Y-100722936D01*
X129690000Y-105077064D02*
X129690000Y-100722936D01*
%TO.C,C15*%
X120490000Y-119338748D02*
X120490000Y-120761252D01*
X122310000Y-119338748D02*
X122310000Y-120761252D01*
%TO.C,C21*%
X133859420Y-127290000D02*
X134140580Y-127290000D01*
X133859420Y-128310000D02*
X134140580Y-128310000D01*
%TO.C,C3*%
X118611252Y-117510000D02*
X117188748Y-117510000D01*
X118611252Y-115690000D02*
X117188748Y-115690000D01*
%TO.C,R6*%
X147546359Y-131420000D02*
X147853641Y-131420000D01*
X147546359Y-132180000D02*
X147853641Y-132180000D01*
%TO.C,C35*%
X124210000Y-136157836D02*
X124210000Y-135942164D01*
X123490000Y-136157836D02*
X123490000Y-135942164D01*
%TO.C,C37*%
X145709420Y-136410000D02*
X145990580Y-136410000D01*
X145709420Y-135390000D02*
X145990580Y-135390000D01*
%TO.C,R27*%
X93990000Y-144327064D02*
X93990000Y-142872936D01*
X95810000Y-144327064D02*
X95810000Y-142872936D01*
%TO.C,C17*%
X118611252Y-113390000D02*
X117188748Y-113390000D01*
X118611252Y-115210000D02*
X117188748Y-115210000D01*
%TO.C,R3*%
X125910000Y-105077064D02*
X125910000Y-100722936D01*
X122490000Y-105077064D02*
X122490000Y-100722936D01*
%TO.C,SW1*%
X143900000Y-140100000D02*
X135400000Y-140100000D01*
X135400000Y-140100000D02*
X135400000Y-138350000D01*
X135400000Y-136600000D02*
X143900000Y-136600000D01*
X143900000Y-136600000D02*
X143900000Y-140100000D01*
X135400000Y-138350000D02*
X135400000Y-136600000D01*
%TO.C,C31*%
X145388748Y-106440000D02*
X146811252Y-106440000D01*
X145388748Y-108260000D02*
X146811252Y-108260000D01*
%TO.C,R10*%
X144190000Y-139672936D02*
X144190000Y-141127064D01*
X146010000Y-139672936D02*
X146010000Y-141127064D01*
%TO.C,R26*%
X124272500Y-138262742D02*
X124272500Y-138737258D01*
X123227500Y-138262742D02*
X123227500Y-138737258D01*
%TO.C,R25*%
X115777500Y-132937258D02*
X115777500Y-132462742D01*
X116822500Y-132937258D02*
X116822500Y-132462742D01*
%TO.C,J7*%
X90300000Y-110700000D02*
X90300000Y-115100000D01*
X94500000Y-111900000D02*
X94500000Y-109500000D01*
X94500000Y-109500000D02*
X95300000Y-109500000D01*
X90300000Y-115100000D02*
X95300000Y-115100000D01*
X95300000Y-106300000D02*
X90300000Y-106300000D01*
X90300000Y-106300000D02*
X90300000Y-110700000D01*
X95300000Y-111900000D02*
X94500000Y-111900000D01*
X95300000Y-115100000D02*
X95300000Y-106300000D01*
%TO.C,J8*%
X124700000Y-146600000D02*
X124700000Y-148600000D01*
X124700000Y-150500000D02*
X124700000Y-152400000D01*
X115300000Y-152400000D02*
X124700000Y-152400000D01*
X115300000Y-146600000D02*
X115300000Y-148600000D01*
X115300000Y-150500000D02*
X115300000Y-152400000D01*
%TO.C,R18*%
X124730000Y-131246359D02*
X124730000Y-131553641D01*
X123970000Y-131246359D02*
X123970000Y-131553641D01*
%TO.C,C32*%
X145388748Y-110560000D02*
X146811252Y-110560000D01*
X145388748Y-108740000D02*
X146811252Y-108740000D01*
%TO.C,C40*%
X97140580Y-139110000D02*
X96859420Y-139110000D01*
X97140580Y-138090000D02*
X96859420Y-138090000D01*
%TO.C,L1*%
X137500000Y-125812500D02*
X139000000Y-125812500D01*
X144300000Y-133212500D02*
X144300000Y-125812500D01*
X137500000Y-125812500D02*
X137500000Y-133212500D01*
X144300000Y-133212500D02*
X142800000Y-133212500D01*
X137500000Y-133212500D02*
X139000000Y-133212500D01*
X144300000Y-125812500D02*
X142800000Y-125812500D01*
%TO.C,U3*%
X145640000Y-128262500D02*
X145640000Y-130062500D01*
X145640000Y-128262500D02*
X145640000Y-127462500D01*
X148760000Y-128262500D02*
X148760000Y-129062500D01*
X148760000Y-128262500D02*
X148760000Y-127462500D01*
%TO.C,C8*%
X122790000Y-119338748D02*
X122790000Y-120761252D01*
X124610000Y-119338748D02*
X124610000Y-120761252D01*
%TO.C,C6*%
X118611252Y-119810000D02*
X117188748Y-119810000D01*
X118611252Y-117990000D02*
X117188748Y-117990000D01*
%TO.C,R5*%
X122180000Y-142353641D02*
X122180000Y-142046359D01*
X121420000Y-142353641D02*
X121420000Y-142046359D01*
%TO.C,C25*%
X126807836Y-132010000D02*
X126592164Y-132010000D01*
X126807836Y-131290000D02*
X126592164Y-131290000D01*
%TO.C,C7*%
X134890000Y-119338748D02*
X134890000Y-120761252D01*
X136710000Y-119338748D02*
X136710000Y-120761252D01*
%TO.C,R12*%
X96553641Y-112980000D02*
X96246359Y-112980000D01*
X96553641Y-112220000D02*
X96246359Y-112220000D01*
%TO.C,J16*%
X108000000Y-99700000D02*
X108300000Y-99100000D01*
X111010000Y-98410000D02*
X111010000Y-88990000D01*
X95820000Y-98410000D02*
X94110000Y-98410000D01*
X108600000Y-99700000D02*
X108000000Y-99700000D01*
X111010000Y-88990000D02*
X90350000Y-88990000D01*
X108300000Y-99100000D02*
X108600000Y-99700000D01*
X107250000Y-98410000D02*
X105540000Y-98410000D01*
X90350000Y-98410000D02*
X92010000Y-98410000D01*
X103440000Y-98410000D02*
X101730000Y-98410000D01*
X111010000Y-92300000D02*
X90350000Y-92300000D01*
X90350000Y-88990000D02*
X90350000Y-98410000D01*
X111010000Y-98410000D02*
X109350000Y-98410000D01*
X99630000Y-98410000D02*
X97920000Y-98410000D01*
%TO.C,TH1*%
X116100000Y-122537867D02*
G75*
G03*
X117549359Y-122634905I700000J-417133D01*
G01*
%TO.C,R4*%
X114720000Y-142353641D02*
X114720000Y-142046359D01*
X115480000Y-142353641D02*
X115480000Y-142046359D01*
%TO.C,U6*%
X130950000Y-134890000D02*
X132900000Y-134890000D01*
X130950000Y-140010000D02*
X129000000Y-140010000D01*
X130950000Y-134890000D02*
X127500000Y-134890000D01*
X130950000Y-140010000D02*
X132900000Y-140010000D01*
%TO.C,C42*%
X98640000Y-138907836D02*
X98640000Y-138692164D01*
X99360000Y-138907836D02*
X99360000Y-138692164D01*
%TO.C,C26*%
X147290580Y-125960000D02*
X147009420Y-125960000D01*
X147290580Y-124940000D02*
X147009420Y-124940000D01*
%TO.C,SW3*%
X99550000Y-137850000D02*
X108050000Y-137850000D01*
X99550000Y-141350000D02*
X99550000Y-137850000D01*
X108050000Y-141350000D02*
X99550000Y-141350000D01*
%TO.C,C27*%
X145310000Y-127842164D02*
X145310000Y-128057836D01*
X144590000Y-127842164D02*
X144590000Y-128057836D01*
%TO.C,C4*%
X134410000Y-119338748D02*
X134410000Y-120761252D01*
X132590000Y-119338748D02*
X132590000Y-120761252D01*
%TO.C,J6*%
X103900000Y-100550000D02*
X103900000Y-106050000D01*
X108900000Y-106050000D02*
X109400000Y-106050000D01*
X101400000Y-106050000D02*
X101900000Y-106050000D01*
X99400000Y-100550000D02*
X98900000Y-100550000D01*
X98010000Y-107160000D02*
X105400000Y-107160000D01*
X98010000Y-111660000D02*
X98010000Y-107160000D01*
X112790000Y-107160000D02*
X105400000Y-107160000D01*
X106900000Y-106050000D02*
X106900000Y-100550000D01*
X101900000Y-100550000D02*
X101400000Y-100550000D01*
X106400000Y-106050000D02*
X106900000Y-106050000D01*
X105400000Y-99940000D02*
X96590000Y-99940000D01*
X109400000Y-100550000D02*
X108900000Y-100550000D01*
X109400000Y-106050000D02*
X109400000Y-100550000D01*
X114210000Y-99940000D02*
X114210000Y-111660000D01*
X111900000Y-100550000D02*
X111400000Y-100550000D01*
X96590000Y-111660000D02*
X98010000Y-111660000D01*
X96590000Y-99940000D02*
X96590000Y-111660000D01*
X111900000Y-106050000D02*
X111900000Y-100550000D01*
X111400000Y-100550000D02*
X111400000Y-106050000D01*
X112790000Y-111660000D02*
X112790000Y-107160000D01*
X101900000Y-106050000D02*
X101900000Y-100550000D01*
X108900000Y-100550000D02*
X108900000Y-106050000D01*
X104400000Y-106050000D02*
X104400000Y-100550000D01*
X111950000Y-111350000D02*
X111350000Y-111350000D01*
X103900000Y-106050000D02*
X104400000Y-106050000D01*
X106400000Y-100550000D02*
X106400000Y-106050000D01*
X98900000Y-106050000D02*
X99400000Y-106050000D01*
X105400000Y-99940000D02*
X114210000Y-99940000D01*
X106900000Y-100550000D02*
X106400000Y-100550000D01*
X98900000Y-100550000D02*
X98900000Y-106050000D01*
X101400000Y-100550000D02*
X101400000Y-106050000D01*
X111400000Y-106050000D02*
X111900000Y-106050000D01*
X111350000Y-111350000D02*
X111650000Y-110750000D01*
X114210000Y-111660000D02*
X112790000Y-111660000D01*
X99400000Y-106050000D02*
X99400000Y-100550000D01*
X104400000Y-100550000D02*
X103900000Y-100550000D01*
X111650000Y-110750000D02*
X111950000Y-111350000D01*
%TO.C,U2*%
X113950000Y-119000000D02*
X114700000Y-119000000D01*
X114700000Y-137000000D02*
X114700000Y-136000000D01*
X89200000Y-137000000D02*
X95950000Y-137000000D01*
X89200000Y-119000000D02*
X95950000Y-119000000D01*
X114700000Y-119000000D02*
X114700000Y-120000000D01*
X95140000Y-119000000D02*
X95140000Y-137000000D01*
X113950000Y-137000000D02*
X114700000Y-137000000D01*
X89200000Y-137000000D02*
X89200000Y-119000000D01*
%TO.C,C24*%
X132488781Y-131139970D02*
X132289970Y-131338781D01*
X133210030Y-131861219D02*
X133011219Y-132060030D01*
%TO.C,R15*%
X145203641Y-143020000D02*
X144896359Y-143020000D01*
X145203641Y-143780000D02*
X144896359Y-143780000D01*
%TO.C,R29*%
X122046359Y-122520000D02*
X122353641Y-122520000D01*
X122046359Y-123280000D02*
X122353641Y-123280000D01*
%TO.C,C29*%
X145388748Y-112860000D02*
X146811252Y-112860000D01*
X145388748Y-111040000D02*
X146811252Y-111040000D01*
%TO.C,C18*%
X145388748Y-113340000D02*
X146811252Y-113340000D01*
X145388748Y-115160000D02*
X146811252Y-115160000D01*
%TO.C,C41*%
X106860000Y-113107836D02*
X106860000Y-112892164D01*
X106140000Y-113107836D02*
X106140000Y-112892164D01*
%TO.C,R11*%
X106880000Y-115053641D02*
X106880000Y-114746359D01*
X106120000Y-115053641D02*
X106120000Y-114746359D01*
%TO.C,C13*%
X141310000Y-119338748D02*
X141310000Y-120761252D01*
X139490000Y-119338748D02*
X139490000Y-120761252D01*
%TO.C,C14*%
X118611252Y-111090000D02*
X117188748Y-111090000D01*
X118611252Y-112910000D02*
X117188748Y-112910000D01*
%TO.C,J10*%
X101300000Y-146150000D02*
X101300000Y-151650000D01*
X104300000Y-146150000D02*
X103800000Y-146150000D01*
X103800000Y-146150000D02*
X103800000Y-151650000D01*
X106300000Y-146150000D02*
X106300000Y-151650000D01*
X112690000Y-140540000D02*
X112690000Y-145040000D01*
X99300000Y-151650000D02*
X99300000Y-146150000D01*
X106300000Y-151650000D02*
X106800000Y-151650000D01*
X105300000Y-152260000D02*
X114110000Y-152260000D01*
X111300000Y-146150000D02*
X111300000Y-151650000D01*
X106800000Y-146150000D02*
X106300000Y-146150000D01*
X97910000Y-140540000D02*
X97910000Y-145040000D01*
X99300000Y-146150000D02*
X98800000Y-146150000D01*
X98750000Y-140850000D02*
X99350000Y-140850000D01*
X101800000Y-151650000D02*
X101800000Y-146150000D01*
X108800000Y-146150000D02*
X108800000Y-151650000D01*
X106800000Y-151650000D02*
X106800000Y-146150000D01*
X109300000Y-151650000D02*
X109300000Y-146150000D01*
X114110000Y-152260000D02*
X114110000Y-140540000D01*
X109300000Y-146150000D02*
X108800000Y-146150000D01*
X111800000Y-151650000D02*
X111800000Y-146150000D01*
X101800000Y-146150000D02*
X101300000Y-146150000D01*
X111800000Y-146150000D02*
X111300000Y-146150000D01*
X103800000Y-151650000D02*
X104300000Y-151650000D01*
X98800000Y-151650000D02*
X99300000Y-151650000D01*
X112690000Y-145040000D02*
X105300000Y-145040000D01*
X111300000Y-151650000D02*
X111800000Y-151650000D01*
X104300000Y-151650000D02*
X104300000Y-146150000D01*
X96490000Y-140540000D02*
X97910000Y-140540000D01*
X99050000Y-141450000D02*
X98750000Y-140850000D01*
X96490000Y-152260000D02*
X96490000Y-140540000D01*
X99350000Y-140850000D02*
X99050000Y-141450000D01*
X108800000Y-151650000D02*
X109300000Y-151650000D01*
X97910000Y-145040000D02*
X105300000Y-145040000D01*
X114110000Y-140540000D02*
X112690000Y-140540000D01*
X98800000Y-146150000D02*
X98800000Y-151650000D01*
X101300000Y-151650000D02*
X101800000Y-151650000D01*
X105300000Y-152260000D02*
X96490000Y-152260000D01*
%TO.C,C36*%
X144209420Y-133840000D02*
X144490580Y-133840000D01*
X144209420Y-134860000D02*
X144490580Y-134860000D01*
%TO.C,R14*%
X145203641Y-144780000D02*
X144896359Y-144780000D01*
X145203641Y-144020000D02*
X144896359Y-144020000D01*
%TO.C,C5*%
X129210000Y-119338748D02*
X129210000Y-120761252D01*
X127390000Y-119338748D02*
X127390000Y-120761252D01*
%TO.C,R30*%
X96156359Y-117980000D02*
X96463641Y-117980000D01*
X96156359Y-117220000D02*
X96463641Y-117220000D01*
%TO.C,R7*%
X147853641Y-131180000D02*
X147546359Y-131180000D01*
X147853641Y-130420000D02*
X147546359Y-130420000D01*
%TO.C,C33*%
X127110000Y-137707836D02*
X127110000Y-137492164D01*
X126390000Y-137707836D02*
X126390000Y-137492164D01*
%TO.C,U7*%
X119250000Y-134440000D02*
X121200000Y-134440000D01*
X119250000Y-139560000D02*
X117300000Y-139560000D01*
X119250000Y-134440000D02*
X115800000Y-134440000D01*
X119250000Y-139560000D02*
X121200000Y-139560000D01*
%TO.C,C2*%
X144090000Y-119338748D02*
X144090000Y-120761252D01*
X145910000Y-119338748D02*
X145910000Y-120761252D01*
%TO.C,C23*%
X134140580Y-129810000D02*
X133859420Y-129810000D01*
X134140580Y-128790000D02*
X133859420Y-128790000D01*
%TO.C,C12*%
X143610000Y-119338748D02*
X143610000Y-120761252D01*
X141790000Y-119338748D02*
X141790000Y-120761252D01*
%TO.C,C28*%
X146390000Y-119338748D02*
X146390000Y-120761252D01*
X148210000Y-119338748D02*
X148210000Y-120761252D01*
%TO.C,C19*%
X126910000Y-119338748D02*
X126910000Y-120761252D01*
X125090000Y-119338748D02*
X125090000Y-120761252D01*
%TO.C,U5*%
X117900000Y-139940000D02*
X117100000Y-139940000D01*
X117900000Y-143060000D02*
X119700000Y-143060000D01*
X117900000Y-139940000D02*
X118700000Y-139940000D01*
X117900000Y-143060000D02*
X117100000Y-143060000D01*
%TO.C,SW2*%
X109600000Y-112800000D02*
X110050000Y-112350000D01*
X114050000Y-116100000D02*
X114050000Y-114100000D01*
X112550000Y-117850000D02*
X110050000Y-117850000D01*
X108550000Y-116100000D02*
X108550000Y-114100000D01*
X109600000Y-117400000D02*
X110050000Y-117850000D01*
X112550000Y-112350000D02*
X110050000Y-112350000D01*
X113000000Y-117400000D02*
X112550000Y-117850000D01*
X113000000Y-112800000D02*
X112550000Y-112350000D01*
%TO.C,C11*%
X145388748Y-117460000D02*
X146811252Y-117460000D01*
X145388748Y-115640000D02*
X146811252Y-115640000D01*
%TO.C,SW4*%
X104450000Y-114100000D02*
X104450000Y-116100000D01*
X100450000Y-117850000D02*
X102950000Y-117850000D01*
X100000000Y-117400000D02*
X100450000Y-117850000D01*
X98950000Y-114100000D02*
X98950000Y-116100000D01*
X103400000Y-112800000D02*
X102950000Y-112350000D01*
X103400000Y-117400000D02*
X102950000Y-117850000D01*
X100450000Y-112350000D02*
X102950000Y-112350000D01*
X100000000Y-112800000D02*
X100450000Y-112350000D01*
%TO.C,C1*%
X131510000Y-119338748D02*
X131510000Y-120761252D01*
X129690000Y-119338748D02*
X129690000Y-120761252D01*
%TO.C,R28*%
X121080000Y-123146359D02*
X121080000Y-123453641D01*
X120320000Y-123146359D02*
X120320000Y-123453641D01*
%TO.C,C9*%
X118611252Y-108790000D02*
X117188748Y-108790000D01*
X118611252Y-110610000D02*
X117188748Y-110610000D01*
%TO.C,U1*%
X125865000Y-130610000D02*
X125390000Y-130610000D01*
X125390000Y-130610000D02*
X125390000Y-130135000D01*
X131135000Y-124390000D02*
X131610000Y-124390000D01*
X131135000Y-130610000D02*
X131610000Y-130610000D01*
X125390000Y-124390000D02*
X125390000Y-124865000D01*
X125865000Y-124390000D02*
X125390000Y-124390000D01*
X131610000Y-124390000D02*
X131610000Y-124865000D01*
%TO.C,R9*%
X133070000Y-133903641D02*
X133070000Y-133596359D01*
X133830000Y-133903641D02*
X133830000Y-133596359D01*
%TO.C,C20*%
X133990000Y-123988748D02*
X133990000Y-125411252D01*
X135810000Y-123988748D02*
X135810000Y-125411252D01*
%TO.C,C22*%
X123907836Y-126960000D02*
X123692164Y-126960000D01*
X123907836Y-126240000D02*
X123692164Y-126240000D01*
%TO.C,J9*%
X136150000Y-151650000D02*
X136150000Y-146150000D01*
X140650000Y-146150000D02*
X140650000Y-151650000D01*
X138650000Y-146150000D02*
X138150000Y-146150000D01*
X138150000Y-151650000D02*
X138650000Y-151650000D01*
X135650000Y-151650000D02*
X136150000Y-151650000D01*
X141150000Y-151650000D02*
X141150000Y-146150000D01*
X143460000Y-140540000D02*
X142040000Y-140540000D01*
X142040000Y-145040000D02*
X134650000Y-145040000D01*
X125840000Y-152260000D02*
X125840000Y-140540000D01*
X138150000Y-146150000D02*
X138150000Y-151650000D01*
X131150000Y-151650000D02*
X131150000Y-146150000D01*
X127260000Y-140540000D02*
X127260000Y-145040000D01*
X133150000Y-146150000D02*
X133150000Y-151650000D01*
X136150000Y-146150000D02*
X135650000Y-146150000D01*
X128700000Y-140850000D02*
X128400000Y-141450000D01*
X140650000Y-151650000D02*
X141150000Y-151650000D01*
X141150000Y-146150000D02*
X140650000Y-146150000D01*
X134650000Y-152260000D02*
X143460000Y-152260000D01*
X133650000Y-151650000D02*
X133650000Y-146150000D01*
X128400000Y-141450000D02*
X128100000Y-140850000D01*
X130650000Y-151650000D02*
X131150000Y-151650000D01*
X127260000Y-145040000D02*
X134650000Y-145040000D01*
X131150000Y-146150000D02*
X130650000Y-146150000D01*
X125840000Y-140540000D02*
X127260000Y-140540000D01*
X134650000Y-152260000D02*
X125840000Y-152260000D01*
X133150000Y-151650000D02*
X133650000Y-151650000D01*
X133650000Y-146150000D02*
X133150000Y-146150000D01*
X138650000Y-151650000D02*
X138650000Y-146150000D01*
X128650000Y-151650000D02*
X128650000Y-146150000D01*
X128650000Y-146150000D02*
X128150000Y-146150000D01*
X128150000Y-151650000D02*
X128650000Y-151650000D01*
X135650000Y-146150000D02*
X135650000Y-151650000D01*
X142040000Y-140540000D02*
X142040000Y-145040000D01*
X130650000Y-146150000D02*
X130650000Y-151650000D01*
X128100000Y-140850000D02*
X128700000Y-140850000D01*
X143460000Y-152260000D02*
X143460000Y-140540000D01*
X128150000Y-146150000D02*
X128150000Y-151650000D01*
%TO.C,C38*%
X147511252Y-122640000D02*
X146088748Y-122640000D01*
X147511252Y-124460000D02*
X146088748Y-124460000D01*
%TO.C,C10*%
X137190000Y-119338748D02*
X137190000Y-120761252D01*
X139010000Y-119338748D02*
X139010000Y-120761252D01*
%TO.C,R1*%
X143710000Y-105077064D02*
X143710000Y-100722936D01*
X140290000Y-105077064D02*
X140290000Y-100722936D01*
%TO.C,C30*%
X118611252Y-108310000D02*
X117188748Y-108310000D01*
X118611252Y-106490000D02*
X117188748Y-106490000D01*
%TO.C,R13*%
X96553641Y-113980000D02*
X96246359Y-113980000D01*
X96553641Y-113220000D02*
X96246359Y-113220000D01*
%TD*%
%LPC*%
D13*
%TO.C,Q3*%
X128800000Y-113750000D03*
X135200000Y-113750000D03*
X135200000Y-116150000D03*
X128800000Y-116150000D03*
D14*
X133550000Y-115900000D03*
D15*
X130625000Y-115800000D03*
D16*
X133550000Y-114100000D03*
D15*
X132175000Y-114100000D03*
X132175000Y-115800000D03*
X130625000Y-114100000D03*
%TD*%
D13*
%TO.C,Q6*%
X120900000Y-110650000D03*
X127300000Y-108250000D03*
X127300000Y-110650000D03*
X120900000Y-108250000D03*
D14*
X125650000Y-110400000D03*
D15*
X122725000Y-108600000D03*
D16*
X125650000Y-108600000D03*
D15*
X124275000Y-108600000D03*
X122725000Y-110300000D03*
X124275000Y-110300000D03*
%TD*%
D13*
%TO.C,Q2*%
X136700000Y-108250000D03*
X143100000Y-110650000D03*
X143100000Y-108250000D03*
X136700000Y-110650000D03*
D14*
X141450000Y-110400000D03*
D15*
X138525000Y-110300000D03*
X138525000Y-108600000D03*
X140075000Y-108600000D03*
X140075000Y-110300000D03*
D16*
X141450000Y-108600000D03*
%TD*%
D13*
%TO.C,Q5*%
X127300000Y-116150000D03*
X127300000Y-113750000D03*
X120900000Y-113750000D03*
X120900000Y-116150000D03*
D14*
X125650000Y-115900000D03*
D15*
X124275000Y-115800000D03*
X124275000Y-114100000D03*
X122725000Y-115800000D03*
X122725000Y-114100000D03*
D16*
X125650000Y-114100000D03*
%TD*%
D13*
%TO.C,Q4*%
X135200000Y-108250000D03*
X135200000Y-110650000D03*
X128800000Y-110650000D03*
X128800000Y-108250000D03*
D14*
X133550000Y-110400000D03*
D15*
X130625000Y-110300000D03*
X132175000Y-110300000D03*
D16*
X133550000Y-108600000D03*
D15*
X132175000Y-108600000D03*
X130625000Y-108600000D03*
%TD*%
D13*
%TO.C,Q1*%
X136700000Y-116150000D03*
X143100000Y-113750000D03*
X136700000Y-113750000D03*
X143100000Y-116150000D03*
D14*
X141450000Y-115900000D03*
D15*
X140075000Y-115800000D03*
X140075000Y-114100000D03*
D16*
X141450000Y-114100000D03*
D15*
X138525000Y-114100000D03*
X138525000Y-115800000D03*
%TD*%
D17*
%TO.C,D1*%
X117750000Y-133600000D03*
X119650000Y-133600000D03*
X118700000Y-131600000D03*
%TD*%
D18*
%TO.C,C16*%
X119050000Y-120925000D03*
X119050000Y-123875000D03*
%TD*%
D19*
%TO.C,R2*%
X131400000Y-105862500D03*
X131400000Y-99937500D03*
%TD*%
D18*
%TO.C,C15*%
X121400000Y-118575000D03*
X121400000Y-121525000D03*
%TD*%
D20*
%TO.C,J15*%
X116400000Y-93500000D03*
%TD*%
D21*
%TO.C,C21*%
X133225000Y-127800000D03*
X134775000Y-127800000D03*
%TD*%
D22*
%TO.C,C3*%
X119375000Y-116600000D03*
X116425000Y-116600000D03*
%TD*%
D23*
%TO.C,R6*%
X147190000Y-131800000D03*
X148210000Y-131800000D03*
%TD*%
D24*
%TO.C,C35*%
X123850000Y-136530000D03*
X123850000Y-135570000D03*
%TD*%
D21*
%TO.C,C37*%
X145075000Y-135900000D03*
X146625000Y-135900000D03*
%TD*%
D25*
%TO.C,R27*%
X94900000Y-145150000D03*
X94900000Y-142050000D03*
%TD*%
D26*
%TO.C,H2*%
X93000000Y-149000000D03*
%TD*%
D22*
%TO.C,C17*%
X119375000Y-114300000D03*
X116425000Y-114300000D03*
%TD*%
D19*
%TO.C,R3*%
X124200000Y-105862500D03*
X124200000Y-99937500D03*
%TD*%
D27*
%TO.C,SW1*%
X137150000Y-138350000D03*
X139650000Y-138350000D03*
X142150000Y-138350000D03*
%TD*%
D28*
%TO.C,C31*%
X144625000Y-107350000D03*
X147575000Y-107350000D03*
%TD*%
D29*
%TO.C,R10*%
X145100000Y-138850000D03*
X145100000Y-141950000D03*
%TD*%
D30*
%TO.C,R26*%
X123750000Y-137675000D03*
X123750000Y-139325000D03*
%TD*%
D31*
%TO.C,R25*%
X116300000Y-133525000D03*
X116300000Y-131875000D03*
%TD*%
D32*
%TO.C,J7*%
X93435000Y-111970000D03*
D33*
X92165000Y-111970000D03*
X93435000Y-110700000D03*
X92165000Y-110700000D03*
X93435000Y-109430000D03*
X92165000Y-109430000D03*
%TD*%
D34*
%TO.C,J8*%
X115680000Y-145370000D03*
D35*
X124320000Y-149550000D03*
D34*
X124320000Y-145370000D03*
D35*
X115680000Y-149550000D03*
D36*
X116750000Y-144455000D03*
X117550000Y-144455000D03*
D37*
X118250000Y-144455000D03*
X119250000Y-144455000D03*
X120750000Y-144455000D03*
X121750000Y-144455000D03*
D36*
X122450000Y-144455000D03*
X123250000Y-144455000D03*
X123250000Y-144455000D03*
X122450000Y-144455000D03*
D37*
X121250000Y-144455000D03*
X120250000Y-144455000D03*
X119750000Y-144455000D03*
X118750000Y-144455000D03*
D36*
X117550000Y-144455000D03*
X116750000Y-144455000D03*
D38*
X122890000Y-145900000D03*
X117110000Y-145900000D03*
%TD*%
D39*
%TO.C,R18*%
X124350000Y-130890000D03*
X124350000Y-131910000D03*
%TD*%
D20*
%TO.C,J13*%
X131400000Y-93500000D03*
%TD*%
D28*
%TO.C,C32*%
X144625000Y-109650000D03*
X147575000Y-109650000D03*
%TD*%
D40*
%TO.C,C40*%
X97775000Y-138600000D03*
X96225000Y-138600000D03*
%TD*%
D41*
%TO.C,L1*%
X140900000Y-126487500D03*
X140900000Y-132537500D03*
%TD*%
D42*
%TO.C,U3*%
X146250000Y-129400000D03*
X147200000Y-129400000D03*
X148150000Y-129400000D03*
X148150000Y-127125000D03*
X147200000Y-127125000D03*
X146250000Y-127125000D03*
%TD*%
D18*
%TO.C,C8*%
X123700000Y-118575000D03*
X123700000Y-121525000D03*
%TD*%
D22*
%TO.C,C6*%
X119375000Y-118900000D03*
X116425000Y-118900000D03*
%TD*%
D43*
%TO.C,R5*%
X121800000Y-142710000D03*
X121800000Y-141690000D03*
%TD*%
D44*
%TO.C,C25*%
X127180000Y-131650000D03*
X126220000Y-131650000D03*
%TD*%
D18*
%TO.C,C7*%
X135800000Y-118575000D03*
X135800000Y-121525000D03*
%TD*%
D26*
%TO.C,H4*%
X147000000Y-149000000D03*
%TD*%
D45*
%TO.C,R12*%
X96910000Y-112600000D03*
X95890000Y-112600000D03*
%TD*%
D20*
%TO.C,J14*%
X123900000Y-93500000D03*
%TD*%
D46*
%TO.C,J5*%
X117100000Y-104000000D03*
%TD*%
D47*
%TO.C,J16*%
X108300000Y-97100000D03*
D48*
X104490000Y-97100000D03*
X100680000Y-97100000D03*
X96870000Y-97100000D03*
X93060000Y-97100000D03*
%TD*%
D49*
%TO.C,TH1*%
X116800000Y-122955000D03*
D50*
X116800000Y-121055000D03*
%TD*%
D43*
%TO.C,R4*%
X115100000Y-142710000D03*
X115100000Y-141690000D03*
%TD*%
D26*
%TO.C,H1*%
X147000000Y-103000000D03*
%TD*%
%TO.C,H3*%
X93000000Y-103000000D03*
%TD*%
D51*
%TO.C,U6*%
X128475000Y-135545000D03*
X128475000Y-136815000D03*
X128475000Y-138085000D03*
X128475000Y-139355000D03*
X133425000Y-139355000D03*
X133425000Y-138085000D03*
X133425000Y-136815000D03*
X133425000Y-135545000D03*
%TD*%
D24*
%TO.C,C42*%
X99000000Y-139280000D03*
X99000000Y-138320000D03*
%TD*%
D40*
%TO.C,C26*%
X147925000Y-125450000D03*
X146375000Y-125450000D03*
%TD*%
D27*
%TO.C,SW3*%
X106300000Y-139600000D03*
X103800000Y-139600000D03*
X101300000Y-139600000D03*
%TD*%
D52*
%TO.C,C27*%
X144950000Y-127470000D03*
X144950000Y-128430000D03*
%TD*%
D18*
%TO.C,C4*%
X133500000Y-118575000D03*
X133500000Y-121525000D03*
%TD*%
D53*
%TO.C,J6*%
X111650000Y-109250000D03*
D54*
X109150000Y-109250000D03*
X106650000Y-109250000D03*
X104150000Y-109250000D03*
X101650000Y-109250000D03*
X99150000Y-109250000D03*
%TD*%
D55*
%TO.C,U2*%
X96690000Y-136750000D03*
X97960000Y-136750000D03*
X99230000Y-136750000D03*
X100500000Y-136750000D03*
X101770000Y-136750000D03*
X103040000Y-136750000D03*
X104310000Y-136750000D03*
X105580000Y-136750000D03*
X106850000Y-136750000D03*
X108120000Y-136750000D03*
X109390000Y-136750000D03*
X110660000Y-136750000D03*
X111930000Y-136750000D03*
X113200000Y-136750000D03*
D56*
X114450000Y-134985000D03*
X114450000Y-133715000D03*
X114450000Y-132445000D03*
X114450000Y-131175000D03*
X114450000Y-129905000D03*
X114450000Y-128635000D03*
X114450000Y-127365000D03*
X114450000Y-126095000D03*
X114450000Y-124825000D03*
X114450000Y-123555000D03*
X114450000Y-122285000D03*
X114450000Y-121015000D03*
D55*
X113200000Y-119250000D03*
X111930000Y-119250000D03*
X110660000Y-119250000D03*
X109390000Y-119250000D03*
X108120000Y-119250000D03*
X106850000Y-119250000D03*
X105580000Y-119250000D03*
X104310000Y-119250000D03*
X103040000Y-119250000D03*
X101770000Y-119250000D03*
X100500000Y-119250000D03*
X99230000Y-119250000D03*
X97960000Y-119250000D03*
X96690000Y-119250000D03*
D57*
X105810000Y-128100000D03*
X103010000Y-129500000D03*
X104410000Y-128100000D03*
X105810000Y-129500000D03*
X103010000Y-128100000D03*
X105810000Y-130900000D03*
X103010000Y-130900000D03*
X104410000Y-129500000D03*
X104410000Y-130900000D03*
%TD*%
D58*
%TO.C,C24*%
X133298008Y-131051992D03*
X132201992Y-132148008D03*
%TD*%
D45*
%TO.C,R15*%
X145560000Y-143400000D03*
X144540000Y-143400000D03*
%TD*%
D59*
%TO.C,J2*%
X135000000Y-104000000D03*
%TD*%
D20*
%TO.C,J11*%
X146400000Y-93500000D03*
%TD*%
D23*
%TO.C,R29*%
X121690000Y-122900000D03*
X122710000Y-122900000D03*
%TD*%
D28*
%TO.C,C29*%
X144625000Y-111950000D03*
X147575000Y-111950000D03*
%TD*%
%TO.C,C18*%
X144625000Y-114250000D03*
X147575000Y-114250000D03*
%TD*%
D24*
%TO.C,C41*%
X106500000Y-113480000D03*
X106500000Y-112520000D03*
%TD*%
D43*
%TO.C,R11*%
X106500000Y-115410000D03*
X106500000Y-114390000D03*
%TD*%
D18*
%TO.C,C13*%
X140400000Y-118575000D03*
X140400000Y-121525000D03*
%TD*%
D22*
%TO.C,C14*%
X119375000Y-112000000D03*
X116425000Y-112000000D03*
%TD*%
D60*
%TO.C,J10*%
X99050000Y-142950000D03*
D54*
X101550000Y-142950000D03*
X104050000Y-142950000D03*
X106550000Y-142950000D03*
X109050000Y-142950000D03*
X111550000Y-142950000D03*
%TD*%
D21*
%TO.C,C36*%
X143575000Y-134350000D03*
X145125000Y-134350000D03*
%TD*%
D45*
%TO.C,R14*%
X145560000Y-144400000D03*
X144540000Y-144400000D03*
%TD*%
D18*
%TO.C,C5*%
X128300000Y-118575000D03*
X128300000Y-121525000D03*
%TD*%
D23*
%TO.C,R30*%
X95800000Y-117600000D03*
X96820000Y-117600000D03*
%TD*%
D45*
%TO.C,R7*%
X148210000Y-130800000D03*
X147190000Y-130800000D03*
%TD*%
D24*
%TO.C,C33*%
X126750000Y-138080000D03*
X126750000Y-137120000D03*
%TD*%
D51*
%TO.C,U7*%
X116775000Y-135095000D03*
X116775000Y-136365000D03*
X116775000Y-137635000D03*
X116775000Y-138905000D03*
X121725000Y-138905000D03*
X121725000Y-137635000D03*
X121725000Y-136365000D03*
X121725000Y-135095000D03*
%TD*%
D18*
%TO.C,C2*%
X145000000Y-118575000D03*
X145000000Y-121525000D03*
%TD*%
D40*
%TO.C,C23*%
X134775000Y-129300000D03*
X133225000Y-129300000D03*
%TD*%
D20*
%TO.C,J12*%
X138900000Y-93500000D03*
%TD*%
D18*
%TO.C,C12*%
X142700000Y-118575000D03*
X142700000Y-121525000D03*
%TD*%
%TO.C,C28*%
X147300000Y-118575000D03*
X147300000Y-121525000D03*
%TD*%
%TO.C,C19*%
X126000000Y-118575000D03*
X126000000Y-121525000D03*
%TD*%
D61*
%TO.C,U5*%
X119037500Y-142450000D03*
X119037500Y-141500000D03*
X119037500Y-140550000D03*
X116762500Y-140550000D03*
X116762500Y-141500000D03*
X116762500Y-142450000D03*
%TD*%
D62*
%TO.C,SW2*%
X108150000Y-117000000D03*
X114450000Y-117000000D03*
X114450000Y-113200000D03*
X108150000Y-113200000D03*
%TD*%
D28*
%TO.C,C11*%
X144625000Y-116550000D03*
X147575000Y-116550000D03*
%TD*%
D46*
%TO.C,J3*%
X127800000Y-104000000D03*
%TD*%
D59*
%TO.C,J1*%
X138400000Y-104000000D03*
%TD*%
D62*
%TO.C,SW4*%
X104850000Y-113200000D03*
X98550000Y-113200000D03*
X104850000Y-117000000D03*
X98550000Y-117000000D03*
%TD*%
D63*
%TO.C,D7*%
X96400000Y-116387500D03*
X96400000Y-114812500D03*
%TD*%
D18*
%TO.C,C1*%
X130600000Y-118575000D03*
X130600000Y-121525000D03*
%TD*%
D39*
%TO.C,R28*%
X120700000Y-122790000D03*
X120700000Y-123810000D03*
%TD*%
D22*
%TO.C,C9*%
X119375000Y-109700000D03*
X116425000Y-109700000D03*
%TD*%
D64*
%TO.C,U1*%
X128500000Y-127500000D03*
D65*
X130750000Y-130437500D03*
X130250000Y-130437500D03*
X129750000Y-130437500D03*
X129250000Y-130437500D03*
X128750000Y-130437500D03*
X128250000Y-130437500D03*
X127750000Y-130437500D03*
X127250000Y-130437500D03*
X126750000Y-130437500D03*
X126250000Y-130437500D03*
D66*
X125562500Y-129750000D03*
X125562500Y-129250000D03*
X125562500Y-128750000D03*
X125562500Y-128250000D03*
X125562500Y-127750000D03*
X125562500Y-127250000D03*
X125562500Y-126750000D03*
X125562500Y-126250000D03*
X125562500Y-125750000D03*
X125562500Y-125250000D03*
D65*
X126250000Y-124562500D03*
X126750000Y-124562500D03*
X127250000Y-124562500D03*
X127750000Y-124562500D03*
X128250000Y-124562500D03*
X128750000Y-124562500D03*
X129250000Y-124562500D03*
X129750000Y-124562500D03*
X130250000Y-124562500D03*
X130750000Y-124562500D03*
D66*
X131437500Y-125250000D03*
X131437500Y-125750000D03*
X131437500Y-126250000D03*
X131437500Y-126750000D03*
X131437500Y-127250000D03*
X131437500Y-127750000D03*
X131437500Y-128250000D03*
X131437500Y-128750000D03*
X131437500Y-129250000D03*
X131437500Y-129750000D03*
%TD*%
D43*
%TO.C,R9*%
X133450000Y-134260000D03*
X133450000Y-133240000D03*
%TD*%
D18*
%TO.C,C20*%
X134900000Y-123225000D03*
X134900000Y-126175000D03*
%TD*%
D44*
%TO.C,C22*%
X124280000Y-126600000D03*
X123320000Y-126600000D03*
%TD*%
D46*
%TO.C,J4*%
X120500000Y-104000000D03*
%TD*%
D60*
%TO.C,J9*%
X128400000Y-142950000D03*
D54*
X130900000Y-142950000D03*
X133400000Y-142950000D03*
X135900000Y-142950000D03*
X138400000Y-142950000D03*
X140900000Y-142950000D03*
%TD*%
D22*
%TO.C,C38*%
X148275000Y-123550000D03*
X145325000Y-123550000D03*
%TD*%
D18*
%TO.C,C10*%
X138100000Y-118575000D03*
X138100000Y-121525000D03*
%TD*%
D19*
%TO.C,R1*%
X142000000Y-105862500D03*
X142000000Y-99937500D03*
%TD*%
D22*
%TO.C,C30*%
X119375000Y-107400000D03*
X116425000Y-107400000D03*
%TD*%
D45*
%TO.C,R13*%
X96910000Y-113600000D03*
X95890000Y-113600000D03*
%TD*%
D67*
%TO.C,TP3*%
X133500000Y-116800000D03*
%TD*%
%TO.C,TP5*%
X125700000Y-116800000D03*
%TD*%
%TO.C,TP1*%
X141400000Y-116800000D03*
%TD*%
%TO.C,TP6*%
X124300000Y-111800000D03*
%TD*%
%TO.C,TP4*%
X132200000Y-111800000D03*
%TD*%
%TO.C,TP2*%
X140100000Y-111800000D03*
%TD*%
D68*
X141550000Y-111800000D03*
X141050000Y-112500000D03*
X145500000Y-106700000D03*
X145500000Y-107500000D03*
X144600000Y-108500000D03*
X145500000Y-108500000D03*
X145500000Y-109400000D03*
X144600000Y-110800000D03*
X145500000Y-110500000D03*
X145500000Y-111500000D03*
X145500000Y-112400000D03*
X143100000Y-115000000D03*
X143900000Y-114600000D03*
X143900000Y-113500000D03*
X144500000Y-113100000D03*
X145500000Y-113400000D03*
X145500000Y-114700000D03*
X144600000Y-115300000D03*
X143800000Y-115700000D03*
X143900000Y-116800000D03*
X145500000Y-116200000D03*
X145500000Y-117600000D03*
X148500000Y-119300000D03*
X146900000Y-119500000D03*
X148500000Y-118100000D03*
X146200000Y-118600000D03*
X145800000Y-119500000D03*
X142700000Y-119500000D03*
X143800000Y-119500000D03*
X143900000Y-118500000D03*
X143500000Y-117800000D03*
X142400000Y-117800000D03*
X141600000Y-118400000D03*
X141300000Y-119500000D03*
X139400000Y-119500000D03*
X139200000Y-118400000D03*
X130700000Y-117700000D03*
X128000000Y-117400000D03*
X128000000Y-116400000D03*
X128000000Y-115400000D03*
X128000000Y-114300000D03*
X128000000Y-113200000D03*
X127300000Y-114900000D03*
X128800000Y-115000000D03*
X132000000Y-117700000D03*
X129500000Y-118900000D03*
X129500000Y-117700000D03*
X127100000Y-118900000D03*
X127100000Y-117700000D03*
X122300000Y-117400000D03*
X120900000Y-115000000D03*
X121000000Y-117400000D03*
X120200000Y-118800000D03*
X119300000Y-120100000D03*
X120100000Y-120100000D03*
X119700000Y-117800000D03*
X118800000Y-117700000D03*
X119700000Y-115400000D03*
X118800000Y-115400000D03*
X119700000Y-113200000D03*
X118800000Y-113200000D03*
X119700000Y-110800000D03*
X118800000Y-110800000D03*
X119700000Y-108500000D03*
X118800000Y-108500000D03*
X133000000Y-106750000D03*
X132100000Y-106750000D03*
X131050000Y-106750000D03*
X129400000Y-108600000D03*
X129450000Y-110700000D03*
X129450000Y-109900000D03*
X128650000Y-109450000D03*
X132950000Y-114850000D03*
X130650000Y-114950000D03*
X132250000Y-114950000D03*
X131450000Y-116250000D03*
X131400000Y-115450000D03*
X131400000Y-114550000D03*
X131400000Y-113750000D03*
X130250000Y-112800000D03*
X129450000Y-111950000D03*
X130250000Y-111800000D03*
X131150000Y-111850000D03*
X131650000Y-112950000D03*
X133050000Y-112850000D03*
X133800000Y-112800000D03*
X134550000Y-110800000D03*
X134550000Y-109950000D03*
X135200000Y-109450000D03*
X134550000Y-109000000D03*
X134350000Y-107100000D03*
X135150000Y-107100000D03*
X138450000Y-114900000D03*
X139250000Y-114950000D03*
X140050000Y-114950000D03*
X140800000Y-114900000D03*
X140850000Y-114150000D03*
X139250000Y-114200000D03*
X142450000Y-110750000D03*
X142450000Y-108150000D03*
X143300000Y-109450000D03*
X142500000Y-109500000D03*
X142700000Y-111900000D03*
X141800000Y-112900000D03*
X140850000Y-113400000D03*
X140100000Y-113050000D03*
X139250000Y-113350000D03*
X139000000Y-112650000D03*
X138000000Y-112850000D03*
X137350000Y-110650000D03*
X137350000Y-109750000D03*
X136550000Y-109450000D03*
X137350000Y-108900000D03*
X137350000Y-107850000D03*
X137550000Y-106950000D03*
X136700000Y-106900000D03*
X140850000Y-104900000D03*
X141650000Y-104950000D03*
X142500000Y-104900000D03*
X143300000Y-104950000D03*
X143100000Y-106700000D03*
X140550000Y-106800000D03*
X139250000Y-108600000D03*
X140850000Y-108750000D03*
X139300000Y-110100000D03*
X139300000Y-110800000D03*
X138800000Y-109450000D03*
X139650000Y-109450000D03*
X140550000Y-109450000D03*
X139300000Y-107550000D03*
X140100000Y-107550000D03*
X140900000Y-107550000D03*
X141700000Y-107550000D03*
X126600000Y-108400000D03*
X123500000Y-109100000D03*
X121600000Y-107600000D03*
X126600000Y-109200000D03*
X126600000Y-107600000D03*
X121600000Y-109200000D03*
X124100000Y-107600000D03*
X125100000Y-108300000D03*
X121600000Y-108400000D03*
X125700000Y-107600000D03*
X122500000Y-107600000D03*
X125100000Y-109100000D03*
X123500000Y-108300000D03*
X124900000Y-107600000D03*
X123300000Y-107600000D03*
X122500000Y-109450000D03*
X121600000Y-110000000D03*
X120900000Y-109450000D03*
X121600000Y-110800000D03*
X121600000Y-111600000D03*
X122500000Y-111600000D03*
X122500000Y-112400000D03*
X122500000Y-113200000D03*
X122500000Y-114950000D03*
X124900000Y-113200000D03*
X125700000Y-113200000D03*
X125700000Y-112400000D03*
X125700000Y-111600000D03*
X126600000Y-111600000D03*
X126600000Y-110800000D03*
X126600000Y-110000000D03*
X127300000Y-109450000D03*
X124100000Y-109450000D03*
X123500000Y-109850000D03*
X130400000Y-107600000D03*
X131200000Y-107600000D03*
X132000000Y-107600000D03*
X132800000Y-107600000D03*
X132900000Y-108300000D03*
X132900000Y-109100000D03*
X132200000Y-109450000D03*
X131400000Y-109100000D03*
X131400000Y-108300000D03*
X130700000Y-109450000D03*
X131400000Y-109900000D03*
X131400000Y-110750000D03*
X130100000Y-106800000D03*
X132500000Y-104900000D03*
X131700000Y-104900000D03*
X130900000Y-104900000D03*
X130100000Y-104900000D03*
X122900000Y-106750000D03*
X123800000Y-106750000D03*
X124600000Y-106750000D03*
D69*
X135800000Y-105800000D03*
X134200000Y-105800000D03*
X135800000Y-102200000D03*
X134200000Y-102200000D03*
X127000000Y-105800000D03*
X128600000Y-105800000D03*
X128600000Y-102200000D03*
X127000000Y-102200000D03*
D68*
X125500000Y-104900000D03*
X124600000Y-104900000D03*
X123800000Y-104900000D03*
X122900000Y-104900000D03*
X125550000Y-106750000D03*
D69*
X138100000Y-119500000D03*
X119700000Y-104000000D03*
X121300000Y-102200000D03*
X121300000Y-105800000D03*
X119700000Y-102200000D03*
X121300000Y-104000000D03*
X135000000Y-125200000D03*
D68*
X125950000Y-138750000D03*
X140300000Y-136400000D03*
X113200000Y-106400000D03*
D69*
X112000000Y-149000000D03*
D70*
X136400000Y-129850000D03*
D69*
X102000000Y-135000000D03*
D68*
X96500000Y-109200000D03*
D69*
X101000000Y-121000000D03*
D68*
X105400000Y-112200000D03*
D69*
X146700000Y-112000000D03*
X111000000Y-127000000D03*
D68*
X137250000Y-135350000D03*
D69*
X118000000Y-150000000D03*
D68*
X149549500Y-127400000D03*
X131400000Y-139350000D03*
D69*
X107000000Y-126000000D03*
X147300000Y-120600000D03*
X97000000Y-126000000D03*
D68*
X122850000Y-126600000D03*
X122722812Y-130043287D03*
D69*
X102000000Y-149000000D03*
D68*
X121800000Y-140650000D03*
D70*
X146800000Y-123400000D03*
D68*
X149549500Y-132500000D03*
D69*
X104000000Y-133000000D03*
D68*
X149549500Y-131100000D03*
D69*
X109000000Y-125000000D03*
D68*
X146200000Y-121500000D03*
X99550000Y-115900000D03*
D69*
X102000000Y-123000000D03*
D68*
X125500000Y-124500000D03*
D69*
X117300000Y-118900000D03*
X97000000Y-123000000D03*
D68*
X149549500Y-134000000D03*
D69*
X117400000Y-107400000D03*
D68*
X139100000Y-120400000D03*
X110000000Y-100900000D03*
D69*
X111000000Y-124000000D03*
D68*
X136400000Y-131400000D03*
D69*
X136000000Y-128000000D03*
D68*
X114969500Y-141200000D03*
X130300000Y-138700000D03*
X107500000Y-118000000D03*
X90800000Y-112800000D03*
X97400000Y-110300000D03*
X108100000Y-110700000D03*
X105600000Y-100700000D03*
D69*
X127000000Y-120500000D03*
D68*
X147600000Y-113100000D03*
X110700000Y-117800000D03*
D70*
X145600000Y-130750000D03*
D68*
X90900000Y-100500000D03*
X112100000Y-117900000D03*
D69*
X131000000Y-151000000D03*
X137000000Y-151000000D03*
X108000000Y-149000000D03*
D70*
X137700000Y-124100000D03*
D68*
X98100000Y-114300000D03*
D69*
X146700000Y-114200000D03*
X112000000Y-114500000D03*
D68*
X129700000Y-120300000D03*
D69*
X122000000Y-150000000D03*
D68*
X117300000Y-131800000D03*
D69*
X117400000Y-109700000D03*
X97000000Y-132000000D03*
X136000000Y-141000000D03*
D68*
X149600000Y-128300000D03*
D70*
X143350000Y-123400000D03*
D69*
X114500000Y-115000000D03*
X117300000Y-116600000D03*
D68*
X136700000Y-123700000D03*
X141600000Y-121500000D03*
D69*
X149000000Y-144000000D03*
D68*
X124050000Y-142350000D03*
D69*
X146700000Y-109700000D03*
D68*
X136600000Y-120700000D03*
D69*
X107000000Y-123000000D03*
D68*
X96400000Y-115800000D03*
D70*
X147200000Y-128512500D03*
D69*
X123500000Y-124000000D03*
X101000000Y-129000000D03*
X146700000Y-116500000D03*
D68*
X149549500Y-135300000D03*
X119875500Y-141700000D03*
X136800000Y-136100000D03*
X147600000Y-110800000D03*
X115900000Y-130900000D03*
D70*
X148550000Y-133050000D03*
D69*
X142700000Y-120700000D03*
D68*
X92100000Y-106300000D03*
X116800000Y-130900000D03*
D69*
X117400000Y-112000000D03*
X116300000Y-102200000D03*
X115000000Y-111000000D03*
D68*
X135250000Y-134100000D03*
X143900000Y-121500000D03*
X96300000Y-139400000D03*
D69*
X115000000Y-108500000D03*
D68*
X131300000Y-124700000D03*
D69*
X102000000Y-132000000D03*
D68*
X109700000Y-105500000D03*
D69*
X111000000Y-133000000D03*
X111000000Y-130000000D03*
X105000000Y-121000000D03*
X108000000Y-129000000D03*
X128500000Y-120500000D03*
D68*
X135800000Y-120700000D03*
X94300000Y-108500000D03*
D69*
X98000000Y-147000000D03*
X116300000Y-104000000D03*
D68*
X105600000Y-105200000D03*
D69*
X146700000Y-107400000D03*
D68*
X111000000Y-111600000D03*
X96900000Y-143500000D03*
X124350000Y-141050000D03*
X100300000Y-138600000D03*
D69*
X142000000Y-151000000D03*
D68*
X113100000Y-102300000D03*
X119200000Y-122800000D03*
D70*
X147250000Y-133100000D03*
D68*
X102000000Y-100800000D03*
D69*
X97000000Y-135000000D03*
X145000000Y-120600000D03*
D68*
X119800000Y-139100000D03*
D69*
X117900000Y-104000000D03*
D68*
X136600000Y-125400000D03*
X149549500Y-129600000D03*
D69*
X117900000Y-102200000D03*
X140400000Y-120600000D03*
X121400000Y-120600000D03*
D68*
X139300000Y-121500000D03*
D69*
X117900000Y-105800000D03*
X104000000Y-124000000D03*
X117400000Y-114300000D03*
D68*
X147600000Y-108500000D03*
X132150000Y-143900000D03*
X131100000Y-135700000D03*
D69*
X115000000Y-106500000D03*
D70*
X147800000Y-134200000D03*
D68*
X132450000Y-133900000D03*
D70*
X141300000Y-123200000D03*
D68*
X147600000Y-115400000D03*
X97100000Y-106300000D03*
D70*
X138850000Y-123300000D03*
D68*
X102900000Y-115600000D03*
X134650000Y-132450000D03*
X118100000Y-122200000D03*
D69*
X116300000Y-105800000D03*
D68*
X149549500Y-126400000D03*
X95300000Y-101200000D03*
D70*
X148250000Y-136200000D03*
D69*
X102000000Y-126000000D03*
D68*
X94900000Y-143600000D03*
D69*
X107000000Y-132000000D03*
X137600000Y-105800000D03*
X139200000Y-104000000D03*
X137600000Y-104000000D03*
D68*
X132749500Y-122827914D03*
D69*
X139200000Y-105800000D03*
X139200000Y-102200000D03*
D68*
X139300000Y-115700000D03*
D69*
X137600000Y-102200000D03*
X135800000Y-104000000D03*
X134200000Y-104000000D03*
D68*
X133000000Y-114100000D03*
X129417678Y-122687691D03*
D69*
X127000000Y-104000000D03*
X128600000Y-104000000D03*
D68*
X125000000Y-114100000D03*
X126902207Y-122725775D03*
X133401999Y-123297697D03*
X132120923Y-123536195D03*
X142000000Y-106600000D03*
X131236992Y-123536992D03*
X128623055Y-122599500D03*
X130300000Y-122700000D03*
X133600000Y-107600000D03*
X130374500Y-123516306D03*
X127726609Y-122673391D03*
X126000000Y-122700000D03*
X125158660Y-122741837D03*
X123400000Y-110750000D03*
X120600000Y-135100000D03*
X126700000Y-135700000D03*
X127300000Y-138100000D03*
X112700000Y-120624500D03*
X113200000Y-121500000D03*
X113183411Y-122316589D03*
X113100500Y-123200000D03*
X99625500Y-114400000D03*
X106000000Y-114400000D03*
X99200000Y-122300000D03*
X99500000Y-117000000D03*
X103900000Y-117000000D03*
X112624369Y-116793908D03*
X117700000Y-141500000D03*
X118305000Y-145905000D03*
X113400000Y-116600000D03*
X108775500Y-116175500D03*
X113600000Y-131200000D03*
X120672906Y-126785033D03*
X121525500Y-126850546D03*
X113500000Y-132400000D03*
X113200498Y-134900000D03*
X121575500Y-127649500D03*
X112000000Y-120200000D03*
D70*
X117149500Y-124750000D03*
D68*
X124200000Y-127874500D03*
X123400497Y-127874500D03*
X123797312Y-129124000D03*
X124458146Y-129574000D03*
X120600000Y-136350000D03*
X120600000Y-137635000D03*
X117700000Y-135100000D03*
X112407906Y-134795110D03*
X121600000Y-123400000D03*
X99550000Y-118350000D03*
X98250000Y-118350000D03*
M02*
