%TF.GenerationSoftware,KiCad,Pcbnew,(6.0.7)*%
%TF.CreationDate,2023-02-02T22:14:04+01:00*%
%TF.ProjectId,bldc,626c6463-2e6b-4696-9361-645f70636258,rev?*%
%TF.SameCoordinates,Original*%
%TF.FileFunction,Soldermask,Bot*%
%TF.FilePolarity,Negative*%
%FSLAX46Y46*%
G04 Gerber Fmt 4.6, Leading zero omitted, Abs format (unit mm)*
G04 Created by KiCad (PCBNEW (6.0.7)) date 2023-02-02 22:14:04*
%MOMM*%
%LPD*%
G01*
G04 APERTURE LIST*
G04 Aperture macros list*
%AMRoundRect*
0 Rectangle with rounded corners*
0 $1 Rounding radius*
0 $2 $3 $4 $5 $6 $7 $8 $9 X,Y pos of 4 corners*
0 Add a 4 corners polygon primitive as box body*
4,1,4,$2,$3,$4,$5,$6,$7,$8,$9,$2,$3,0*
0 Add four circle primitives for the rounded corners*
1,1,$1+$1,$2,$3*
1,1,$1+$1,$4,$5*
1,1,$1+$1,$6,$7*
1,1,$1+$1,$8,$9*
0 Add four rect primitives between the rounded corners*
20,1,$1+$1,$2,$3,$4,$5,0*
20,1,$1+$1,$4,$5,$6,$7,0*
20,1,$1+$1,$6,$7,$8,$9,0*
20,1,$1+$1,$8,$9,$2,$3,0*%
G04 Aperture macros list end*
%ADD10RoundRect,0.650000X2.600000X3.100000X-2.600000X3.100000X-2.600000X-3.100000X2.600000X-3.100000X0*%
%ADD11C,3.200000*%
%ADD12O,1.400000X1.800000*%
%ADD13R,1.000000X1.000000*%
%ADD14O,1.000000X1.000000*%
%ADD15O,1.000000X2.100000*%
%ADD16O,1.000000X1.600000*%
%ADD17C,0.650000*%
%ADD18RoundRect,0.250000X0.650000X1.550000X-0.650000X1.550000X-0.650000X-1.550000X0.650000X-1.550000X0*%
%ADD19O,1.800000X3.600000*%
%ADD20C,1.400000*%
%ADD21O,1.400000X1.400000*%
%ADD22RoundRect,0.250000X0.600000X0.725000X-0.600000X0.725000X-0.600000X-0.725000X0.600000X-0.725000X0*%
%ADD23O,1.700000X1.950000*%
%ADD24RoundRect,0.250000X-0.600000X-0.725000X0.600000X-0.725000X0.600000X0.725000X-0.600000X0.725000X0*%
%ADD25RoundRect,0.250000X0.450000X-0.350000X0.450000X0.350000X-0.450000X0.350000X-0.450000X-0.350000X0*%
%ADD26C,1.000000*%
%ADD27RoundRect,0.250000X-0.450000X0.350000X-0.450000X-0.350000X0.450000X-0.350000X0.450000X0.350000X0*%
%ADD28RoundRect,0.250000X0.475000X-0.337500X0.475000X0.337500X-0.475000X0.337500X-0.475000X-0.337500X0*%
%ADD29RoundRect,0.150000X0.150000X-0.725000X0.150000X0.725000X-0.150000X0.725000X-0.150000X-0.725000X0*%
%ADD30R,0.800000X1.900000*%
%ADD31C,0.600000*%
%ADD32C,1.200000*%
%ADD33C,0.800000*%
G04 APERTURE END LIST*
D10*
%TO.C,J15*%
X116400000Y-93500000D03*
%TD*%
D11*
%TO.C,H2*%
X93000000Y-149000000D03*
%TD*%
D12*
%TO.C,SW1*%
X137150000Y-138350000D03*
X139650000Y-138350000D03*
X142150000Y-138350000D03*
%TD*%
D13*
%TO.C,J7*%
X93435000Y-111970000D03*
D14*
X92165000Y-111970000D03*
X93435000Y-110700000D03*
X92165000Y-110700000D03*
X93435000Y-109430000D03*
X92165000Y-109430000D03*
%TD*%
D15*
%TO.C,J8*%
X115680000Y-145370000D03*
D16*
X124320000Y-149550000D03*
D15*
X124320000Y-145370000D03*
D16*
X115680000Y-149550000D03*
D17*
X122890000Y-145900000D03*
X117110000Y-145900000D03*
%TD*%
D10*
%TO.C,J13*%
X131400000Y-93500000D03*
%TD*%
D11*
%TO.C,H4*%
X147000000Y-149000000D03*
%TD*%
D10*
%TO.C,J14*%
X123900000Y-93500000D03*
%TD*%
D18*
%TO.C,J16*%
X108300000Y-97100000D03*
D19*
X104490000Y-97100000D03*
X100680000Y-97100000D03*
X96870000Y-97100000D03*
X93060000Y-97100000D03*
%TD*%
D20*
%TO.C,TH1*%
X116800000Y-122955000D03*
D21*
X116800000Y-121055000D03*
%TD*%
D11*
%TO.C,H1*%
X147000000Y-103000000D03*
%TD*%
%TO.C,H3*%
X93000000Y-103000000D03*
%TD*%
D12*
%TO.C,SW3*%
X106300000Y-139600000D03*
X103800000Y-139600000D03*
X101300000Y-139600000D03*
%TD*%
D22*
%TO.C,J6*%
X111650000Y-109250000D03*
D23*
X109150000Y-109250000D03*
X106650000Y-109250000D03*
X104150000Y-109250000D03*
X101650000Y-109250000D03*
X99150000Y-109250000D03*
%TD*%
D10*
%TO.C,J11*%
X146400000Y-93500000D03*
%TD*%
D24*
%TO.C,J10*%
X99050000Y-142950000D03*
D23*
X101550000Y-142950000D03*
X104050000Y-142950000D03*
X106550000Y-142950000D03*
X109050000Y-142950000D03*
X111550000Y-142950000D03*
%TD*%
D10*
%TO.C,J12*%
X138900000Y-93500000D03*
%TD*%
D24*
%TO.C,J9*%
X128400000Y-142950000D03*
D23*
X130900000Y-142950000D03*
X133400000Y-142950000D03*
X135900000Y-142950000D03*
X138400000Y-142950000D03*
X140900000Y-142950000D03*
%TD*%
D25*
%TO.C,R20*%
X124200000Y-137100000D03*
X124200000Y-135100000D03*
%TD*%
D26*
%TO.C,TP3*%
X133500000Y-116800000D03*
%TD*%
D25*
%TO.C,R16*%
X128550000Y-133400000D03*
X128550000Y-131400000D03*
%TD*%
%TO.C,R22*%
X130450000Y-137100000D03*
X130450000Y-135100000D03*
%TD*%
D26*
%TO.C,TP5*%
X125700000Y-116800000D03*
%TD*%
D27*
%TO.C,R17*%
X130450000Y-131400000D03*
X130450000Y-133400000D03*
%TD*%
D26*
%TO.C,TP1*%
X141400000Y-116800000D03*
%TD*%
D25*
%TO.C,R23*%
X126100000Y-133400000D03*
X126100000Y-131400000D03*
%TD*%
D27*
%TO.C,R19*%
X126100000Y-135100000D03*
X126100000Y-137100000D03*
%TD*%
%TO.C,R24*%
X124200000Y-131400000D03*
X124200000Y-133400000D03*
%TD*%
D28*
%TO.C,C34*%
X119700000Y-134137500D03*
X119700000Y-132062500D03*
%TD*%
D26*
%TO.C,TP6*%
X124300000Y-111800000D03*
%TD*%
%TO.C,TP4*%
X132200000Y-111800000D03*
%TD*%
D29*
%TO.C,U4*%
X121905000Y-130075000D03*
X120635000Y-130075000D03*
X119365000Y-130075000D03*
X118095000Y-130075000D03*
X118095000Y-124925000D03*
X119365000Y-124925000D03*
X120635000Y-124925000D03*
X121905000Y-124925000D03*
%TD*%
D30*
%TO.C,D6*%
X138700000Y-145100000D03*
X140600000Y-145100000D03*
X139650000Y-148100000D03*
%TD*%
D27*
%TO.C,R21*%
X128550000Y-135100000D03*
X128550000Y-137100000D03*
%TD*%
D26*
%TO.C,TP2*%
X140100000Y-111800000D03*
%TD*%
D31*
X141550000Y-111800000D03*
X141050000Y-112500000D03*
X145500000Y-106700000D03*
X145500000Y-107500000D03*
X144600000Y-108500000D03*
X145500000Y-108500000D03*
X145500000Y-109400000D03*
X144600000Y-110800000D03*
X145500000Y-110500000D03*
X145500000Y-111500000D03*
X145500000Y-112400000D03*
X143100000Y-115000000D03*
X143900000Y-114600000D03*
X143900000Y-113500000D03*
X144500000Y-113100000D03*
X145500000Y-113400000D03*
X145500000Y-114700000D03*
X144600000Y-115300000D03*
X143800000Y-115700000D03*
X143900000Y-116800000D03*
X145500000Y-116200000D03*
X145500000Y-117600000D03*
X148500000Y-119300000D03*
X146900000Y-119500000D03*
X148500000Y-118100000D03*
X146200000Y-118600000D03*
X145800000Y-119500000D03*
X142700000Y-119500000D03*
X143800000Y-119500000D03*
X143900000Y-118500000D03*
X143500000Y-117800000D03*
X142400000Y-117800000D03*
X141600000Y-118400000D03*
X141300000Y-119500000D03*
X139400000Y-119500000D03*
X139200000Y-118400000D03*
X130700000Y-117700000D03*
X128000000Y-117400000D03*
X128000000Y-116400000D03*
X128000000Y-115400000D03*
X128000000Y-114300000D03*
X128000000Y-113200000D03*
X127300000Y-114900000D03*
X128800000Y-115000000D03*
X132000000Y-117700000D03*
X129500000Y-118900000D03*
X129500000Y-117700000D03*
X127100000Y-118900000D03*
X127100000Y-117700000D03*
X122300000Y-117400000D03*
X120900000Y-115000000D03*
X121000000Y-117400000D03*
X120200000Y-118800000D03*
X119300000Y-120100000D03*
X120100000Y-120100000D03*
X119700000Y-117800000D03*
X118800000Y-117700000D03*
X119700000Y-115400000D03*
X118800000Y-115400000D03*
X119700000Y-113200000D03*
X118800000Y-113200000D03*
X119700000Y-110800000D03*
X118800000Y-110800000D03*
X119700000Y-108500000D03*
X118800000Y-108500000D03*
X133000000Y-106750000D03*
X132100000Y-106750000D03*
X131050000Y-106750000D03*
X129400000Y-108600000D03*
X129450000Y-110700000D03*
X129450000Y-109900000D03*
X128650000Y-109450000D03*
X132950000Y-114850000D03*
X130650000Y-114950000D03*
X132250000Y-114950000D03*
X131450000Y-116250000D03*
X131400000Y-115450000D03*
X131400000Y-114550000D03*
X131400000Y-113750000D03*
X130250000Y-112800000D03*
X129450000Y-111950000D03*
X130250000Y-111800000D03*
X131150000Y-111850000D03*
X131650000Y-112950000D03*
X133050000Y-112850000D03*
X133800000Y-112800000D03*
X134550000Y-110800000D03*
X134550000Y-109950000D03*
X135200000Y-109450000D03*
X134550000Y-109000000D03*
X134350000Y-107100000D03*
X135150000Y-107100000D03*
X138450000Y-114900000D03*
X139250000Y-114950000D03*
X140050000Y-114950000D03*
X140800000Y-114900000D03*
X140850000Y-114150000D03*
X139250000Y-114200000D03*
X142450000Y-110750000D03*
X142450000Y-108150000D03*
X143300000Y-109450000D03*
X142500000Y-109500000D03*
X142700000Y-111900000D03*
X141800000Y-112900000D03*
X140850000Y-113400000D03*
X140100000Y-113050000D03*
X139250000Y-113350000D03*
X139000000Y-112650000D03*
X138000000Y-112850000D03*
X137350000Y-110650000D03*
X137350000Y-109750000D03*
X136550000Y-109450000D03*
X137350000Y-108900000D03*
X137350000Y-107850000D03*
X137550000Y-106950000D03*
X136700000Y-106900000D03*
X140850000Y-104900000D03*
X141650000Y-104950000D03*
X142500000Y-104900000D03*
X143300000Y-104950000D03*
X143100000Y-106700000D03*
X140550000Y-106800000D03*
X139250000Y-108600000D03*
X140850000Y-108750000D03*
X139300000Y-110100000D03*
X139300000Y-110800000D03*
X138800000Y-109450000D03*
X139650000Y-109450000D03*
X140550000Y-109450000D03*
X139300000Y-107550000D03*
X140100000Y-107550000D03*
X140900000Y-107550000D03*
X141700000Y-107550000D03*
X126600000Y-108400000D03*
X123500000Y-109100000D03*
X121600000Y-107600000D03*
X126600000Y-109200000D03*
X126600000Y-107600000D03*
X121600000Y-109200000D03*
X124100000Y-107600000D03*
X125100000Y-108300000D03*
X121600000Y-108400000D03*
X125700000Y-107600000D03*
X122500000Y-107600000D03*
X125100000Y-109100000D03*
X123500000Y-108300000D03*
X124900000Y-107600000D03*
X123300000Y-107600000D03*
X122500000Y-109450000D03*
X121600000Y-110000000D03*
X120900000Y-109450000D03*
X121600000Y-110800000D03*
X121600000Y-111600000D03*
X122500000Y-111600000D03*
X122500000Y-112400000D03*
X122500000Y-113200000D03*
X122500000Y-114950000D03*
X124900000Y-113200000D03*
X125700000Y-113200000D03*
X125700000Y-112400000D03*
X125700000Y-111600000D03*
X126600000Y-111600000D03*
X126600000Y-110800000D03*
X126600000Y-110000000D03*
X127300000Y-109450000D03*
X124100000Y-109450000D03*
X123500000Y-109850000D03*
X130400000Y-107600000D03*
X131200000Y-107600000D03*
X132000000Y-107600000D03*
X132800000Y-107600000D03*
X132900000Y-108300000D03*
X132900000Y-109100000D03*
X132200000Y-109450000D03*
X131400000Y-109100000D03*
X131400000Y-108300000D03*
X130700000Y-109450000D03*
X131400000Y-109900000D03*
X131400000Y-110750000D03*
X130100000Y-106800000D03*
X132500000Y-104900000D03*
X131700000Y-104900000D03*
X130900000Y-104900000D03*
X130100000Y-104900000D03*
X122900000Y-106750000D03*
X123800000Y-106750000D03*
X124600000Y-106750000D03*
D32*
X135800000Y-105800000D03*
X134200000Y-105800000D03*
X135800000Y-102200000D03*
X134200000Y-102200000D03*
X127000000Y-105800000D03*
X128600000Y-105800000D03*
X128600000Y-102200000D03*
X127000000Y-102200000D03*
D31*
X125500000Y-104900000D03*
X124600000Y-104900000D03*
X123800000Y-104900000D03*
X122900000Y-104900000D03*
X125550000Y-106750000D03*
D32*
X138100000Y-119500000D03*
X119700000Y-104000000D03*
X121300000Y-102200000D03*
X121300000Y-105800000D03*
X119700000Y-102200000D03*
X121300000Y-104000000D03*
X135000000Y-125200000D03*
D31*
X125950000Y-138750000D03*
X140300000Y-136400000D03*
X113200000Y-106400000D03*
D32*
X112000000Y-149000000D03*
D33*
X136400000Y-129850000D03*
D32*
X102000000Y-135000000D03*
D31*
X96500000Y-109200000D03*
D32*
X101000000Y-121000000D03*
D31*
X105400000Y-112200000D03*
D32*
X146700000Y-112000000D03*
X111000000Y-127000000D03*
D31*
X137250000Y-135350000D03*
D32*
X118000000Y-150000000D03*
D31*
X149549500Y-127400000D03*
X131400000Y-139350000D03*
D32*
X107000000Y-126000000D03*
X147300000Y-120600000D03*
X97000000Y-126000000D03*
D31*
X122850000Y-126600000D03*
X122722812Y-130043287D03*
D32*
X102000000Y-149000000D03*
D31*
X121800000Y-140650000D03*
D33*
X146800000Y-123400000D03*
D31*
X149549500Y-132500000D03*
D32*
X104000000Y-133000000D03*
D31*
X149549500Y-131100000D03*
D32*
X109000000Y-125000000D03*
D31*
X146200000Y-121500000D03*
X99550000Y-115900000D03*
D32*
X102000000Y-123000000D03*
D31*
X125500000Y-124500000D03*
D32*
X117300000Y-118900000D03*
X97000000Y-123000000D03*
D31*
X149549500Y-134000000D03*
D32*
X117400000Y-107400000D03*
D31*
X139100000Y-120400000D03*
X110000000Y-100900000D03*
D32*
X111000000Y-124000000D03*
D31*
X136400000Y-131400000D03*
D32*
X136000000Y-128000000D03*
D31*
X114969500Y-141200000D03*
X130300000Y-138700000D03*
X107500000Y-118000000D03*
X90800000Y-112800000D03*
X97400000Y-110300000D03*
X108100000Y-110700000D03*
X105600000Y-100700000D03*
D32*
X127000000Y-120500000D03*
D31*
X147600000Y-113100000D03*
X110700000Y-117800000D03*
D33*
X145600000Y-130750000D03*
D31*
X90900000Y-100500000D03*
X112100000Y-117900000D03*
D32*
X131000000Y-151000000D03*
X137000000Y-151000000D03*
X108000000Y-149000000D03*
D33*
X137700000Y-124100000D03*
D31*
X98100000Y-114300000D03*
D32*
X146700000Y-114200000D03*
X112000000Y-114500000D03*
D31*
X129700000Y-120300000D03*
D32*
X122000000Y-150000000D03*
D31*
X117300000Y-131800000D03*
D32*
X117400000Y-109700000D03*
X97000000Y-132000000D03*
X136000000Y-141000000D03*
D31*
X149600000Y-128300000D03*
D33*
X143350000Y-123400000D03*
D32*
X114500000Y-115000000D03*
X117300000Y-116600000D03*
D31*
X136700000Y-123700000D03*
X141600000Y-121500000D03*
D32*
X149000000Y-144000000D03*
D31*
X124050000Y-142350000D03*
D32*
X146700000Y-109700000D03*
D31*
X136600000Y-120700000D03*
D32*
X107000000Y-123000000D03*
D31*
X96400000Y-115800000D03*
D33*
X147200000Y-128512500D03*
D32*
X123500000Y-124000000D03*
X101000000Y-129000000D03*
X146700000Y-116500000D03*
D31*
X149549500Y-135300000D03*
X119875500Y-141700000D03*
X136800000Y-136100000D03*
X147600000Y-110800000D03*
X115900000Y-130900000D03*
D33*
X148550000Y-133050000D03*
D32*
X142700000Y-120700000D03*
D31*
X92100000Y-106300000D03*
X116800000Y-130900000D03*
D32*
X117400000Y-112000000D03*
X116300000Y-102200000D03*
X115000000Y-111000000D03*
D31*
X135250000Y-134100000D03*
X143900000Y-121500000D03*
X96300000Y-139400000D03*
D32*
X115000000Y-108500000D03*
D31*
X131300000Y-124700000D03*
D32*
X102000000Y-132000000D03*
D31*
X109700000Y-105500000D03*
D32*
X111000000Y-133000000D03*
X111000000Y-130000000D03*
X105000000Y-121000000D03*
X108000000Y-129000000D03*
X128500000Y-120500000D03*
D31*
X135800000Y-120700000D03*
X94300000Y-108500000D03*
D32*
X98000000Y-147000000D03*
X116300000Y-104000000D03*
D31*
X105600000Y-105200000D03*
D32*
X146700000Y-107400000D03*
D31*
X111000000Y-111600000D03*
X96900000Y-143500000D03*
X124350000Y-141050000D03*
X100300000Y-138600000D03*
D32*
X142000000Y-151000000D03*
D31*
X113100000Y-102300000D03*
X119200000Y-122800000D03*
D33*
X147250000Y-133100000D03*
D31*
X102000000Y-100800000D03*
D32*
X97000000Y-135000000D03*
X145000000Y-120600000D03*
D31*
X119800000Y-139100000D03*
D32*
X117900000Y-104000000D03*
D31*
X136600000Y-125400000D03*
X149549500Y-129600000D03*
D32*
X117900000Y-102200000D03*
X140400000Y-120600000D03*
X121400000Y-120600000D03*
D31*
X139300000Y-121500000D03*
D32*
X117900000Y-105800000D03*
X104000000Y-124000000D03*
X117400000Y-114300000D03*
D31*
X147600000Y-108500000D03*
X132150000Y-143900000D03*
X131100000Y-135700000D03*
D32*
X115000000Y-106500000D03*
D33*
X147800000Y-134200000D03*
D31*
X132450000Y-133900000D03*
D33*
X141300000Y-123200000D03*
D31*
X147600000Y-115400000D03*
X97100000Y-106300000D03*
D33*
X138850000Y-123300000D03*
D31*
X102900000Y-115600000D03*
X134650000Y-132450000D03*
X118100000Y-122200000D03*
D32*
X116300000Y-105800000D03*
D31*
X149549500Y-126400000D03*
X95300000Y-101200000D03*
D33*
X148250000Y-136200000D03*
D32*
X102000000Y-126000000D03*
D31*
X94900000Y-143600000D03*
D32*
X107000000Y-132000000D03*
X137600000Y-105800000D03*
X139200000Y-104000000D03*
X137600000Y-104000000D03*
D31*
X132749500Y-122827914D03*
D32*
X139200000Y-105800000D03*
X139200000Y-102200000D03*
D31*
X139300000Y-115700000D03*
D32*
X137600000Y-102200000D03*
X135800000Y-104000000D03*
X134200000Y-104000000D03*
D31*
X133000000Y-114100000D03*
X129417678Y-122687691D03*
D32*
X127000000Y-104000000D03*
X128600000Y-104000000D03*
D31*
X125000000Y-114100000D03*
X126902207Y-122725775D03*
X133401999Y-123297697D03*
X132120923Y-123536195D03*
X142000000Y-106600000D03*
X131236992Y-123536992D03*
X128623055Y-122599500D03*
X130300000Y-122700000D03*
X133600000Y-107600000D03*
X130374500Y-123516306D03*
X127726609Y-122673391D03*
X126000000Y-122700000D03*
X125158660Y-122741837D03*
X123400000Y-110750000D03*
X120600000Y-135100000D03*
X126700000Y-135700000D03*
X127300000Y-138100000D03*
X112700000Y-120624500D03*
X113200000Y-121500000D03*
X113183411Y-122316589D03*
X113100500Y-123200000D03*
X99625500Y-114400000D03*
X106000000Y-114400000D03*
X99200000Y-122300000D03*
X99500000Y-117000000D03*
X103900000Y-117000000D03*
X112624369Y-116793908D03*
X117700000Y-141500000D03*
X118305000Y-145905000D03*
X113400000Y-116600000D03*
X108775500Y-116175500D03*
X113600000Y-131200000D03*
X120672906Y-126785033D03*
X121525500Y-126850546D03*
X113500000Y-132400000D03*
X113200498Y-134900000D03*
X121575500Y-127649500D03*
X112000000Y-120200000D03*
D33*
X117149500Y-124750000D03*
D31*
X124200000Y-127874500D03*
X123400497Y-127874500D03*
X123797312Y-129124000D03*
X124458146Y-129574000D03*
X120600000Y-136350000D03*
X120600000Y-137635000D03*
X117700000Y-135100000D03*
X112407906Y-134795110D03*
X121600000Y-123400000D03*
X99550000Y-118350000D03*
X98250000Y-118350000D03*
M02*
