%TF.GenerationSoftware,KiCad,Pcbnew,(6.0.7)*%
%TF.CreationDate,2023-02-02T22:14:04+01:00*%
%TF.ProjectId,bldc,626c6463-2e6b-4696-9361-645f70636258,rev?*%
%TF.SameCoordinates,Original*%
%TF.FileFunction,Legend,Bot*%
%TF.FilePolarity,Positive*%
%FSLAX46Y46*%
G04 Gerber Fmt 4.6, Leading zero omitted, Abs format (unit mm)*
G04 Created by KiCad (PCBNEW (6.0.7)) date 2023-02-02 22:14:04*
%MOMM*%
%LPD*%
G01*
G04 APERTURE LIST*
G04 Aperture macros list*
%AMRoundRect*
0 Rectangle with rounded corners*
0 $1 Rounding radius*
0 $2 $3 $4 $5 $6 $7 $8 $9 X,Y pos of 4 corners*
0 Add a 4 corners polygon primitive as box body*
4,1,4,$2,$3,$4,$5,$6,$7,$8,$9,$2,$3,0*
0 Add four circle primitives for the rounded corners*
1,1,$1+$1,$2,$3*
1,1,$1+$1,$4,$5*
1,1,$1+$1,$6,$7*
1,1,$1+$1,$8,$9*
0 Add four rect primitives between the rounded corners*
20,1,$1+$1,$2,$3,$4,$5,0*
20,1,$1+$1,$4,$5,$6,$7,0*
20,1,$1+$1,$6,$7,$8,$9,0*
20,1,$1+$1,$8,$9,$2,$3,0*%
G04 Aperture macros list end*
%ADD10C,0.300000*%
%ADD11C,0.200000*%
%ADD12C,0.150000*%
%ADD13C,0.120000*%
%ADD14RoundRect,0.650000X2.600000X3.100000X-2.600000X3.100000X-2.600000X-3.100000X2.600000X-3.100000X0*%
%ADD15C,3.200000*%
%ADD16O,1.400000X1.800000*%
%ADD17R,1.000000X1.000000*%
%ADD18O,1.000000X1.000000*%
%ADD19O,1.000000X2.100000*%
%ADD20O,1.000000X1.600000*%
%ADD21C,0.650000*%
%ADD22RoundRect,0.250000X0.650000X1.550000X-0.650000X1.550000X-0.650000X-1.550000X0.650000X-1.550000X0*%
%ADD23O,1.800000X3.600000*%
%ADD24C,1.400000*%
%ADD25O,1.400000X1.400000*%
%ADD26RoundRect,0.250000X0.600000X0.725000X-0.600000X0.725000X-0.600000X-0.725000X0.600000X-0.725000X0*%
%ADD27O,1.700000X1.950000*%
%ADD28RoundRect,0.250000X-0.600000X-0.725000X0.600000X-0.725000X0.600000X0.725000X-0.600000X0.725000X0*%
%ADD29RoundRect,0.250000X0.450000X-0.350000X0.450000X0.350000X-0.450000X0.350000X-0.450000X-0.350000X0*%
%ADD30C,1.000000*%
%ADD31RoundRect,0.250000X-0.450000X0.350000X-0.450000X-0.350000X0.450000X-0.350000X0.450000X0.350000X0*%
%ADD32RoundRect,0.250000X0.475000X-0.337500X0.475000X0.337500X-0.475000X0.337500X-0.475000X-0.337500X0*%
%ADD33RoundRect,0.150000X0.150000X-0.725000X0.150000X0.725000X-0.150000X0.725000X-0.150000X-0.725000X0*%
%ADD34R,0.800000X1.900000*%
%ADD35C,0.600000*%
%ADD36C,1.200000*%
%ADD37C,0.800000*%
G04 APERTURE END LIST*
D10*
X105314285Y-90352142D02*
X103514285Y-90352142D01*
X104800000Y-90852142D01*
X103514285Y-91352142D01*
X105314285Y-91352142D01*
X105314285Y-92066428D02*
X103514285Y-92066428D01*
X105228571Y-92709285D02*
X105314285Y-92923571D01*
X105314285Y-93280714D01*
X105228571Y-93423571D01*
X105142857Y-93495000D01*
X104971428Y-93566428D01*
X104800000Y-93566428D01*
X104628571Y-93495000D01*
X104542857Y-93423571D01*
X104457142Y-93280714D01*
X104371428Y-92995000D01*
X104285714Y-92852142D01*
X104200000Y-92780714D01*
X104028571Y-92709285D01*
X103857142Y-92709285D01*
X103685714Y-92780714D01*
X103600000Y-92852142D01*
X103514285Y-92995000D01*
X103514285Y-93352142D01*
X103600000Y-93566428D01*
X103514285Y-94495000D02*
X103514285Y-94780714D01*
X103600000Y-94923571D01*
X103771428Y-95066428D01*
X104114285Y-95137857D01*
X104714285Y-95137857D01*
X105057142Y-95066428D01*
X105228571Y-94923571D01*
X105314285Y-94780714D01*
X105314285Y-94495000D01*
X105228571Y-94352142D01*
X105057142Y-94209285D01*
X104714285Y-94137857D01*
X104114285Y-94137857D01*
X103771428Y-94209285D01*
X103600000Y-94352142D01*
X103514285Y-94495000D01*
X93742857Y-91009285D02*
X93828571Y-90937857D01*
X93914285Y-90723571D01*
X93914285Y-90580714D01*
X93828571Y-90366428D01*
X93657142Y-90223571D01*
X93485714Y-90152142D01*
X93142857Y-90080714D01*
X92885714Y-90080714D01*
X92542857Y-90152142D01*
X92371428Y-90223571D01*
X92200000Y-90366428D01*
X92114285Y-90580714D01*
X92114285Y-90723571D01*
X92200000Y-90937857D01*
X92285714Y-91009285D01*
X93828571Y-91580714D02*
X93914285Y-91795000D01*
X93914285Y-92152142D01*
X93828571Y-92295000D01*
X93742857Y-92366428D01*
X93571428Y-92437857D01*
X93400000Y-92437857D01*
X93228571Y-92366428D01*
X93142857Y-92295000D01*
X93057142Y-92152142D01*
X92971428Y-91866428D01*
X92885714Y-91723571D01*
X92800000Y-91652142D01*
X92628571Y-91580714D01*
X92457142Y-91580714D01*
X92285714Y-91652142D01*
X92200000Y-91723571D01*
X92114285Y-91866428D01*
X92114285Y-92223571D01*
X92200000Y-92437857D01*
X138771428Y-98252142D02*
X138857142Y-98466428D01*
X138942857Y-98537857D01*
X139114285Y-98609285D01*
X139371428Y-98609285D01*
X139542857Y-98537857D01*
X139628571Y-98466428D01*
X139714285Y-98323571D01*
X139714285Y-97752142D01*
X137914285Y-97752142D01*
X137914285Y-98252142D01*
X138000000Y-98395000D01*
X138085714Y-98466428D01*
X138257142Y-98537857D01*
X138428571Y-98537857D01*
X138600000Y-98466428D01*
X138685714Y-98395000D01*
X138771428Y-98252142D01*
X138771428Y-97752142D01*
X102342857Y-111609285D02*
X102428571Y-111537857D01*
X102514285Y-111323571D01*
X102514285Y-111180714D01*
X102428571Y-110966428D01*
X102257142Y-110823571D01*
X102085714Y-110752142D01*
X101742857Y-110680714D01*
X101485714Y-110680714D01*
X101142857Y-110752142D01*
X100971428Y-110823571D01*
X100800000Y-110966428D01*
X100714285Y-111180714D01*
X100714285Y-111323571D01*
X100800000Y-111537857D01*
X100885714Y-111609285D01*
X102428571Y-112180714D02*
X102514285Y-112395000D01*
X102514285Y-112752142D01*
X102428571Y-112895000D01*
X102342857Y-112966428D01*
X102171428Y-113037857D01*
X102000000Y-113037857D01*
X101828571Y-112966428D01*
X101742857Y-112895000D01*
X101657142Y-112752142D01*
X101571428Y-112466428D01*
X101485714Y-112323571D01*
X101400000Y-112252142D01*
X101228571Y-112180714D01*
X101057142Y-112180714D01*
X100885714Y-112252142D01*
X100800000Y-112323571D01*
X100714285Y-112466428D01*
X100714285Y-112823571D01*
X100800000Y-113037857D01*
X139042857Y-145302482D02*
X139128571Y-145231054D01*
X139214285Y-145016768D01*
X139214285Y-144873911D01*
X139128571Y-144659625D01*
X138957142Y-144516768D01*
X138785714Y-144445339D01*
X138442857Y-144373911D01*
X138185714Y-144373911D01*
X137842857Y-144445339D01*
X137671428Y-144516768D01*
X137500000Y-144659625D01*
X137414285Y-144873911D01*
X137414285Y-145016768D01*
X137500000Y-145231054D01*
X137585714Y-145302482D01*
X138700000Y-145873911D02*
X138700000Y-146588197D01*
X139214285Y-145731054D02*
X137414285Y-146231054D01*
X139214285Y-146731054D01*
X139214285Y-147231054D02*
X137414285Y-147231054D01*
X139214285Y-148088197D01*
X137414285Y-148088197D01*
X139214285Y-149516768D02*
X139214285Y-148802482D01*
X137414285Y-148802482D01*
X136628571Y-144367015D02*
X136714285Y-144581301D01*
X136714285Y-144938443D01*
X136628571Y-145081301D01*
X136542857Y-145152729D01*
X136371428Y-145224158D01*
X136200000Y-145224158D01*
X136028571Y-145152729D01*
X135942857Y-145081301D01*
X135857142Y-144938443D01*
X135771428Y-144652729D01*
X135685714Y-144509872D01*
X135600000Y-144438443D01*
X135428571Y-144367015D01*
X135257142Y-144367015D01*
X135085714Y-144438443D01*
X135000000Y-144509872D01*
X134914285Y-144652729D01*
X134914285Y-145009872D01*
X135000000Y-145224158D01*
X136714285Y-145867015D02*
X134914285Y-145867015D01*
X134914285Y-146224158D01*
X135000000Y-146438443D01*
X135171428Y-146581301D01*
X135342857Y-146652729D01*
X135685714Y-146724158D01*
X135942857Y-146724158D01*
X136285714Y-146652729D01*
X136457142Y-146581301D01*
X136628571Y-146438443D01*
X136714285Y-146224158D01*
X136714285Y-145867015D01*
X136200000Y-147295586D02*
X136200000Y-148009872D01*
X136714285Y-147152729D02*
X134914285Y-147652729D01*
X136714285Y-148152729D01*
X109814285Y-144417754D02*
X108014285Y-144417754D01*
X108014285Y-145417754D02*
X108014285Y-145703469D01*
X108100000Y-145846326D01*
X108271428Y-145989183D01*
X108614285Y-146060612D01*
X109214285Y-146060612D01*
X109557142Y-145989183D01*
X109728571Y-145846326D01*
X109814285Y-145703469D01*
X109814285Y-145417754D01*
X109728571Y-145274897D01*
X109557142Y-145132040D01*
X109214285Y-145060612D01*
X108614285Y-145060612D01*
X108271428Y-145132040D01*
X108100000Y-145274897D01*
X108014285Y-145417754D01*
X108185714Y-146632040D02*
X108100000Y-146703469D01*
X108014285Y-146846326D01*
X108014285Y-147203469D01*
X108100000Y-147346326D01*
X108185714Y-147417754D01*
X108357142Y-147489183D01*
X108528571Y-147489183D01*
X108785714Y-147417754D01*
X109814285Y-146560612D01*
X109814285Y-147489183D01*
X114650000Y-98737857D02*
X114564285Y-98595000D01*
X114564285Y-98380714D01*
X114650000Y-98166428D01*
X114821428Y-98023571D01*
X114992857Y-97952142D01*
X115335714Y-97880714D01*
X115592857Y-97880714D01*
X115935714Y-97952142D01*
X116107142Y-98023571D01*
X116278571Y-98166428D01*
X116364285Y-98380714D01*
X116364285Y-98523571D01*
X116278571Y-98737857D01*
X116192857Y-98809285D01*
X115592857Y-98809285D01*
X115592857Y-98523571D01*
X116364285Y-99452142D02*
X114564285Y-99452142D01*
X116364285Y-100309285D01*
X114564285Y-100309285D01*
X116364285Y-101023571D02*
X114564285Y-101023571D01*
X114564285Y-101380714D01*
X114650000Y-101595000D01*
X114821428Y-101737857D01*
X114992857Y-101809285D01*
X115335714Y-101880714D01*
X115592857Y-101880714D01*
X115935714Y-101809285D01*
X116107142Y-101737857D01*
X116278571Y-101595000D01*
X116364285Y-101380714D01*
X116364285Y-101023571D01*
D11*
X135657142Y-139078571D02*
X135657142Y-137578571D01*
X135257142Y-138650000D01*
X134857142Y-137578571D01*
X134857142Y-139078571D01*
X134057142Y-137578571D02*
X133828571Y-137578571D01*
X133714285Y-137650000D01*
X133600000Y-137792857D01*
X133542857Y-138078571D01*
X133542857Y-138578571D01*
X133600000Y-138864285D01*
X133714285Y-139007142D01*
X133828571Y-139078571D01*
X134057142Y-139078571D01*
X134171428Y-139007142D01*
X134285714Y-138864285D01*
X134342857Y-138578571D01*
X134342857Y-138078571D01*
X134285714Y-137792857D01*
X134171428Y-137650000D01*
X134057142Y-137578571D01*
X133028571Y-139078571D02*
X133028571Y-137578571D01*
X132742857Y-137578571D01*
X132571428Y-137650000D01*
X132457142Y-137792857D01*
X132400000Y-137935714D01*
X132342857Y-138221428D01*
X132342857Y-138435714D01*
X132400000Y-138721428D01*
X132457142Y-138864285D01*
X132571428Y-139007142D01*
X132742857Y-139078571D01*
X133028571Y-139078571D01*
X131828571Y-138292857D02*
X131428571Y-138292857D01*
X131257142Y-139078571D02*
X131828571Y-139078571D01*
X131828571Y-137578571D01*
X131257142Y-137578571D01*
X130742857Y-138507142D02*
X129828571Y-138507142D01*
X129257142Y-138507142D02*
X128342857Y-138507142D01*
X128800000Y-139078571D02*
X128800000Y-137935714D01*
X134200000Y-129250000D02*
X134314285Y-129178571D01*
X134485714Y-129178571D01*
X134657142Y-129250000D01*
X134771428Y-129392857D01*
X134828571Y-129535714D01*
X134885714Y-129821428D01*
X134885714Y-130035714D01*
X134828571Y-130321428D01*
X134771428Y-130464285D01*
X134657142Y-130607142D01*
X134485714Y-130678571D01*
X134371428Y-130678571D01*
X134200000Y-130607142D01*
X134142857Y-130535714D01*
X134142857Y-130035714D01*
X134371428Y-130035714D01*
X133685714Y-130250000D02*
X133114285Y-130250000D01*
X133800000Y-130678571D02*
X133400000Y-129178571D01*
X133000000Y-130678571D01*
X132600000Y-130678571D02*
X132600000Y-129178571D01*
X132028571Y-130678571D02*
X132028571Y-129178571D01*
X131342857Y-130678571D01*
X131342857Y-129178571D01*
X130771428Y-130107142D02*
X129857142Y-130107142D01*
X129285714Y-130107142D02*
X128371428Y-130107142D01*
X128828571Y-130678571D02*
X128828571Y-129535714D01*
X126328571Y-138507142D02*
X125414285Y-138507142D01*
X125871428Y-139078571D02*
X125871428Y-137935714D01*
X124842857Y-138507142D02*
X123928571Y-138507142D01*
X123357142Y-139078571D02*
X123357142Y-137578571D01*
X122785714Y-139078571D02*
X122785714Y-137578571D01*
X122500000Y-137578571D01*
X122328571Y-137650000D01*
X122214285Y-137792857D01*
X122157142Y-137935714D01*
X122100000Y-138221428D01*
X122100000Y-138435714D01*
X122157142Y-138721428D01*
X122214285Y-138864285D01*
X122328571Y-139007142D01*
X122500000Y-139078571D01*
X122785714Y-139078571D01*
X120900000Y-139078571D02*
X121300000Y-138364285D01*
X121585714Y-139078571D02*
X121585714Y-137578571D01*
X121128571Y-137578571D01*
X121014285Y-137650000D01*
X120957142Y-137721428D01*
X120900000Y-137864285D01*
X120900000Y-138078571D01*
X120957142Y-138221428D01*
X121014285Y-138292857D01*
X121128571Y-138364285D01*
X121585714Y-138364285D01*
X120385714Y-139078571D02*
X120385714Y-137578571D01*
X119985714Y-137578571D02*
X119585714Y-139078571D01*
X119185714Y-137578571D01*
X118785714Y-138292857D02*
X118385714Y-138292857D01*
X118214285Y-139078571D02*
X118785714Y-139078571D01*
X118785714Y-137578571D01*
X118214285Y-137578571D01*
D10*
X101214285Y-145039924D02*
X102414285Y-145039924D01*
X100528571Y-144682781D02*
X101814285Y-144325638D01*
X101814285Y-145254209D01*
X101385714Y-146039924D02*
X101300000Y-145897066D01*
X101214285Y-145825638D01*
X101042857Y-145754209D01*
X100957142Y-145754209D01*
X100785714Y-145825638D01*
X100700000Y-145897066D01*
X100614285Y-146039924D01*
X100614285Y-146325638D01*
X100700000Y-146468495D01*
X100785714Y-146539924D01*
X100957142Y-146611352D01*
X101042857Y-146611352D01*
X101214285Y-146539924D01*
X101300000Y-146468495D01*
X101385714Y-146325638D01*
X101385714Y-146039924D01*
X101471428Y-145897066D01*
X101557142Y-145825638D01*
X101728571Y-145754209D01*
X102071428Y-145754209D01*
X102242857Y-145825638D01*
X102328571Y-145897066D01*
X102414285Y-146039924D01*
X102414285Y-146325638D01*
X102328571Y-146468495D01*
X102242857Y-146539924D01*
X102071428Y-146611352D01*
X101728571Y-146611352D01*
X101557142Y-146539924D01*
X101471428Y-146468495D01*
X101385714Y-146325638D01*
X100614285Y-147968495D02*
X100614285Y-147254209D01*
X101471428Y-147182781D01*
X101385714Y-147254209D01*
X101300000Y-147397066D01*
X101300000Y-147754209D01*
X101385714Y-147897066D01*
X101471428Y-147968495D01*
X101642857Y-148039924D01*
X102071428Y-148039924D01*
X102242857Y-147968495D01*
X102328571Y-147897066D01*
X102414285Y-147754209D01*
X102414285Y-147397066D01*
X102328571Y-147254209D01*
X102242857Y-147182781D01*
X101900000Y-148611352D02*
X101900000Y-149325638D01*
X102414285Y-148468495D02*
X100614285Y-148968495D01*
X102414285Y-149468495D01*
X141542857Y-145309285D02*
X141628571Y-145237857D01*
X141714285Y-145023571D01*
X141714285Y-144880714D01*
X141628571Y-144666428D01*
X141457142Y-144523571D01*
X141285714Y-144452142D01*
X140942857Y-144380714D01*
X140685714Y-144380714D01*
X140342857Y-144452142D01*
X140171428Y-144523571D01*
X140000000Y-144666428D01*
X139914285Y-144880714D01*
X139914285Y-145023571D01*
X140000000Y-145237857D01*
X140085714Y-145309285D01*
X141200000Y-145880714D02*
X141200000Y-146595000D01*
X141714285Y-145737857D02*
X139914285Y-146237857D01*
X141714285Y-146737857D01*
X141714285Y-147237857D02*
X139914285Y-147237857D01*
X141714285Y-148095000D01*
X139914285Y-148095000D01*
X141714285Y-148809285D02*
X139914285Y-148809285D01*
X140771428Y-148809285D02*
X140771428Y-149666428D01*
X141714285Y-149666428D02*
X139914285Y-149666428D01*
X110700000Y-145203470D02*
X110614285Y-145060613D01*
X110614285Y-144846327D01*
X110700000Y-144632041D01*
X110871428Y-144489184D01*
X111042857Y-144417755D01*
X111385714Y-144346327D01*
X111642857Y-144346327D01*
X111985714Y-144417755D01*
X112157142Y-144489184D01*
X112328571Y-144632041D01*
X112414285Y-144846327D01*
X112414285Y-144989184D01*
X112328571Y-145203470D01*
X112242857Y-145274898D01*
X111642857Y-145274898D01*
X111642857Y-144989184D01*
X112414285Y-145917755D02*
X110614285Y-145917755D01*
X112414285Y-146774898D01*
X110614285Y-146774898D01*
X112414285Y-147489184D02*
X110614285Y-147489184D01*
X110614285Y-147846327D01*
X110700000Y-148060613D01*
X110871428Y-148203470D01*
X111042857Y-148274898D01*
X111385714Y-148346327D01*
X111642857Y-148346327D01*
X111985714Y-148274898D01*
X112157142Y-148203470D01*
X112328571Y-148060613D01*
X112414285Y-147846327D01*
X112414285Y-147489184D01*
X110014285Y-110752142D02*
X108214285Y-110752142D01*
X109500000Y-111252142D01*
X108214285Y-111752142D01*
X110014285Y-111752142D01*
X110014285Y-112466428D02*
X108214285Y-112466428D01*
X109928571Y-113109285D02*
X110014285Y-113323571D01*
X110014285Y-113680714D01*
X109928571Y-113823571D01*
X109842857Y-113895000D01*
X109671428Y-113966428D01*
X109500000Y-113966428D01*
X109328571Y-113895000D01*
X109242857Y-113823571D01*
X109157142Y-113680714D01*
X109071428Y-113395000D01*
X108985714Y-113252142D01*
X108900000Y-113180714D01*
X108728571Y-113109285D01*
X108557142Y-113109285D01*
X108385714Y-113180714D01*
X108300000Y-113252142D01*
X108214285Y-113395000D01*
X108214285Y-113752142D01*
X108300000Y-113966428D01*
X108214285Y-114895000D02*
X108214285Y-115180714D01*
X108300000Y-115323571D01*
X108471428Y-115466428D01*
X108814285Y-115537857D01*
X109414285Y-115537857D01*
X109757142Y-115466428D01*
X109928571Y-115323571D01*
X110014285Y-115180714D01*
X110014285Y-114895000D01*
X109928571Y-114752142D01*
X109757142Y-114609285D01*
X109414285Y-114537857D01*
X108814285Y-114537857D01*
X108471428Y-114609285D01*
X108300000Y-114752142D01*
X108214285Y-114895000D01*
X100014285Y-110752142D02*
X98214285Y-110752142D01*
X98214285Y-111752142D02*
X98214285Y-112037857D01*
X98300000Y-112180714D01*
X98471428Y-112323571D01*
X98814285Y-112395000D01*
X99414285Y-112395000D01*
X99757142Y-112323571D01*
X99928571Y-112180714D01*
X100014285Y-112037857D01*
X100014285Y-111752142D01*
X99928571Y-111609285D01*
X99757142Y-111466428D01*
X99414285Y-111395000D01*
X98814285Y-111395000D01*
X98471428Y-111466428D01*
X98300000Y-111609285D01*
X98214285Y-111752142D01*
X98214285Y-112895000D02*
X98214285Y-113823571D01*
X98900000Y-113323571D01*
X98900000Y-113537857D01*
X98985714Y-113680714D01*
X99071428Y-113752142D01*
X99242857Y-113823571D01*
X99671428Y-113823571D01*
X99842857Y-113752142D01*
X99928571Y-113680714D01*
X100014285Y-113537857D01*
X100014285Y-113109285D01*
X99928571Y-112966428D01*
X99842857Y-112895000D01*
X104914285Y-144403962D02*
X103114285Y-144403962D01*
X103114285Y-145403962D02*
X103114285Y-145689677D01*
X103200000Y-145832534D01*
X103371428Y-145975391D01*
X103714285Y-146046820D01*
X104314285Y-146046820D01*
X104657142Y-145975391D01*
X104828571Y-145832534D01*
X104914285Y-145689677D01*
X104914285Y-145403962D01*
X104828571Y-145261105D01*
X104657142Y-145118248D01*
X104314285Y-145046820D01*
X103714285Y-145046820D01*
X103371428Y-145118248D01*
X103200000Y-145261105D01*
X103114285Y-145403962D01*
X103114285Y-146975391D02*
X103114285Y-147118248D01*
X103200000Y-147261105D01*
X103285714Y-147332534D01*
X103457142Y-147403962D01*
X103800000Y-147475391D01*
X104228571Y-147475391D01*
X104571428Y-147403962D01*
X104742857Y-147332534D01*
X104828571Y-147261105D01*
X104914285Y-147118248D01*
X104914285Y-146975391D01*
X104828571Y-146832534D01*
X104742857Y-146761105D01*
X104571428Y-146689677D01*
X104228571Y-146618248D01*
X103800000Y-146618248D01*
X103457142Y-146689677D01*
X103285714Y-146761105D01*
X103200000Y-146832534D01*
X103114285Y-146975391D01*
X107414285Y-144410858D02*
X105614285Y-144410858D01*
X105614285Y-145410858D02*
X105614285Y-145696573D01*
X105700000Y-145839430D01*
X105871428Y-145982287D01*
X106214285Y-146053716D01*
X106814285Y-146053716D01*
X107157142Y-145982287D01*
X107328571Y-145839430D01*
X107414285Y-145696573D01*
X107414285Y-145410858D01*
X107328571Y-145268001D01*
X107157142Y-145125144D01*
X106814285Y-145053716D01*
X106214285Y-145053716D01*
X105871428Y-145125144D01*
X105700000Y-145268001D01*
X105614285Y-145410858D01*
X107414285Y-147482287D02*
X107414285Y-146625144D01*
X107414285Y-147053716D02*
X105614285Y-147053716D01*
X105871428Y-146910858D01*
X106042857Y-146768001D01*
X106128571Y-146625144D01*
X105800000Y-111537857D02*
X105714285Y-111395000D01*
X105714285Y-111180714D01*
X105800000Y-110966428D01*
X105971428Y-110823571D01*
X106142857Y-110752142D01*
X106485714Y-110680714D01*
X106742857Y-110680714D01*
X107085714Y-110752142D01*
X107257142Y-110823571D01*
X107428571Y-110966428D01*
X107514285Y-111180714D01*
X107514285Y-111323571D01*
X107428571Y-111537857D01*
X107342857Y-111609285D01*
X106742857Y-111609285D01*
X106742857Y-111323571D01*
X107514285Y-112252142D02*
X105714285Y-112252142D01*
X107514285Y-113109285D01*
X105714285Y-113109285D01*
X107514285Y-113823571D02*
X105714285Y-113823571D01*
X105714285Y-114180714D01*
X105800000Y-114395000D01*
X105971428Y-114537857D01*
X106142857Y-114609285D01*
X106485714Y-114680714D01*
X106742857Y-114680714D01*
X107085714Y-114609285D01*
X107257142Y-114537857D01*
X107428571Y-114395000D01*
X107514285Y-114180714D01*
X107514285Y-113823571D01*
X98714285Y-145033028D02*
X99914285Y-145033028D01*
X98028571Y-144675885D02*
X99314285Y-144318742D01*
X99314285Y-145247313D01*
X98885714Y-146033028D02*
X98800000Y-145890170D01*
X98714285Y-145818742D01*
X98542857Y-145747313D01*
X98457142Y-145747313D01*
X98285714Y-145818742D01*
X98200000Y-145890170D01*
X98114285Y-146033028D01*
X98114285Y-146318742D01*
X98200000Y-146461599D01*
X98285714Y-146533028D01*
X98457142Y-146604456D01*
X98542857Y-146604456D01*
X98714285Y-146533028D01*
X98800000Y-146461599D01*
X98885714Y-146318742D01*
X98885714Y-146033028D01*
X98971428Y-145890170D01*
X99057142Y-145818742D01*
X99228571Y-145747313D01*
X99571428Y-145747313D01*
X99742857Y-145818742D01*
X99828571Y-145890170D01*
X99914285Y-146033028D01*
X99914285Y-146318742D01*
X99828571Y-146461599D01*
X99742857Y-146533028D01*
X99571428Y-146604456D01*
X99228571Y-146604456D01*
X99057142Y-146533028D01*
X98971428Y-146461599D01*
X98885714Y-146318742D01*
X98114285Y-147961599D02*
X98114285Y-147247313D01*
X98971428Y-147175885D01*
X98885714Y-147247313D01*
X98800000Y-147390170D01*
X98800000Y-147747313D01*
X98885714Y-147890170D01*
X98971428Y-147961599D01*
X99142857Y-148033028D01*
X99571428Y-148033028D01*
X99742857Y-147961599D01*
X99828571Y-147890170D01*
X99914285Y-147747313D01*
X99914285Y-147390170D01*
X99828571Y-147247313D01*
X99742857Y-147175885D01*
X98971428Y-149175885D02*
X99057142Y-149390170D01*
X99142857Y-149461599D01*
X99314285Y-149533028D01*
X99571428Y-149533028D01*
X99742857Y-149461599D01*
X99828571Y-149390170D01*
X99914285Y-149247313D01*
X99914285Y-148675885D01*
X98114285Y-148675885D01*
X98114285Y-149175885D01*
X98200000Y-149318742D01*
X98285714Y-149390170D01*
X98457142Y-149461599D01*
X98628571Y-149461599D01*
X98800000Y-149390170D01*
X98885714Y-149318742D01*
X98971428Y-149175885D01*
X98971428Y-148675885D01*
X146800000Y-97680714D02*
X146800000Y-98395000D01*
X147314285Y-97537857D02*
X145514285Y-98037857D01*
X147314285Y-98537857D01*
X112514285Y-110752142D02*
X110714285Y-110752142D01*
X112000000Y-111252142D01*
X110714285Y-111752142D01*
X112514285Y-111752142D01*
X110714285Y-112752142D02*
X110714285Y-113037857D01*
X110800000Y-113180714D01*
X110971428Y-113323571D01*
X111314285Y-113395000D01*
X111914285Y-113395000D01*
X112257142Y-113323571D01*
X112428571Y-113180714D01*
X112514285Y-113037857D01*
X112514285Y-112752142D01*
X112428571Y-112609285D01*
X112257142Y-112466428D01*
X111914285Y-112395000D01*
X111314285Y-112395000D01*
X110971428Y-112466428D01*
X110800000Y-112609285D01*
X110714285Y-112752142D01*
X112428571Y-113966428D02*
X112514285Y-114180714D01*
X112514285Y-114537857D01*
X112428571Y-114680714D01*
X112342857Y-114752142D01*
X112171428Y-114823571D01*
X112000000Y-114823571D01*
X111828571Y-114752142D01*
X111742857Y-114680714D01*
X111657142Y-114537857D01*
X111571428Y-114252142D01*
X111485714Y-114109285D01*
X111400000Y-114037857D01*
X111228571Y-113966428D01*
X111057142Y-113966428D01*
X110885714Y-114037857D01*
X110800000Y-114109285D01*
X110714285Y-114252142D01*
X110714285Y-114609285D01*
X110800000Y-114823571D01*
X112514285Y-115466428D02*
X110714285Y-115466428D01*
X109114285Y-90352142D02*
X107314285Y-90352142D01*
X108600000Y-90852142D01*
X107314285Y-91352142D01*
X109114285Y-91352142D01*
X107314285Y-92352142D02*
X107314285Y-92637857D01*
X107400000Y-92780714D01*
X107571428Y-92923571D01*
X107914285Y-92995000D01*
X108514285Y-92995000D01*
X108857142Y-92923571D01*
X109028571Y-92780714D01*
X109114285Y-92637857D01*
X109114285Y-92352142D01*
X109028571Y-92209285D01*
X108857142Y-92066428D01*
X108514285Y-91995000D01*
X107914285Y-91995000D01*
X107571428Y-92066428D01*
X107400000Y-92209285D01*
X107314285Y-92352142D01*
X109028571Y-93566428D02*
X109114285Y-93780714D01*
X109114285Y-94137857D01*
X109028571Y-94280714D01*
X108942857Y-94352142D01*
X108771428Y-94423571D01*
X108600000Y-94423571D01*
X108428571Y-94352142D01*
X108342857Y-94280714D01*
X108257142Y-94137857D01*
X108171428Y-93852142D01*
X108085714Y-93709285D01*
X108000000Y-93637857D01*
X107828571Y-93566428D01*
X107657142Y-93566428D01*
X107485714Y-93637857D01*
X107400000Y-93709285D01*
X107314285Y-93852142D01*
X107314285Y-94209285D01*
X107400000Y-94423571D01*
X109114285Y-95066428D02*
X107314285Y-95066428D01*
X104928571Y-110680714D02*
X105014285Y-110895000D01*
X105014285Y-111252142D01*
X104928571Y-111395000D01*
X104842857Y-111466428D01*
X104671428Y-111537857D01*
X104500000Y-111537857D01*
X104328571Y-111466428D01*
X104242857Y-111395000D01*
X104157142Y-111252142D01*
X104071428Y-110966428D01*
X103985714Y-110823571D01*
X103900000Y-110752142D01*
X103728571Y-110680714D01*
X103557142Y-110680714D01*
X103385714Y-110752142D01*
X103300000Y-110823571D01*
X103214285Y-110966428D01*
X103214285Y-111323571D01*
X103300000Y-111537857D01*
X104842857Y-113037857D02*
X104928571Y-112966428D01*
X105014285Y-112752142D01*
X105014285Y-112609285D01*
X104928571Y-112395000D01*
X104757142Y-112252142D01*
X104585714Y-112180714D01*
X104242857Y-112109285D01*
X103985714Y-112109285D01*
X103642857Y-112180714D01*
X103471428Y-112252142D01*
X103300000Y-112395000D01*
X103214285Y-112609285D01*
X103214285Y-112752142D01*
X103300000Y-112966428D01*
X103385714Y-113037857D01*
X105014285Y-113680714D02*
X103214285Y-113680714D01*
X105014285Y-114537857D02*
X103985714Y-113895000D01*
X103214285Y-114537857D02*
X104242857Y-113680714D01*
X129914285Y-144281794D02*
X129914285Y-145210366D01*
X130600000Y-144710366D01*
X130600000Y-144924651D01*
X130685714Y-145067509D01*
X130771428Y-145138937D01*
X130942857Y-145210366D01*
X131371428Y-145210366D01*
X131542857Y-145138937D01*
X131628571Y-145067509D01*
X131714285Y-144924651D01*
X131714285Y-144496080D01*
X131628571Y-144353223D01*
X131542857Y-144281794D01*
X129914285Y-145638937D02*
X131714285Y-146138937D01*
X129914285Y-146638937D01*
X129914285Y-146996080D02*
X129914285Y-147924651D01*
X130600000Y-147424651D01*
X130600000Y-147638937D01*
X130685714Y-147781794D01*
X130771428Y-147853223D01*
X130942857Y-147924651D01*
X131371428Y-147924651D01*
X131542857Y-147853223D01*
X131628571Y-147781794D01*
X131714285Y-147638937D01*
X131714285Y-147210366D01*
X131628571Y-147067509D01*
X131542857Y-146996080D01*
X127500000Y-145203470D02*
X127414285Y-145060613D01*
X127414285Y-144846327D01*
X127500000Y-144632041D01*
X127671428Y-144489184D01*
X127842857Y-144417755D01*
X128185714Y-144346327D01*
X128442857Y-144346327D01*
X128785714Y-144417755D01*
X128957142Y-144489184D01*
X129128571Y-144632041D01*
X129214285Y-144846327D01*
X129214285Y-144989184D01*
X129128571Y-145203470D01*
X129042857Y-145274898D01*
X128442857Y-145274898D01*
X128442857Y-144989184D01*
X129214285Y-145917755D02*
X127414285Y-145917755D01*
X129214285Y-146774898D01*
X127414285Y-146774898D01*
X129214285Y-147489184D02*
X127414285Y-147489184D01*
X127414285Y-147846327D01*
X127500000Y-148060613D01*
X127671428Y-148203470D01*
X127842857Y-148274898D01*
X128185714Y-148346327D01*
X128442857Y-148346327D01*
X128785714Y-148274898D01*
X128957142Y-148203470D01*
X129128571Y-148060613D01*
X129214285Y-147846327D01*
X129214285Y-147489184D01*
D11*
X126671428Y-126771071D02*
X126271428Y-128271071D01*
X125871428Y-126771071D01*
X125471428Y-128271071D02*
X125471428Y-126771071D01*
X125185714Y-126771071D01*
X125014285Y-126842500D01*
X124900000Y-126985357D01*
X124842857Y-127128214D01*
X124785714Y-127413928D01*
X124785714Y-127628214D01*
X124842857Y-127913928D01*
X124900000Y-128056785D01*
X125014285Y-128199642D01*
X125185714Y-128271071D01*
X125471428Y-128271071D01*
X124328571Y-128199642D02*
X124157142Y-128271071D01*
X123871428Y-128271071D01*
X123757142Y-128199642D01*
X123700000Y-128128214D01*
X123642857Y-127985357D01*
X123642857Y-127842500D01*
X123700000Y-127699642D01*
X123757142Y-127628214D01*
X123871428Y-127556785D01*
X124100000Y-127485357D01*
X124214285Y-127413928D01*
X124271428Y-127342500D01*
X124328571Y-127199642D01*
X124328571Y-127056785D01*
X124271428Y-126913928D01*
X124214285Y-126842500D01*
X124100000Y-126771071D01*
X123814285Y-126771071D01*
X123642857Y-126842500D01*
X126300000Y-130114642D02*
X125385714Y-130114642D01*
X125842857Y-130686071D02*
X125842857Y-129543214D01*
X124814285Y-130114642D02*
X123900000Y-130114642D01*
D10*
X97628571Y-90080714D02*
X97714285Y-90295000D01*
X97714285Y-90652142D01*
X97628571Y-90795000D01*
X97542857Y-90866428D01*
X97371428Y-90937857D01*
X97200000Y-90937857D01*
X97028571Y-90866428D01*
X96942857Y-90795000D01*
X96857142Y-90652142D01*
X96771428Y-90366428D01*
X96685714Y-90223571D01*
X96600000Y-90152142D01*
X96428571Y-90080714D01*
X96257142Y-90080714D01*
X96085714Y-90152142D01*
X96000000Y-90223571D01*
X95914285Y-90366428D01*
X95914285Y-90723571D01*
X96000000Y-90937857D01*
X97542857Y-92437857D02*
X97628571Y-92366428D01*
X97714285Y-92152142D01*
X97714285Y-92009285D01*
X97628571Y-91795000D01*
X97457142Y-91652142D01*
X97285714Y-91580714D01*
X96942857Y-91509285D01*
X96685714Y-91509285D01*
X96342857Y-91580714D01*
X96171428Y-91652142D01*
X96000000Y-91795000D01*
X95914285Y-92009285D01*
X95914285Y-92152142D01*
X96000000Y-92366428D01*
X96085714Y-92437857D01*
X97714285Y-93080714D02*
X95914285Y-93080714D01*
X97714285Y-93937857D02*
X96685714Y-93295000D01*
X95914285Y-93937857D02*
X96942857Y-93080714D01*
X132142857Y-98609285D02*
X132228571Y-98537857D01*
X132314285Y-98323571D01*
X132314285Y-98180714D01*
X132228571Y-97966428D01*
X132057142Y-97823571D01*
X131885714Y-97752142D01*
X131542857Y-97680714D01*
X131285714Y-97680714D01*
X130942857Y-97752142D01*
X130771428Y-97823571D01*
X130600000Y-97966428D01*
X130514285Y-98180714D01*
X130514285Y-98323571D01*
X130600000Y-98537857D01*
X130685714Y-98609285D01*
X134128571Y-144360119D02*
X134214285Y-144574405D01*
X134214285Y-144931547D01*
X134128571Y-145074405D01*
X134042857Y-145145833D01*
X133871428Y-145217262D01*
X133700000Y-145217262D01*
X133528571Y-145145833D01*
X133442857Y-145074405D01*
X133357142Y-144931547D01*
X133271428Y-144645833D01*
X133185714Y-144502976D01*
X133100000Y-144431547D01*
X132928571Y-144360119D01*
X132757142Y-144360119D01*
X132585714Y-144431547D01*
X132500000Y-144502976D01*
X132414285Y-144645833D01*
X132414285Y-145002976D01*
X132500000Y-145217262D01*
X134042857Y-146717262D02*
X134128571Y-146645833D01*
X134214285Y-146431547D01*
X134214285Y-146288690D01*
X134128571Y-146074405D01*
X133957142Y-145931547D01*
X133785714Y-145860119D01*
X133442857Y-145788690D01*
X133185714Y-145788690D01*
X132842857Y-145860119D01*
X132671428Y-145931547D01*
X132500000Y-146074405D01*
X132414285Y-146288690D01*
X132414285Y-146431547D01*
X132500000Y-146645833D01*
X132585714Y-146717262D01*
X134214285Y-148074405D02*
X134214285Y-147360119D01*
X132414285Y-147360119D01*
X121514285Y-98395000D02*
X122714285Y-98395000D01*
X120828571Y-98037857D02*
X122114285Y-97680714D01*
X122114285Y-98609285D01*
X121685714Y-99395000D02*
X121600000Y-99252142D01*
X121514285Y-99180714D01*
X121342857Y-99109285D01*
X121257142Y-99109285D01*
X121085714Y-99180714D01*
X121000000Y-99252142D01*
X120914285Y-99395000D01*
X120914285Y-99680714D01*
X121000000Y-99823571D01*
X121085714Y-99895000D01*
X121257142Y-99966428D01*
X121342857Y-99966428D01*
X121514285Y-99895000D01*
X121600000Y-99823571D01*
X121685714Y-99680714D01*
X121685714Y-99395000D01*
X121771428Y-99252142D01*
X121857142Y-99180714D01*
X122028571Y-99109285D01*
X122371428Y-99109285D01*
X122542857Y-99180714D01*
X122628571Y-99252142D01*
X122714285Y-99395000D01*
X122714285Y-99680714D01*
X122628571Y-99823571D01*
X122542857Y-99895000D01*
X122371428Y-99966428D01*
X122028571Y-99966428D01*
X121857142Y-99895000D01*
X121771428Y-99823571D01*
X121685714Y-99680714D01*
X120914285Y-100395000D02*
X122714285Y-100895000D01*
X120914285Y-101395000D01*
X99800000Y-90937857D02*
X99714285Y-90795000D01*
X99714285Y-90580714D01*
X99800000Y-90366428D01*
X99971428Y-90223571D01*
X100142857Y-90152142D01*
X100485714Y-90080714D01*
X100742857Y-90080714D01*
X101085714Y-90152142D01*
X101257142Y-90223571D01*
X101428571Y-90366428D01*
X101514285Y-90580714D01*
X101514285Y-90723571D01*
X101428571Y-90937857D01*
X101342857Y-91009285D01*
X100742857Y-91009285D01*
X100742857Y-90723571D01*
X101514285Y-91652142D02*
X99714285Y-91652142D01*
X101514285Y-92509285D01*
X99714285Y-92509285D01*
X101514285Y-93223571D02*
X99714285Y-93223571D01*
X99714285Y-93580714D01*
X99800000Y-93795000D01*
X99971428Y-93937857D01*
X100142857Y-94009285D01*
X100485714Y-94080714D01*
X100742857Y-94080714D01*
X101085714Y-94009285D01*
X101257142Y-93937857D01*
X101428571Y-93795000D01*
X101514285Y-93580714D01*
X101514285Y-93223571D01*
D12*
%TO.C,TP3*%
X134261904Y-117850000D02*
X134357142Y-117802380D01*
X134500000Y-117802380D01*
X134642857Y-117850000D01*
X134738095Y-117945238D01*
X134785714Y-118040476D01*
X134833333Y-118230952D01*
X134833333Y-118373809D01*
X134785714Y-118564285D01*
X134738095Y-118659523D01*
X134642857Y-118754761D01*
X134500000Y-118802380D01*
X134404761Y-118802380D01*
X134261904Y-118754761D01*
X134214285Y-118707142D01*
X134214285Y-118373809D01*
X134404761Y-118373809D01*
X133785714Y-118802380D02*
X133785714Y-117802380D01*
X133785714Y-118278571D02*
X133214285Y-118278571D01*
X133214285Y-118802380D02*
X133214285Y-117802380D01*
X132404761Y-118278571D02*
X132261904Y-118326190D01*
X132214285Y-118373809D01*
X132166666Y-118469047D01*
X132166666Y-118611904D01*
X132214285Y-118707142D01*
X132261904Y-118754761D01*
X132357142Y-118802380D01*
X132738095Y-118802380D01*
X132738095Y-117802380D01*
X132404761Y-117802380D01*
X132309523Y-117850000D01*
X132261904Y-117897619D01*
X132214285Y-117992857D01*
X132214285Y-118088095D01*
X132261904Y-118183333D01*
X132309523Y-118230952D01*
X132404761Y-118278571D01*
X132738095Y-118278571D01*
%TO.C,TP5*%
X126461904Y-117850000D02*
X126557142Y-117802380D01*
X126700000Y-117802380D01*
X126842857Y-117850000D01*
X126938095Y-117945238D01*
X126985714Y-118040476D01*
X127033333Y-118230952D01*
X127033333Y-118373809D01*
X126985714Y-118564285D01*
X126938095Y-118659523D01*
X126842857Y-118754761D01*
X126700000Y-118802380D01*
X126604761Y-118802380D01*
X126461904Y-118754761D01*
X126414285Y-118707142D01*
X126414285Y-118373809D01*
X126604761Y-118373809D01*
X125985714Y-118802380D02*
X125985714Y-117802380D01*
X125985714Y-118278571D02*
X125414285Y-118278571D01*
X125414285Y-118802380D02*
X125414285Y-117802380D01*
X124366666Y-118707142D02*
X124414285Y-118754761D01*
X124557142Y-118802380D01*
X124652380Y-118802380D01*
X124795238Y-118754761D01*
X124890476Y-118659523D01*
X124938095Y-118564285D01*
X124985714Y-118373809D01*
X124985714Y-118230952D01*
X124938095Y-118040476D01*
X124890476Y-117945238D01*
X124795238Y-117850000D01*
X124652380Y-117802380D01*
X124557142Y-117802380D01*
X124414285Y-117850000D01*
X124366666Y-117897619D01*
%TO.C,TP1*%
X142090476Y-117850000D02*
X142185714Y-117802380D01*
X142328571Y-117802380D01*
X142471428Y-117850000D01*
X142566666Y-117945238D01*
X142614285Y-118040476D01*
X142661904Y-118230952D01*
X142661904Y-118373809D01*
X142614285Y-118564285D01*
X142566666Y-118659523D01*
X142471428Y-118754761D01*
X142328571Y-118802380D01*
X142233333Y-118802380D01*
X142090476Y-118754761D01*
X142042857Y-118707142D01*
X142042857Y-118373809D01*
X142233333Y-118373809D01*
X141614285Y-118802380D02*
X141614285Y-117802380D01*
X141614285Y-118278571D02*
X141042857Y-118278571D01*
X141042857Y-118802380D02*
X141042857Y-117802380D01*
X140614285Y-118516666D02*
X140138095Y-118516666D01*
X140709523Y-118802380D02*
X140376190Y-117802380D01*
X140042857Y-118802380D01*
%TO.C,C34*%
X118061904Y-132885714D02*
X118061904Y-133552380D01*
X118490476Y-132885714D02*
X118490476Y-133409523D01*
X118442857Y-133504761D01*
X118347619Y-133552380D01*
X118204761Y-133552380D01*
X118109523Y-133504761D01*
X118061904Y-133457142D01*
X117061904Y-133552380D02*
X117633333Y-133552380D01*
X117347619Y-133552380D02*
X117347619Y-132552380D01*
X117442857Y-132695238D01*
X117538095Y-132790476D01*
X117633333Y-132838095D01*
%TO.C,TP6*%
X124942857Y-112850000D02*
X125038095Y-112802380D01*
X125180952Y-112802380D01*
X125323809Y-112850000D01*
X125419047Y-112945238D01*
X125466666Y-113040476D01*
X125514285Y-113230952D01*
X125514285Y-113373809D01*
X125466666Y-113564285D01*
X125419047Y-113659523D01*
X125323809Y-113754761D01*
X125180952Y-113802380D01*
X125085714Y-113802380D01*
X124942857Y-113754761D01*
X124895238Y-113707142D01*
X124895238Y-113373809D01*
X125085714Y-113373809D01*
X123990476Y-113802380D02*
X124466666Y-113802380D01*
X124466666Y-112802380D01*
X123085714Y-113707142D02*
X123133333Y-113754761D01*
X123276190Y-113802380D01*
X123371428Y-113802380D01*
X123514285Y-113754761D01*
X123609523Y-113659523D01*
X123657142Y-113564285D01*
X123704761Y-113373809D01*
X123704761Y-113230952D01*
X123657142Y-113040476D01*
X123609523Y-112945238D01*
X123514285Y-112850000D01*
X123371428Y-112802380D01*
X123276190Y-112802380D01*
X123133333Y-112850000D01*
X123085714Y-112897619D01*
%TO.C,TP4*%
X132842857Y-112850000D02*
X132938095Y-112802380D01*
X133080952Y-112802380D01*
X133223809Y-112850000D01*
X133319047Y-112945238D01*
X133366666Y-113040476D01*
X133414285Y-113230952D01*
X133414285Y-113373809D01*
X133366666Y-113564285D01*
X133319047Y-113659523D01*
X133223809Y-113754761D01*
X133080952Y-113802380D01*
X132985714Y-113802380D01*
X132842857Y-113754761D01*
X132795238Y-113707142D01*
X132795238Y-113373809D01*
X132985714Y-113373809D01*
X131890476Y-113802380D02*
X132366666Y-113802380D01*
X132366666Y-112802380D01*
X131223809Y-113278571D02*
X131080952Y-113326190D01*
X131033333Y-113373809D01*
X130985714Y-113469047D01*
X130985714Y-113611904D01*
X131033333Y-113707142D01*
X131080952Y-113754761D01*
X131176190Y-113802380D01*
X131557142Y-113802380D01*
X131557142Y-112802380D01*
X131223809Y-112802380D01*
X131128571Y-112850000D01*
X131080952Y-112897619D01*
X131033333Y-112992857D01*
X131033333Y-113088095D01*
X131080952Y-113183333D01*
X131128571Y-113230952D01*
X131223809Y-113278571D01*
X131557142Y-113278571D01*
%TO.C,U4*%
X117052380Y-124880952D02*
X116052380Y-124880952D01*
X116766666Y-125214285D01*
X116052380Y-125547619D01*
X117052380Y-125547619D01*
X116052380Y-125880952D02*
X116052380Y-126452380D01*
X117052380Y-126166666D02*
X116052380Y-126166666D01*
X116052380Y-127214285D02*
X116052380Y-127023809D01*
X116100000Y-126928571D01*
X116147619Y-126880952D01*
X116290476Y-126785714D01*
X116480952Y-126738095D01*
X116861904Y-126738095D01*
X116957142Y-126785714D01*
X117004761Y-126833333D01*
X117052380Y-126928571D01*
X117052380Y-127119047D01*
X117004761Y-127214285D01*
X116957142Y-127261904D01*
X116861904Y-127309523D01*
X116623809Y-127309523D01*
X116528571Y-127261904D01*
X116480952Y-127214285D01*
X116433333Y-127119047D01*
X116433333Y-126928571D01*
X116480952Y-126833333D01*
X116528571Y-126785714D01*
X116623809Y-126738095D01*
X116480952Y-127880952D02*
X116433333Y-127785714D01*
X116385714Y-127738095D01*
X116290476Y-127690476D01*
X116242857Y-127690476D01*
X116147619Y-127738095D01*
X116100000Y-127785714D01*
X116052380Y-127880952D01*
X116052380Y-128071428D01*
X116100000Y-128166666D01*
X116147619Y-128214285D01*
X116242857Y-128261904D01*
X116290476Y-128261904D01*
X116385714Y-128214285D01*
X116433333Y-128166666D01*
X116480952Y-128071428D01*
X116480952Y-127880952D01*
X116528571Y-127785714D01*
X116576190Y-127738095D01*
X116671428Y-127690476D01*
X116861904Y-127690476D01*
X116957142Y-127738095D01*
X117004761Y-127785714D01*
X117052380Y-127880952D01*
X117052380Y-128071428D01*
X117004761Y-128166666D01*
X116957142Y-128214285D01*
X116861904Y-128261904D01*
X116671428Y-128261904D01*
X116576190Y-128214285D01*
X116528571Y-128166666D01*
X116480952Y-128071428D01*
X117052380Y-129214285D02*
X117052380Y-128642857D01*
X117052380Y-128928571D02*
X116052380Y-128928571D01*
X116195238Y-128833333D01*
X116290476Y-128738095D01*
X116338095Y-128642857D01*
X116052380Y-130071428D02*
X116052380Y-129880952D01*
X116100000Y-129785714D01*
X116147619Y-129738095D01*
X116290476Y-129642857D01*
X116480952Y-129595238D01*
X116861904Y-129595238D01*
X116957142Y-129642857D01*
X117004761Y-129690476D01*
X117052380Y-129785714D01*
X117052380Y-129976190D01*
X117004761Y-130071428D01*
X116957142Y-130119047D01*
X116861904Y-130166666D01*
X116623809Y-130166666D01*
X116528571Y-130119047D01*
X116480952Y-130071428D01*
X116433333Y-129976190D01*
X116433333Y-129785714D01*
X116480952Y-129690476D01*
X116528571Y-129642857D01*
X116623809Y-129595238D01*
%TO.C,D6*%
X142814285Y-141652380D02*
X142814285Y-140652380D01*
X142242857Y-141652380D01*
X142242857Y-140652380D01*
X141766666Y-140652380D02*
X141766666Y-141461904D01*
X141719047Y-141557142D01*
X141671428Y-141604761D01*
X141576190Y-141652380D01*
X141385714Y-141652380D01*
X141290476Y-141604761D01*
X141242857Y-141557142D01*
X141195238Y-141461904D01*
X141195238Y-140652380D01*
X140719047Y-141652380D02*
X140719047Y-140652380D01*
X140338095Y-140652380D01*
X140242857Y-140700000D01*
X140195238Y-140747619D01*
X140147619Y-140842857D01*
X140147619Y-140985714D01*
X140195238Y-141080952D01*
X140242857Y-141128571D01*
X140338095Y-141176190D01*
X140719047Y-141176190D01*
X139766666Y-140747619D02*
X139719047Y-140700000D01*
X139623809Y-140652380D01*
X139385714Y-140652380D01*
X139290476Y-140700000D01*
X139242857Y-140747619D01*
X139195238Y-140842857D01*
X139195238Y-140938095D01*
X139242857Y-141080952D01*
X139814285Y-141652380D01*
X139195238Y-141652380D01*
X138242857Y-141652380D02*
X138814285Y-141652380D01*
X138528571Y-141652380D02*
X138528571Y-140652380D01*
X138623809Y-140795238D01*
X138719047Y-140890476D01*
X138814285Y-140938095D01*
X137623809Y-140652380D02*
X137528571Y-140652380D01*
X137433333Y-140700000D01*
X137385714Y-140747619D01*
X137338095Y-140842857D01*
X137290476Y-141033333D01*
X137290476Y-141271428D01*
X137338095Y-141461904D01*
X137385714Y-141557142D01*
X137433333Y-141604761D01*
X137528571Y-141652380D01*
X137623809Y-141652380D01*
X137719047Y-141604761D01*
X137766666Y-141557142D01*
X137814285Y-141461904D01*
X137861904Y-141271428D01*
X137861904Y-141033333D01*
X137814285Y-140842857D01*
X137766666Y-140747619D01*
X137719047Y-140700000D01*
X137623809Y-140652380D01*
X136385714Y-140652380D02*
X136861904Y-140652380D01*
X136909523Y-141128571D01*
X136861904Y-141080952D01*
X136766666Y-141033333D01*
X136528571Y-141033333D01*
X136433333Y-141080952D01*
X136385714Y-141128571D01*
X136338095Y-141223809D01*
X136338095Y-141461904D01*
X136385714Y-141557142D01*
X136433333Y-141604761D01*
X136528571Y-141652380D01*
X136766666Y-141652380D01*
X136861904Y-141604761D01*
X136909523Y-141557142D01*
%TO.C,TP2*%
X140671428Y-112850000D02*
X140766666Y-112802380D01*
X140909523Y-112802380D01*
X141052380Y-112850000D01*
X141147619Y-112945238D01*
X141195238Y-113040476D01*
X141242857Y-113230952D01*
X141242857Y-113373809D01*
X141195238Y-113564285D01*
X141147619Y-113659523D01*
X141052380Y-113754761D01*
X140909523Y-113802380D01*
X140814285Y-113802380D01*
X140671428Y-113754761D01*
X140623809Y-113707142D01*
X140623809Y-113373809D01*
X140814285Y-113373809D01*
X139719047Y-113802380D02*
X140195238Y-113802380D01*
X140195238Y-112802380D01*
X139433333Y-113516666D02*
X138957142Y-113516666D01*
X139528571Y-113802380D02*
X139195238Y-112802380D01*
X138861904Y-113802380D01*
D13*
%TO.C,R20*%
X123465000Y-136327064D02*
X123465000Y-135872936D01*
X124935000Y-136327064D02*
X124935000Y-135872936D01*
%TO.C,TP3*%
X134200000Y-116800000D02*
G75*
G03*
X134200000Y-116800000I-700000J0D01*
G01*
%TO.C,R16*%
X129285000Y-132627064D02*
X129285000Y-132172936D01*
X127815000Y-132627064D02*
X127815000Y-132172936D01*
%TO.C,R22*%
X131185000Y-136327064D02*
X131185000Y-135872936D01*
X129715000Y-136327064D02*
X129715000Y-135872936D01*
%TO.C,TP5*%
X126400000Y-116800000D02*
G75*
G03*
X126400000Y-116800000I-700000J0D01*
G01*
%TO.C,R17*%
X129715000Y-132172936D02*
X129715000Y-132627064D01*
X131185000Y-132172936D02*
X131185000Y-132627064D01*
%TO.C,TP1*%
X142100000Y-116800000D02*
G75*
G03*
X142100000Y-116800000I-700000J0D01*
G01*
%TO.C,R23*%
X125365000Y-132627064D02*
X125365000Y-132172936D01*
X126835000Y-132627064D02*
X126835000Y-132172936D01*
%TO.C,R19*%
X125365000Y-135872936D02*
X125365000Y-136327064D01*
X126835000Y-135872936D02*
X126835000Y-136327064D01*
%TO.C,R24*%
X123465000Y-132172936D02*
X123465000Y-132627064D01*
X124935000Y-132172936D02*
X124935000Y-132627064D01*
%TO.C,C34*%
X120435000Y-133361252D02*
X120435000Y-132838748D01*
X118965000Y-133361252D02*
X118965000Y-132838748D01*
%TO.C,TP6*%
X125000000Y-111800000D02*
G75*
G03*
X125000000Y-111800000I-700000J0D01*
G01*
%TO.C,TP4*%
X132900000Y-111800000D02*
G75*
G03*
X132900000Y-111800000I-700000J0D01*
G01*
%TO.C,U4*%
X122560000Y-127500000D02*
X122560000Y-125550000D01*
X122560000Y-127500000D02*
X122560000Y-130950000D01*
X117440000Y-127500000D02*
X117440000Y-129450000D01*
X117440000Y-127500000D02*
X117440000Y-125550000D01*
%TO.C,D6*%
X138070000Y-147360000D02*
X139000000Y-147360000D01*
X141230000Y-147360000D02*
X140300000Y-147360000D01*
X141230000Y-147360000D02*
X141230000Y-145900000D01*
X138070000Y-147360000D02*
X138070000Y-144200000D01*
%TO.C,R21*%
X129285000Y-135872936D02*
X129285000Y-136327064D01*
X127815000Y-135872936D02*
X127815000Y-136327064D01*
%TO.C,TP2*%
X140800000Y-111800000D02*
G75*
G03*
X140800000Y-111800000I-700000J0D01*
G01*
%TD*%
%LPC*%
D14*
%TO.C,J15*%
X116400000Y-93500000D03*
%TD*%
D15*
%TO.C,H2*%
X93000000Y-149000000D03*
%TD*%
D16*
%TO.C,SW1*%
X137150000Y-138350000D03*
X139650000Y-138350000D03*
X142150000Y-138350000D03*
%TD*%
D17*
%TO.C,J7*%
X93435000Y-111970000D03*
D18*
X92165000Y-111970000D03*
X93435000Y-110700000D03*
X92165000Y-110700000D03*
X93435000Y-109430000D03*
X92165000Y-109430000D03*
%TD*%
D19*
%TO.C,J8*%
X115680000Y-145370000D03*
D20*
X124320000Y-149550000D03*
D19*
X124320000Y-145370000D03*
D20*
X115680000Y-149550000D03*
D21*
X122890000Y-145900000D03*
X117110000Y-145900000D03*
%TD*%
D14*
%TO.C,J13*%
X131400000Y-93500000D03*
%TD*%
D15*
%TO.C,H4*%
X147000000Y-149000000D03*
%TD*%
D14*
%TO.C,J14*%
X123900000Y-93500000D03*
%TD*%
D22*
%TO.C,J16*%
X108300000Y-97100000D03*
D23*
X104490000Y-97100000D03*
X100680000Y-97100000D03*
X96870000Y-97100000D03*
X93060000Y-97100000D03*
%TD*%
D24*
%TO.C,TH1*%
X116800000Y-122955000D03*
D25*
X116800000Y-121055000D03*
%TD*%
D15*
%TO.C,H1*%
X147000000Y-103000000D03*
%TD*%
%TO.C,H3*%
X93000000Y-103000000D03*
%TD*%
D16*
%TO.C,SW3*%
X106300000Y-139600000D03*
X103800000Y-139600000D03*
X101300000Y-139600000D03*
%TD*%
D26*
%TO.C,J6*%
X111650000Y-109250000D03*
D27*
X109150000Y-109250000D03*
X106650000Y-109250000D03*
X104150000Y-109250000D03*
X101650000Y-109250000D03*
X99150000Y-109250000D03*
%TD*%
D14*
%TO.C,J11*%
X146400000Y-93500000D03*
%TD*%
D28*
%TO.C,J10*%
X99050000Y-142950000D03*
D27*
X101550000Y-142950000D03*
X104050000Y-142950000D03*
X106550000Y-142950000D03*
X109050000Y-142950000D03*
X111550000Y-142950000D03*
%TD*%
D14*
%TO.C,J12*%
X138900000Y-93500000D03*
%TD*%
D28*
%TO.C,J9*%
X128400000Y-142950000D03*
D27*
X130900000Y-142950000D03*
X133400000Y-142950000D03*
X135900000Y-142950000D03*
X138400000Y-142950000D03*
X140900000Y-142950000D03*
%TD*%
D29*
%TO.C,R20*%
X124200000Y-137100000D03*
X124200000Y-135100000D03*
%TD*%
D30*
%TO.C,TP3*%
X133500000Y-116800000D03*
%TD*%
D29*
%TO.C,R16*%
X128550000Y-133400000D03*
X128550000Y-131400000D03*
%TD*%
%TO.C,R22*%
X130450000Y-137100000D03*
X130450000Y-135100000D03*
%TD*%
D30*
%TO.C,TP5*%
X125700000Y-116800000D03*
%TD*%
D31*
%TO.C,R17*%
X130450000Y-131400000D03*
X130450000Y-133400000D03*
%TD*%
D30*
%TO.C,TP1*%
X141400000Y-116800000D03*
%TD*%
D29*
%TO.C,R23*%
X126100000Y-133400000D03*
X126100000Y-131400000D03*
%TD*%
D31*
%TO.C,R19*%
X126100000Y-135100000D03*
X126100000Y-137100000D03*
%TD*%
%TO.C,R24*%
X124200000Y-131400000D03*
X124200000Y-133400000D03*
%TD*%
D32*
%TO.C,C34*%
X119700000Y-134137500D03*
X119700000Y-132062500D03*
%TD*%
D30*
%TO.C,TP6*%
X124300000Y-111800000D03*
%TD*%
%TO.C,TP4*%
X132200000Y-111800000D03*
%TD*%
D33*
%TO.C,U4*%
X121905000Y-130075000D03*
X120635000Y-130075000D03*
X119365000Y-130075000D03*
X118095000Y-130075000D03*
X118095000Y-124925000D03*
X119365000Y-124925000D03*
X120635000Y-124925000D03*
X121905000Y-124925000D03*
%TD*%
D34*
%TO.C,D6*%
X138700000Y-145100000D03*
X140600000Y-145100000D03*
X139650000Y-148100000D03*
%TD*%
D31*
%TO.C,R21*%
X128550000Y-135100000D03*
X128550000Y-137100000D03*
%TD*%
D30*
%TO.C,TP2*%
X140100000Y-111800000D03*
%TD*%
D35*
X141550000Y-111800000D03*
X141050000Y-112500000D03*
X145500000Y-106700000D03*
X145500000Y-107500000D03*
X144600000Y-108500000D03*
X145500000Y-108500000D03*
X145500000Y-109400000D03*
X144600000Y-110800000D03*
X145500000Y-110500000D03*
X145500000Y-111500000D03*
X145500000Y-112400000D03*
X143100000Y-115000000D03*
X143900000Y-114600000D03*
X143900000Y-113500000D03*
X144500000Y-113100000D03*
X145500000Y-113400000D03*
X145500000Y-114700000D03*
X144600000Y-115300000D03*
X143800000Y-115700000D03*
X143900000Y-116800000D03*
X145500000Y-116200000D03*
X145500000Y-117600000D03*
X148500000Y-119300000D03*
X146900000Y-119500000D03*
X148500000Y-118100000D03*
X146200000Y-118600000D03*
X145800000Y-119500000D03*
X142700000Y-119500000D03*
X143800000Y-119500000D03*
X143900000Y-118500000D03*
X143500000Y-117800000D03*
X142400000Y-117800000D03*
X141600000Y-118400000D03*
X141300000Y-119500000D03*
X139400000Y-119500000D03*
X139200000Y-118400000D03*
X130700000Y-117700000D03*
X128000000Y-117400000D03*
X128000000Y-116400000D03*
X128000000Y-115400000D03*
X128000000Y-114300000D03*
X128000000Y-113200000D03*
X127300000Y-114900000D03*
X128800000Y-115000000D03*
X132000000Y-117700000D03*
X129500000Y-118900000D03*
X129500000Y-117700000D03*
X127100000Y-118900000D03*
X127100000Y-117700000D03*
X122300000Y-117400000D03*
X120900000Y-115000000D03*
X121000000Y-117400000D03*
X120200000Y-118800000D03*
X119300000Y-120100000D03*
X120100000Y-120100000D03*
X119700000Y-117800000D03*
X118800000Y-117700000D03*
X119700000Y-115400000D03*
X118800000Y-115400000D03*
X119700000Y-113200000D03*
X118800000Y-113200000D03*
X119700000Y-110800000D03*
X118800000Y-110800000D03*
X119700000Y-108500000D03*
X118800000Y-108500000D03*
X133000000Y-106750000D03*
X132100000Y-106750000D03*
X131050000Y-106750000D03*
X129400000Y-108600000D03*
X129450000Y-110700000D03*
X129450000Y-109900000D03*
X128650000Y-109450000D03*
X132950000Y-114850000D03*
X130650000Y-114950000D03*
X132250000Y-114950000D03*
X131450000Y-116250000D03*
X131400000Y-115450000D03*
X131400000Y-114550000D03*
X131400000Y-113750000D03*
X130250000Y-112800000D03*
X129450000Y-111950000D03*
X130250000Y-111800000D03*
X131150000Y-111850000D03*
X131650000Y-112950000D03*
X133050000Y-112850000D03*
X133800000Y-112800000D03*
X134550000Y-110800000D03*
X134550000Y-109950000D03*
X135200000Y-109450000D03*
X134550000Y-109000000D03*
X134350000Y-107100000D03*
X135150000Y-107100000D03*
X138450000Y-114900000D03*
X139250000Y-114950000D03*
X140050000Y-114950000D03*
X140800000Y-114900000D03*
X140850000Y-114150000D03*
X139250000Y-114200000D03*
X142450000Y-110750000D03*
X142450000Y-108150000D03*
X143300000Y-109450000D03*
X142500000Y-109500000D03*
X142700000Y-111900000D03*
X141800000Y-112900000D03*
X140850000Y-113400000D03*
X140100000Y-113050000D03*
X139250000Y-113350000D03*
X139000000Y-112650000D03*
X138000000Y-112850000D03*
X137350000Y-110650000D03*
X137350000Y-109750000D03*
X136550000Y-109450000D03*
X137350000Y-108900000D03*
X137350000Y-107850000D03*
X137550000Y-106950000D03*
X136700000Y-106900000D03*
X140850000Y-104900000D03*
X141650000Y-104950000D03*
X142500000Y-104900000D03*
X143300000Y-104950000D03*
X143100000Y-106700000D03*
X140550000Y-106800000D03*
X139250000Y-108600000D03*
X140850000Y-108750000D03*
X139300000Y-110100000D03*
X139300000Y-110800000D03*
X138800000Y-109450000D03*
X139650000Y-109450000D03*
X140550000Y-109450000D03*
X139300000Y-107550000D03*
X140100000Y-107550000D03*
X140900000Y-107550000D03*
X141700000Y-107550000D03*
X126600000Y-108400000D03*
X123500000Y-109100000D03*
X121600000Y-107600000D03*
X126600000Y-109200000D03*
X126600000Y-107600000D03*
X121600000Y-109200000D03*
X124100000Y-107600000D03*
X125100000Y-108300000D03*
X121600000Y-108400000D03*
X125700000Y-107600000D03*
X122500000Y-107600000D03*
X125100000Y-109100000D03*
X123500000Y-108300000D03*
X124900000Y-107600000D03*
X123300000Y-107600000D03*
X122500000Y-109450000D03*
X121600000Y-110000000D03*
X120900000Y-109450000D03*
X121600000Y-110800000D03*
X121600000Y-111600000D03*
X122500000Y-111600000D03*
X122500000Y-112400000D03*
X122500000Y-113200000D03*
X122500000Y-114950000D03*
X124900000Y-113200000D03*
X125700000Y-113200000D03*
X125700000Y-112400000D03*
X125700000Y-111600000D03*
X126600000Y-111600000D03*
X126600000Y-110800000D03*
X126600000Y-110000000D03*
X127300000Y-109450000D03*
X124100000Y-109450000D03*
X123500000Y-109850000D03*
X130400000Y-107600000D03*
X131200000Y-107600000D03*
X132000000Y-107600000D03*
X132800000Y-107600000D03*
X132900000Y-108300000D03*
X132900000Y-109100000D03*
X132200000Y-109450000D03*
X131400000Y-109100000D03*
X131400000Y-108300000D03*
X130700000Y-109450000D03*
X131400000Y-109900000D03*
X131400000Y-110750000D03*
X130100000Y-106800000D03*
X132500000Y-104900000D03*
X131700000Y-104900000D03*
X130900000Y-104900000D03*
X130100000Y-104900000D03*
X122900000Y-106750000D03*
X123800000Y-106750000D03*
X124600000Y-106750000D03*
D36*
X135800000Y-105800000D03*
X134200000Y-105800000D03*
X135800000Y-102200000D03*
X134200000Y-102200000D03*
X127000000Y-105800000D03*
X128600000Y-105800000D03*
X128600000Y-102200000D03*
X127000000Y-102200000D03*
D35*
X125500000Y-104900000D03*
X124600000Y-104900000D03*
X123800000Y-104900000D03*
X122900000Y-104900000D03*
X125550000Y-106750000D03*
D36*
X138100000Y-119500000D03*
X119700000Y-104000000D03*
X121300000Y-102200000D03*
X121300000Y-105800000D03*
X119700000Y-102200000D03*
X121300000Y-104000000D03*
X135000000Y-125200000D03*
D35*
X125950000Y-138750000D03*
X140300000Y-136400000D03*
X113200000Y-106400000D03*
D36*
X112000000Y-149000000D03*
D37*
X136400000Y-129850000D03*
D36*
X102000000Y-135000000D03*
D35*
X96500000Y-109200000D03*
D36*
X101000000Y-121000000D03*
D35*
X105400000Y-112200000D03*
D36*
X146700000Y-112000000D03*
X111000000Y-127000000D03*
D35*
X137250000Y-135350000D03*
D36*
X118000000Y-150000000D03*
D35*
X149549500Y-127400000D03*
X131400000Y-139350000D03*
D36*
X107000000Y-126000000D03*
X147300000Y-120600000D03*
X97000000Y-126000000D03*
D35*
X122850000Y-126600000D03*
X122722812Y-130043287D03*
D36*
X102000000Y-149000000D03*
D35*
X121800000Y-140650000D03*
D37*
X146800000Y-123400000D03*
D35*
X149549500Y-132500000D03*
D36*
X104000000Y-133000000D03*
D35*
X149549500Y-131100000D03*
D36*
X109000000Y-125000000D03*
D35*
X146200000Y-121500000D03*
X99550000Y-115900000D03*
D36*
X102000000Y-123000000D03*
D35*
X125500000Y-124500000D03*
D36*
X117300000Y-118900000D03*
X97000000Y-123000000D03*
D35*
X149549500Y-134000000D03*
D36*
X117400000Y-107400000D03*
D35*
X139100000Y-120400000D03*
X110000000Y-100900000D03*
D36*
X111000000Y-124000000D03*
D35*
X136400000Y-131400000D03*
D36*
X136000000Y-128000000D03*
D35*
X114969500Y-141200000D03*
X130300000Y-138700000D03*
X107500000Y-118000000D03*
X90800000Y-112800000D03*
X97400000Y-110300000D03*
X108100000Y-110700000D03*
X105600000Y-100700000D03*
D36*
X127000000Y-120500000D03*
D35*
X147600000Y-113100000D03*
X110700000Y-117800000D03*
D37*
X145600000Y-130750000D03*
D35*
X90900000Y-100500000D03*
X112100000Y-117900000D03*
D36*
X131000000Y-151000000D03*
X137000000Y-151000000D03*
X108000000Y-149000000D03*
D37*
X137700000Y-124100000D03*
D35*
X98100000Y-114300000D03*
D36*
X146700000Y-114200000D03*
X112000000Y-114500000D03*
D35*
X129700000Y-120300000D03*
D36*
X122000000Y-150000000D03*
D35*
X117300000Y-131800000D03*
D36*
X117400000Y-109700000D03*
X97000000Y-132000000D03*
X136000000Y-141000000D03*
D35*
X149600000Y-128300000D03*
D37*
X143350000Y-123400000D03*
D36*
X114500000Y-115000000D03*
X117300000Y-116600000D03*
D35*
X136700000Y-123700000D03*
X141600000Y-121500000D03*
D36*
X149000000Y-144000000D03*
D35*
X124050000Y-142350000D03*
D36*
X146700000Y-109700000D03*
D35*
X136600000Y-120700000D03*
D36*
X107000000Y-123000000D03*
D35*
X96400000Y-115800000D03*
D37*
X147200000Y-128512500D03*
D36*
X123500000Y-124000000D03*
X101000000Y-129000000D03*
X146700000Y-116500000D03*
D35*
X149549500Y-135300000D03*
X119875500Y-141700000D03*
X136800000Y-136100000D03*
X147600000Y-110800000D03*
X115900000Y-130900000D03*
D37*
X148550000Y-133050000D03*
D36*
X142700000Y-120700000D03*
D35*
X92100000Y-106300000D03*
X116800000Y-130900000D03*
D36*
X117400000Y-112000000D03*
X116300000Y-102200000D03*
X115000000Y-111000000D03*
D35*
X135250000Y-134100000D03*
X143900000Y-121500000D03*
X96300000Y-139400000D03*
D36*
X115000000Y-108500000D03*
D35*
X131300000Y-124700000D03*
D36*
X102000000Y-132000000D03*
D35*
X109700000Y-105500000D03*
D36*
X111000000Y-133000000D03*
X111000000Y-130000000D03*
X105000000Y-121000000D03*
X108000000Y-129000000D03*
X128500000Y-120500000D03*
D35*
X135800000Y-120700000D03*
X94300000Y-108500000D03*
D36*
X98000000Y-147000000D03*
X116300000Y-104000000D03*
D35*
X105600000Y-105200000D03*
D36*
X146700000Y-107400000D03*
D35*
X111000000Y-111600000D03*
X96900000Y-143500000D03*
X124350000Y-141050000D03*
X100300000Y-138600000D03*
D36*
X142000000Y-151000000D03*
D35*
X113100000Y-102300000D03*
X119200000Y-122800000D03*
D37*
X147250000Y-133100000D03*
D35*
X102000000Y-100800000D03*
D36*
X97000000Y-135000000D03*
X145000000Y-120600000D03*
D35*
X119800000Y-139100000D03*
D36*
X117900000Y-104000000D03*
D35*
X136600000Y-125400000D03*
X149549500Y-129600000D03*
D36*
X117900000Y-102200000D03*
X140400000Y-120600000D03*
X121400000Y-120600000D03*
D35*
X139300000Y-121500000D03*
D36*
X117900000Y-105800000D03*
X104000000Y-124000000D03*
X117400000Y-114300000D03*
D35*
X147600000Y-108500000D03*
X132150000Y-143900000D03*
X131100000Y-135700000D03*
D36*
X115000000Y-106500000D03*
D37*
X147800000Y-134200000D03*
D35*
X132450000Y-133900000D03*
D37*
X141300000Y-123200000D03*
D35*
X147600000Y-115400000D03*
X97100000Y-106300000D03*
D37*
X138850000Y-123300000D03*
D35*
X102900000Y-115600000D03*
X134650000Y-132450000D03*
X118100000Y-122200000D03*
D36*
X116300000Y-105800000D03*
D35*
X149549500Y-126400000D03*
X95300000Y-101200000D03*
D37*
X148250000Y-136200000D03*
D36*
X102000000Y-126000000D03*
D35*
X94900000Y-143600000D03*
D36*
X107000000Y-132000000D03*
X137600000Y-105800000D03*
X139200000Y-104000000D03*
X137600000Y-104000000D03*
D35*
X132749500Y-122827914D03*
D36*
X139200000Y-105800000D03*
X139200000Y-102200000D03*
D35*
X139300000Y-115700000D03*
D36*
X137600000Y-102200000D03*
X135800000Y-104000000D03*
X134200000Y-104000000D03*
D35*
X133000000Y-114100000D03*
X129417678Y-122687691D03*
D36*
X127000000Y-104000000D03*
X128600000Y-104000000D03*
D35*
X125000000Y-114100000D03*
X126902207Y-122725775D03*
X133401999Y-123297697D03*
X132120923Y-123536195D03*
X142000000Y-106600000D03*
X131236992Y-123536992D03*
X128623055Y-122599500D03*
X130300000Y-122700000D03*
X133600000Y-107600000D03*
X130374500Y-123516306D03*
X127726609Y-122673391D03*
X126000000Y-122700000D03*
X125158660Y-122741837D03*
X123400000Y-110750000D03*
X120600000Y-135100000D03*
X126700000Y-135700000D03*
X127300000Y-138100000D03*
X112700000Y-120624500D03*
X113200000Y-121500000D03*
X113183411Y-122316589D03*
X113100500Y-123200000D03*
X99625500Y-114400000D03*
X106000000Y-114400000D03*
X99200000Y-122300000D03*
X99500000Y-117000000D03*
X103900000Y-117000000D03*
X112624369Y-116793908D03*
X117700000Y-141500000D03*
X118305000Y-145905000D03*
X113400000Y-116600000D03*
X108775500Y-116175500D03*
X113600000Y-131200000D03*
X120672906Y-126785033D03*
X121525500Y-126850546D03*
X113500000Y-132400000D03*
X113200498Y-134900000D03*
X121575500Y-127649500D03*
X112000000Y-120200000D03*
D37*
X117149500Y-124750000D03*
D35*
X124200000Y-127874500D03*
X123400497Y-127874500D03*
X123797312Y-129124000D03*
X124458146Y-129574000D03*
X120600000Y-136350000D03*
X120600000Y-137635000D03*
X117700000Y-135100000D03*
X112407906Y-134795110D03*
X121600000Y-123400000D03*
X99550000Y-118350000D03*
X98250000Y-118350000D03*
M02*
