%TF.GenerationSoftware,KiCad,Pcbnew,(6.0.7)*%
%TF.CreationDate,2023-02-02T22:14:04+01:00*%
%TF.ProjectId,bldc,626c6463-2e6b-4696-9361-645f70636258,rev?*%
%TF.SameCoordinates,Original*%
%TF.FileFunction,Paste,Top*%
%TF.FilePolarity,Positive*%
%FSLAX46Y46*%
G04 Gerber Fmt 4.6, Leading zero omitted, Abs format (unit mm)*
G04 Created by KiCad (PCBNEW (6.0.7)) date 2023-02-02 22:14:04*
%MOMM*%
%LPD*%
G01*
G04 APERTURE LIST*
G04 Aperture macros list*
%AMRoundRect*
0 Rectangle with rounded corners*
0 $1 Rounding radius*
0 $2 $3 $4 $5 $6 $7 $8 $9 X,Y pos of 4 corners*
0 Add a 4 corners polygon primitive as box body*
4,1,4,$2,$3,$4,$5,$6,$7,$8,$9,$2,$3,0*
0 Add four circle primitives for the rounded corners*
1,1,$1+$1,$2,$3*
1,1,$1+$1,$4,$5*
1,1,$1+$1,$6,$7*
1,1,$1+$1,$8,$9*
0 Add four rect primitives between the rounded corners*
20,1,$1+$1,$2,$3,$4,$5,0*
20,1,$1+$1,$4,$5,$6,$7,0*
20,1,$1+$1,$6,$7,$8,$9,0*
20,1,$1+$1,$8,$9,$2,$3,0*%
%AMFreePoly0*
4,1,51,0.148811,0.227017,0.155848,0.222473,0.164140,0.221271,0.182835,0.205048,0.203627,0.191623,0.207094,0.183997,0.213422,0.178506,0.220389,0.154757,0.230634,0.132225,0.229432,0.123933,0.231790,0.115895,0.231790,-0.115895,0.227017,-0.148811,0.222473,-0.155848,0.221271,-0.164140,0.205048,-0.182835,0.191623,-0.203627,0.183997,-0.207094,0.178506,-0.213422,0.154757,-0.220389,
0.132225,-0.230634,0.123933,-0.229432,0.115895,-0.231790,-0.012362,-0.231790,-0.032788,-0.228828,-0.037051,-0.229130,-0.039343,-0.227878,-0.045278,-0.227017,-0.069258,-0.211534,-0.094312,-0.197845,-0.197845,-0.094312,-0.210194,-0.077774,-0.213422,-0.074973,-0.214157,-0.072467,-0.217745,-0.067662,-0.223753,-0.039758,-0.231790,-0.012362,-0.231790,0.115895,-0.227017,0.148811,-0.222473,0.155848,
-0.221271,0.164140,-0.205048,0.182835,-0.191623,0.203627,-0.183997,0.207094,-0.178506,0.213422,-0.154757,0.220389,-0.132225,0.230634,-0.123933,0.229432,-0.115895,0.231790,0.115895,0.231790,0.148811,0.227017,0.148811,0.227017,$1*%
%AMFreePoly1*
4,1,51,0.148811,0.227017,0.155848,0.222473,0.164140,0.221271,0.182835,0.205048,0.203627,0.191623,0.207094,0.183997,0.213422,0.178506,0.220389,0.154757,0.230634,0.132225,0.229432,0.123933,0.231790,0.115895,0.231790,-0.115895,0.227017,-0.148811,0.222473,-0.155848,0.221271,-0.164140,0.205048,-0.182835,0.191623,-0.203627,0.183997,-0.207094,0.178506,-0.213422,0.154757,-0.220389,
0.132225,-0.230634,0.123933,-0.229432,0.115895,-0.231790,-0.115895,-0.231790,-0.148811,-0.227017,-0.155848,-0.222473,-0.164140,-0.221271,-0.182835,-0.205048,-0.203627,-0.191623,-0.207094,-0.183997,-0.213422,-0.178506,-0.220389,-0.154757,-0.230634,-0.132225,-0.229432,-0.123933,-0.231790,-0.115895,-0.231790,0.012362,-0.228828,0.032788,-0.229130,0.037051,-0.227878,0.039343,-0.227017,0.045278,
-0.211534,0.069258,-0.197845,0.094312,-0.094312,0.197845,-0.077774,0.210194,-0.074973,0.213422,-0.072467,0.214157,-0.067662,0.217745,-0.039758,0.223753,-0.012362,0.231790,0.115895,0.231790,0.148811,0.227017,0.148811,0.227017,$1*%
%AMFreePoly2*
4,1,51,0.240350,0.230796,0.242745,0.231438,0.246415,0.229727,0.266218,0.226235,0.281621,0.213310,0.299841,0.204814,0.376138,0.128518,0.379417,0.123835,0.381565,0.122595,0.382950,0.118789,0.394483,0.102318,0.396235,0.082290,0.403112,0.063396,0.403112,-0.139692,0.401003,-0.151655,0.401713,-0.155684,0.399668,-0.159227,0.397558,-0.171191,0.382178,-0.189520,0.370214,-0.210242,
0.362404,-0.213085,0.357063,-0.219450,0.333500,-0.223605,0.311015,-0.231789,-0.311015,-0.231789,-0.322978,-0.229680,-0.327007,-0.230390,-0.330550,-0.228345,-0.342514,-0.226235,-0.360843,-0.210855,-0.381565,-0.198891,-0.384408,-0.191081,-0.390773,-0.185740,-0.394928,-0.162177,-0.403112,-0.139692,-0.403112,0.063396,-0.402119,0.069027,-0.402761,0.071422,-0.401050,0.075092,-0.397558,0.094895,
-0.384633,0.110298,-0.376137,0.128518,-0.299841,0.204815,-0.295158,0.208094,-0.293918,0.210242,-0.290112,0.211627,-0.273641,0.223160,-0.253613,0.224912,-0.234719,0.231789,0.234719,0.231789,0.240350,0.230796,0.240350,0.230796,$1*%
%AMFreePoly3*
4,1,51,0.032788,0.228828,0.037051,0.229130,0.039343,0.227878,0.045278,0.227017,0.069258,0.211534,0.094312,0.197845,0.197845,0.094312,0.210194,0.077774,0.213422,0.074973,0.214157,0.072467,0.217745,0.067662,0.223753,0.039758,0.231790,0.012362,0.231790,-0.115895,0.227017,-0.148811,0.222473,-0.155848,0.221271,-0.164140,0.205048,-0.182835,0.191623,-0.203627,0.183997,-0.207094,
0.178506,-0.213422,0.154757,-0.220389,0.132225,-0.230634,0.123933,-0.229432,0.115895,-0.231790,-0.115895,-0.231790,-0.148811,-0.227017,-0.155848,-0.222473,-0.164140,-0.221271,-0.182835,-0.205048,-0.203627,-0.191623,-0.207094,-0.183997,-0.213422,-0.178506,-0.220389,-0.154757,-0.230634,-0.132225,-0.229432,-0.123933,-0.231790,-0.115895,-0.231790,0.115895,-0.227017,0.148811,-0.222473,0.155848,
-0.221271,0.164140,-0.205048,0.182835,-0.191623,0.203627,-0.183997,0.207094,-0.178506,0.213422,-0.154757,0.220389,-0.132225,0.230634,-0.123933,0.229432,-0.115895,0.231790,0.012362,0.231790,0.032788,0.228828,0.032788,0.228828,$1*%
%AMFreePoly4*
4,1,51,0.151655,0.401003,0.155684,0.401713,0.159227,0.399668,0.171191,0.397558,0.189520,0.382178,0.210242,0.370214,0.213085,0.362404,0.219450,0.357063,0.223605,0.333500,0.231789,0.311015,0.231789,-0.311015,0.229680,-0.322978,0.230390,-0.327007,0.228345,-0.330550,0.226235,-0.342514,0.210855,-0.360843,0.198891,-0.381565,0.191081,-0.384408,0.185740,-0.390773,0.162177,-0.394928,
0.139692,-0.403112,-0.063396,-0.403112,-0.069025,-0.402120,-0.071422,-0.402762,-0.075095,-0.401049,-0.094895,-0.397558,-0.110295,-0.384635,-0.128518,-0.376138,-0.204814,-0.299841,-0.208092,-0.295159,-0.210242,-0.293918,-0.211628,-0.290110,-0.223160,-0.273641,-0.224912,-0.253613,-0.231789,-0.234719,-0.231789,0.234719,-0.230796,0.240350,-0.231438,0.242745,-0.229727,0.246415,-0.226235,0.266218,
-0.213310,0.281621,-0.204814,0.299841,-0.128518,0.376138,-0.123835,0.379417,-0.122595,0.381565,-0.118789,0.382950,-0.102318,0.394483,-0.082290,0.396235,-0.063396,0.403112,0.139692,0.403112,0.151655,0.401003,0.151655,0.401003,$1*%
%AMFreePoly5*
4,1,51,0.069027,0.402119,0.071422,0.402761,0.075092,0.401050,0.094895,0.397558,0.110298,0.384633,0.128518,0.376137,0.204815,0.299841,0.208094,0.295158,0.210242,0.293918,0.211627,0.290112,0.223160,0.273641,0.224912,0.253613,0.231789,0.234719,0.231789,-0.234719,0.230797,-0.240348,0.231439,-0.242745,0.229726,-0.246418,0.226235,-0.266218,0.213312,-0.281618,0.204815,-0.299841,
0.128518,-0.376137,0.123836,-0.379415,0.122595,-0.381565,0.118787,-0.382951,0.102318,-0.394483,0.082290,-0.396235,0.063396,-0.403112,-0.139692,-0.403112,-0.151655,-0.401003,-0.155684,-0.401713,-0.159227,-0.399668,-0.171191,-0.397558,-0.189520,-0.382178,-0.210242,-0.370214,-0.213085,-0.362404,-0.219450,-0.357063,-0.223605,-0.333500,-0.231789,-0.311015,-0.231789,0.311015,-0.229680,0.322978,
-0.230390,0.327007,-0.228345,0.330550,-0.226235,0.342514,-0.210855,0.360843,-0.198891,0.381565,-0.191081,0.384408,-0.185740,0.390773,-0.162177,0.394928,-0.139692,0.403112,0.063396,0.403112,0.069027,0.402119,0.069027,0.402119,$1*%
%AMFreePoly6*
4,1,51,0.322978,0.229680,0.327007,0.230390,0.330550,0.228345,0.342514,0.226235,0.360843,0.210855,0.381565,0.198891,0.384408,0.191081,0.390773,0.185740,0.394928,0.162177,0.403112,0.139692,0.403112,-0.063396,0.402120,-0.069025,0.402762,-0.071422,0.401049,-0.075095,0.397558,-0.094895,0.384635,-0.110295,0.376138,-0.128518,0.299841,-0.204814,0.295159,-0.208092,0.293918,-0.210242,
0.290110,-0.211628,0.273641,-0.223160,0.253613,-0.224912,0.234719,-0.231789,-0.234719,-0.231789,-0.240348,-0.230797,-0.242745,-0.231439,-0.246418,-0.229726,-0.266218,-0.226235,-0.281618,-0.213312,-0.299841,-0.204815,-0.376137,-0.128518,-0.379415,-0.123836,-0.381565,-0.122595,-0.382951,-0.118787,-0.394483,-0.102318,-0.396235,-0.082290,-0.403112,-0.063396,-0.403112,0.139692,-0.401003,0.151655,
-0.401713,0.155684,-0.399668,0.159227,-0.397558,0.171191,-0.382178,0.189520,-0.370214,0.210242,-0.362404,0.213085,-0.357063,0.219450,-0.333500,0.223605,-0.311015,0.231789,0.311015,0.231789,0.322978,0.229680,0.322978,0.229680,$1*%
%AMFreePoly7*
4,1,51,0.148811,0.227017,0.155848,0.222473,0.164140,0.221271,0.182835,0.205048,0.203627,0.191623,0.207094,0.183997,0.213422,0.178506,0.220389,0.154757,0.230634,0.132225,0.229432,0.123933,0.231790,0.115895,0.231790,-0.012362,0.228828,-0.032788,0.229130,-0.037051,0.227878,-0.039343,0.227017,-0.045278,0.211534,-0.069258,0.197845,-0.094312,0.094312,-0.197845,0.077774,-0.210194,
0.074973,-0.213422,0.072467,-0.214157,0.067662,-0.217745,0.039758,-0.223753,0.012362,-0.231790,-0.115895,-0.231790,-0.148811,-0.227017,-0.155848,-0.222473,-0.164140,-0.221271,-0.182835,-0.205048,-0.203627,-0.191623,-0.207094,-0.183997,-0.213422,-0.178506,-0.220389,-0.154757,-0.230634,-0.132225,-0.229432,-0.123933,-0.231790,-0.115895,-0.231790,0.115895,-0.227017,0.148811,-0.222473,0.155848,
-0.221271,0.164140,-0.205048,0.182835,-0.191623,0.203627,-0.183997,0.207094,-0.178506,0.213422,-0.154757,0.220389,-0.132225,0.230634,-0.123933,0.229432,-0.115895,0.231790,0.115895,0.231790,0.148811,0.227017,0.148811,0.227017,$1*%
G04 Aperture macros list end*
%ADD10R,0.900000X1.850000*%
%ADD11R,0.650000X1.151000*%
%ADD12R,1.000000X1.350000*%
%ADD13R,0.650000X1.350000*%
%ADD14RoundRect,0.175000X0.175000X-0.275000X0.175000X0.275000X-0.175000X0.275000X-0.175000X-0.275000X0*%
%ADD15RoundRect,0.250000X-0.650000X0.325000X-0.650000X-0.325000X0.650000X-0.325000X0.650000X0.325000X0*%
%ADD16RoundRect,0.250000X1.425000X-0.362500X1.425000X0.362500X-1.425000X0.362500X-1.425000X-0.362500X0*%
%ADD17RoundRect,0.225000X-0.225000X-0.250000X0.225000X-0.250000X0.225000X0.250000X-0.225000X0.250000X0*%
%ADD18RoundRect,0.250000X0.325000X0.650000X-0.325000X0.650000X-0.325000X-0.650000X0.325000X-0.650000X0*%
%ADD19RoundRect,0.135000X-0.135000X-0.185000X0.135000X-0.185000X0.135000X0.185000X-0.135000X0.185000X0*%
%ADD20RoundRect,0.140000X0.170000X-0.140000X0.170000X0.140000X-0.170000X0.140000X-0.170000X-0.140000X0*%
%ADD21RoundRect,0.250000X0.625000X-0.400000X0.625000X0.400000X-0.625000X0.400000X-0.625000X-0.400000X0*%
%ADD22RoundRect,0.250000X-0.325000X-0.650000X0.325000X-0.650000X0.325000X0.650000X-0.325000X0.650000X0*%
%ADD23RoundRect,0.250000X-0.625000X0.400000X-0.625000X-0.400000X0.625000X-0.400000X0.625000X0.400000X0*%
%ADD24RoundRect,0.200000X-0.275000X0.200000X-0.275000X-0.200000X0.275000X-0.200000X0.275000X0.200000X0*%
%ADD25RoundRect,0.200000X0.275000X-0.200000X0.275000X0.200000X-0.275000X0.200000X-0.275000X-0.200000X0*%
%ADD26R,0.600000X1.450000*%
%ADD27R,0.300000X1.450000*%
%ADD28RoundRect,0.135000X-0.185000X0.135000X-0.185000X-0.135000X0.185000X-0.135000X0.185000X0.135000X0*%
%ADD29RoundRect,0.225000X0.225000X0.250000X-0.225000X0.250000X-0.225000X-0.250000X0.225000X-0.250000X0*%
%ADD30RoundRect,0.235000X-1.465000X0.940000X-1.465000X-0.940000X1.465000X-0.940000X1.465000X0.940000X0*%
%ADD31RoundRect,0.150000X0.150000X-0.512500X0.150000X0.512500X-0.150000X0.512500X-0.150000X-0.512500X0*%
%ADD32RoundRect,0.135000X0.185000X-0.135000X0.185000X0.135000X-0.185000X0.135000X-0.185000X-0.135000X0*%
%ADD33RoundRect,0.140000X0.140000X0.170000X-0.140000X0.170000X-0.140000X-0.170000X0.140000X-0.170000X0*%
%ADD34RoundRect,0.135000X0.135000X0.185000X-0.135000X0.185000X-0.135000X-0.185000X0.135000X-0.185000X0*%
%ADD35RoundRect,0.750000X-0.750000X-1.750000X0.750000X-1.750000X0.750000X1.750000X-0.750000X1.750000X0*%
%ADD36RoundRect,0.150000X-0.825000X-0.150000X0.825000X-0.150000X0.825000X0.150000X-0.825000X0.150000X0*%
%ADD37RoundRect,0.140000X-0.170000X0.140000X-0.170000X-0.140000X0.170000X-0.140000X0.170000X0.140000X0*%
%ADD38R,0.900000X1.500000*%
%ADD39R,1.500000X0.900000*%
%ADD40R,0.900000X0.900000*%
%ADD41RoundRect,0.225000X-0.017678X0.335876X-0.335876X0.017678X0.017678X-0.335876X0.335876X-0.017678X0*%
%ADD42RoundRect,0.750000X0.750000X1.750000X-0.750000X1.750000X-0.750000X-1.750000X0.750000X-1.750000X0*%
%ADD43RoundRect,0.150000X0.512500X0.150000X-0.512500X0.150000X-0.512500X-0.150000X0.512500X-0.150000X0*%
%ADD44R,1.700000X1.000000*%
%ADD45RoundRect,0.218750X0.256250X-0.218750X0.256250X0.218750X-0.256250X0.218750X-0.256250X-0.218750X0*%
%ADD46RoundRect,0.062500X0.062500X0.375000X-0.062500X0.375000X-0.062500X-0.375000X0.062500X-0.375000X0*%
%ADD47RoundRect,0.062500X0.375000X0.062500X-0.375000X0.062500X-0.375000X-0.062500X0.375000X-0.062500X0*%
%ADD48RoundRect,0.201557X0.201556X0.201556X-0.201556X0.201556X-0.201556X-0.201556X0.201556X-0.201556X0*%
%ADD49FreePoly0,180.000000*%
%ADD50FreePoly1,180.000000*%
%ADD51FreePoly2,180.000000*%
%ADD52FreePoly3,180.000000*%
%ADD53FreePoly4,180.000000*%
%ADD54FreePoly5,180.000000*%
%ADD55FreePoly6,180.000000*%
%ADD56FreePoly7,180.000000*%
G04 APERTURE END LIST*
D10*
%TO.C,Q3*%
X128800000Y-113750000D03*
X135200000Y-113750000D03*
X135200000Y-116150000D03*
X128800000Y-116150000D03*
D11*
X133550000Y-115900000D03*
D12*
X130625000Y-115800000D03*
D13*
X133550000Y-114100000D03*
D12*
X132175000Y-114100000D03*
X132175000Y-115800000D03*
X130625000Y-114100000D03*
%TD*%
D10*
%TO.C,Q6*%
X120900000Y-110650000D03*
X127300000Y-108250000D03*
X127300000Y-110650000D03*
X120900000Y-108250000D03*
D11*
X125650000Y-110400000D03*
D12*
X122725000Y-108600000D03*
D13*
X125650000Y-108600000D03*
D12*
X124275000Y-108600000D03*
X122725000Y-110300000D03*
X124275000Y-110300000D03*
%TD*%
D10*
%TO.C,Q2*%
X136700000Y-108250000D03*
X143100000Y-110650000D03*
X143100000Y-108250000D03*
X136700000Y-110650000D03*
D11*
X141450000Y-110400000D03*
D12*
X138525000Y-110300000D03*
X138525000Y-108600000D03*
X140075000Y-108600000D03*
X140075000Y-110300000D03*
D13*
X141450000Y-108600000D03*
%TD*%
D10*
%TO.C,Q5*%
X127300000Y-116150000D03*
X127300000Y-113750000D03*
X120900000Y-113750000D03*
X120900000Y-116150000D03*
D11*
X125650000Y-115900000D03*
D12*
X124275000Y-115800000D03*
X124275000Y-114100000D03*
X122725000Y-115800000D03*
X122725000Y-114100000D03*
D13*
X125650000Y-114100000D03*
%TD*%
D10*
%TO.C,Q4*%
X135200000Y-108250000D03*
X135200000Y-110650000D03*
X128800000Y-110650000D03*
X128800000Y-108250000D03*
D11*
X133550000Y-110400000D03*
D12*
X130625000Y-110300000D03*
X132175000Y-110300000D03*
D13*
X133550000Y-108600000D03*
D12*
X132175000Y-108600000D03*
X130625000Y-108600000D03*
%TD*%
D10*
%TO.C,Q1*%
X136700000Y-116150000D03*
X143100000Y-113750000D03*
X136700000Y-113750000D03*
X143100000Y-116150000D03*
D11*
X141450000Y-115900000D03*
D12*
X140075000Y-115800000D03*
X140075000Y-114100000D03*
D13*
X141450000Y-114100000D03*
D12*
X138525000Y-114100000D03*
X138525000Y-115800000D03*
%TD*%
D14*
%TO.C,D1*%
X117750000Y-133600000D03*
X119650000Y-133600000D03*
X118700000Y-131600000D03*
%TD*%
D15*
%TO.C,C16*%
X119050000Y-120925000D03*
X119050000Y-123875000D03*
%TD*%
D16*
%TO.C,R2*%
X131400000Y-105862500D03*
X131400000Y-99937500D03*
%TD*%
D15*
%TO.C,C15*%
X121400000Y-118575000D03*
X121400000Y-121525000D03*
%TD*%
D17*
%TO.C,C21*%
X133225000Y-127800000D03*
X134775000Y-127800000D03*
%TD*%
D18*
%TO.C,C3*%
X119375000Y-116600000D03*
X116425000Y-116600000D03*
%TD*%
D19*
%TO.C,R6*%
X147190000Y-131800000D03*
X148210000Y-131800000D03*
%TD*%
D20*
%TO.C,C35*%
X123850000Y-136530000D03*
X123850000Y-135570000D03*
%TD*%
D17*
%TO.C,C37*%
X145075000Y-135900000D03*
X146625000Y-135900000D03*
%TD*%
D21*
%TO.C,R27*%
X94900000Y-145150000D03*
X94900000Y-142050000D03*
%TD*%
D18*
%TO.C,C17*%
X119375000Y-114300000D03*
X116425000Y-114300000D03*
%TD*%
D16*
%TO.C,R3*%
X124200000Y-105862500D03*
X124200000Y-99937500D03*
%TD*%
D22*
%TO.C,C31*%
X144625000Y-107350000D03*
X147575000Y-107350000D03*
%TD*%
D23*
%TO.C,R10*%
X145100000Y-138850000D03*
X145100000Y-141950000D03*
%TD*%
D24*
%TO.C,R26*%
X123750000Y-137675000D03*
X123750000Y-139325000D03*
%TD*%
D25*
%TO.C,R25*%
X116300000Y-133525000D03*
X116300000Y-131875000D03*
%TD*%
D26*
%TO.C,J8*%
X116750000Y-144455000D03*
X117550000Y-144455000D03*
D27*
X118250000Y-144455000D03*
X119250000Y-144455000D03*
X120750000Y-144455000D03*
X121750000Y-144455000D03*
D26*
X122450000Y-144455000D03*
X123250000Y-144455000D03*
X123250000Y-144455000D03*
X122450000Y-144455000D03*
D27*
X121250000Y-144455000D03*
X120250000Y-144455000D03*
X119750000Y-144455000D03*
X118750000Y-144455000D03*
D26*
X117550000Y-144455000D03*
X116750000Y-144455000D03*
%TD*%
D28*
%TO.C,R18*%
X124350000Y-130890000D03*
X124350000Y-131910000D03*
%TD*%
D22*
%TO.C,C32*%
X144625000Y-109650000D03*
X147575000Y-109650000D03*
%TD*%
D29*
%TO.C,C40*%
X97775000Y-138600000D03*
X96225000Y-138600000D03*
%TD*%
D30*
%TO.C,L1*%
X140900000Y-126487500D03*
X140900000Y-132537500D03*
%TD*%
D31*
%TO.C,U3*%
X146250000Y-129400000D03*
X147200000Y-129400000D03*
X148150000Y-129400000D03*
X148150000Y-127125000D03*
X147200000Y-127125000D03*
X146250000Y-127125000D03*
%TD*%
D15*
%TO.C,C8*%
X123700000Y-118575000D03*
X123700000Y-121525000D03*
%TD*%
D18*
%TO.C,C6*%
X119375000Y-118900000D03*
X116425000Y-118900000D03*
%TD*%
D32*
%TO.C,R5*%
X121800000Y-142710000D03*
X121800000Y-141690000D03*
%TD*%
D33*
%TO.C,C25*%
X127180000Y-131650000D03*
X126220000Y-131650000D03*
%TD*%
D15*
%TO.C,C7*%
X135800000Y-118575000D03*
X135800000Y-121525000D03*
%TD*%
D34*
%TO.C,R12*%
X96910000Y-112600000D03*
X95890000Y-112600000D03*
%TD*%
D35*
%TO.C,J5*%
X117100000Y-104000000D03*
%TD*%
D32*
%TO.C,R4*%
X115100000Y-142710000D03*
X115100000Y-141690000D03*
%TD*%
D36*
%TO.C,U6*%
X128475000Y-135545000D03*
X128475000Y-136815000D03*
X128475000Y-138085000D03*
X128475000Y-139355000D03*
X133425000Y-139355000D03*
X133425000Y-138085000D03*
X133425000Y-136815000D03*
X133425000Y-135545000D03*
%TD*%
D20*
%TO.C,C42*%
X99000000Y-139280000D03*
X99000000Y-138320000D03*
%TD*%
D29*
%TO.C,C26*%
X147925000Y-125450000D03*
X146375000Y-125450000D03*
%TD*%
D37*
%TO.C,C27*%
X144950000Y-127470000D03*
X144950000Y-128430000D03*
%TD*%
D15*
%TO.C,C4*%
X133500000Y-118575000D03*
X133500000Y-121525000D03*
%TD*%
D38*
%TO.C,U2*%
X96690000Y-136750000D03*
X97960000Y-136750000D03*
X99230000Y-136750000D03*
X100500000Y-136750000D03*
X101770000Y-136750000D03*
X103040000Y-136750000D03*
X104310000Y-136750000D03*
X105580000Y-136750000D03*
X106850000Y-136750000D03*
X108120000Y-136750000D03*
X109390000Y-136750000D03*
X110660000Y-136750000D03*
X111930000Y-136750000D03*
X113200000Y-136750000D03*
D39*
X114450000Y-134985000D03*
X114450000Y-133715000D03*
X114450000Y-132445000D03*
X114450000Y-131175000D03*
X114450000Y-129905000D03*
X114450000Y-128635000D03*
X114450000Y-127365000D03*
X114450000Y-126095000D03*
X114450000Y-124825000D03*
X114450000Y-123555000D03*
X114450000Y-122285000D03*
X114450000Y-121015000D03*
D38*
X113200000Y-119250000D03*
X111930000Y-119250000D03*
X110660000Y-119250000D03*
X109390000Y-119250000D03*
X108120000Y-119250000D03*
X106850000Y-119250000D03*
X105580000Y-119250000D03*
X104310000Y-119250000D03*
X103040000Y-119250000D03*
X101770000Y-119250000D03*
X100500000Y-119250000D03*
X99230000Y-119250000D03*
X97960000Y-119250000D03*
X96690000Y-119250000D03*
D40*
X105810000Y-128100000D03*
X103010000Y-129500000D03*
X104410000Y-128100000D03*
X105810000Y-129500000D03*
X103010000Y-128100000D03*
X105810000Y-130900000D03*
X103010000Y-130900000D03*
X104410000Y-129500000D03*
X104410000Y-130900000D03*
%TD*%
D41*
%TO.C,C24*%
X133298008Y-131051992D03*
X132201992Y-132148008D03*
%TD*%
D34*
%TO.C,R15*%
X145560000Y-143400000D03*
X144540000Y-143400000D03*
%TD*%
D42*
%TO.C,J2*%
X135000000Y-104000000D03*
%TD*%
D19*
%TO.C,R29*%
X121690000Y-122900000D03*
X122710000Y-122900000D03*
%TD*%
D22*
%TO.C,C29*%
X144625000Y-111950000D03*
X147575000Y-111950000D03*
%TD*%
%TO.C,C18*%
X144625000Y-114250000D03*
X147575000Y-114250000D03*
%TD*%
D20*
%TO.C,C41*%
X106500000Y-113480000D03*
X106500000Y-112520000D03*
%TD*%
D32*
%TO.C,R11*%
X106500000Y-115410000D03*
X106500000Y-114390000D03*
%TD*%
D15*
%TO.C,C13*%
X140400000Y-118575000D03*
X140400000Y-121525000D03*
%TD*%
D18*
%TO.C,C14*%
X119375000Y-112000000D03*
X116425000Y-112000000D03*
%TD*%
D17*
%TO.C,C36*%
X143575000Y-134350000D03*
X145125000Y-134350000D03*
%TD*%
D34*
%TO.C,R14*%
X145560000Y-144400000D03*
X144540000Y-144400000D03*
%TD*%
D15*
%TO.C,C5*%
X128300000Y-118575000D03*
X128300000Y-121525000D03*
%TD*%
D19*
%TO.C,R30*%
X95800000Y-117600000D03*
X96820000Y-117600000D03*
%TD*%
D34*
%TO.C,R7*%
X148210000Y-130800000D03*
X147190000Y-130800000D03*
%TD*%
D20*
%TO.C,C33*%
X126750000Y-138080000D03*
X126750000Y-137120000D03*
%TD*%
D36*
%TO.C,U7*%
X116775000Y-135095000D03*
X116775000Y-136365000D03*
X116775000Y-137635000D03*
X116775000Y-138905000D03*
X121725000Y-138905000D03*
X121725000Y-137635000D03*
X121725000Y-136365000D03*
X121725000Y-135095000D03*
%TD*%
D15*
%TO.C,C2*%
X145000000Y-118575000D03*
X145000000Y-121525000D03*
%TD*%
D29*
%TO.C,C23*%
X134775000Y-129300000D03*
X133225000Y-129300000D03*
%TD*%
D15*
%TO.C,C12*%
X142700000Y-118575000D03*
X142700000Y-121525000D03*
%TD*%
%TO.C,C28*%
X147300000Y-118575000D03*
X147300000Y-121525000D03*
%TD*%
%TO.C,C19*%
X126000000Y-118575000D03*
X126000000Y-121525000D03*
%TD*%
D43*
%TO.C,U5*%
X119037500Y-142450000D03*
X119037500Y-141500000D03*
X119037500Y-140550000D03*
X116762500Y-140550000D03*
X116762500Y-141500000D03*
X116762500Y-142450000D03*
%TD*%
D44*
%TO.C,SW2*%
X108150000Y-117000000D03*
X114450000Y-117000000D03*
X114450000Y-113200000D03*
X108150000Y-113200000D03*
%TD*%
D22*
%TO.C,C11*%
X144625000Y-116550000D03*
X147575000Y-116550000D03*
%TD*%
D35*
%TO.C,J3*%
X127800000Y-104000000D03*
%TD*%
D42*
%TO.C,J1*%
X138400000Y-104000000D03*
%TD*%
D44*
%TO.C,SW4*%
X104850000Y-113200000D03*
X98550000Y-113200000D03*
X104850000Y-117000000D03*
X98550000Y-117000000D03*
%TD*%
D45*
%TO.C,D7*%
X96400000Y-116387500D03*
X96400000Y-114812500D03*
%TD*%
D15*
%TO.C,C1*%
X130600000Y-118575000D03*
X130600000Y-121525000D03*
%TD*%
D28*
%TO.C,R28*%
X120700000Y-122790000D03*
X120700000Y-123810000D03*
%TD*%
D18*
%TO.C,C9*%
X119375000Y-109700000D03*
X116425000Y-109700000D03*
%TD*%
D46*
%TO.C,U1*%
X130750000Y-130437500D03*
X130250000Y-130437500D03*
X129750000Y-130437500D03*
X129250000Y-130437500D03*
X128750000Y-130437500D03*
X128250000Y-130437500D03*
X127750000Y-130437500D03*
X127250000Y-130437500D03*
X126750000Y-130437500D03*
X126250000Y-130437500D03*
D47*
X125562500Y-129750000D03*
X125562500Y-129250000D03*
X125562500Y-128750000D03*
X125562500Y-128250000D03*
X125562500Y-127750000D03*
X125562500Y-127250000D03*
X125562500Y-126750000D03*
X125562500Y-126250000D03*
X125562500Y-125750000D03*
X125562500Y-125250000D03*
D46*
X126250000Y-124562500D03*
X126750000Y-124562500D03*
X127250000Y-124562500D03*
X127750000Y-124562500D03*
X128250000Y-124562500D03*
X128750000Y-124562500D03*
X129250000Y-124562500D03*
X129750000Y-124562500D03*
X130250000Y-124562500D03*
X130750000Y-124562500D03*
D47*
X131437500Y-125250000D03*
X131437500Y-125750000D03*
X131437500Y-126250000D03*
X131437500Y-126750000D03*
X131437500Y-127250000D03*
X131437500Y-127750000D03*
X131437500Y-128250000D03*
X131437500Y-128750000D03*
X131437500Y-129250000D03*
X131437500Y-129750000D03*
D48*
X129500000Y-128500000D03*
X129500000Y-126500000D03*
D49*
X126712500Y-129287500D03*
D48*
X128500000Y-128500000D03*
D50*
X126712500Y-125712500D03*
D48*
X128500000Y-127500000D03*
X127500000Y-127500000D03*
D51*
X127500000Y-125712500D03*
D48*
X127500000Y-128500000D03*
X129500000Y-127500000D03*
X127500000Y-126500000D03*
D52*
X130287500Y-125712500D03*
D53*
X126712500Y-126500000D03*
D54*
X130287500Y-128500000D03*
D51*
X129500000Y-125712500D03*
D55*
X129500000Y-129287500D03*
D53*
X126712500Y-128500000D03*
D54*
X130287500Y-127500000D03*
D55*
X128500000Y-129287500D03*
D54*
X130287500Y-126500000D03*
D51*
X128500000Y-125712500D03*
D48*
X128500000Y-126500000D03*
D53*
X126712500Y-127500000D03*
D56*
X130287500Y-129287500D03*
D55*
X127500000Y-129287500D03*
%TD*%
D32*
%TO.C,R9*%
X133450000Y-134260000D03*
X133450000Y-133240000D03*
%TD*%
D15*
%TO.C,C20*%
X134900000Y-123225000D03*
X134900000Y-126175000D03*
%TD*%
D33*
%TO.C,C22*%
X124280000Y-126600000D03*
X123320000Y-126600000D03*
%TD*%
D35*
%TO.C,J4*%
X120500000Y-104000000D03*
%TD*%
D18*
%TO.C,C38*%
X148275000Y-123550000D03*
X145325000Y-123550000D03*
%TD*%
D15*
%TO.C,C10*%
X138100000Y-118575000D03*
X138100000Y-121525000D03*
%TD*%
D16*
%TO.C,R1*%
X142000000Y-105862500D03*
X142000000Y-99937500D03*
%TD*%
D18*
%TO.C,C30*%
X119375000Y-107400000D03*
X116425000Y-107400000D03*
%TD*%
D34*
%TO.C,R13*%
X96910000Y-113600000D03*
X95890000Y-113600000D03*
%TD*%
M02*
